<?xml version="1.0" encoding="UTF-8" ?>
<!DOCTYPE svg PUBLIC "-//W3C//DTD SVG 1.1//EN" "http://www.w3.org/Graphics/SVG/1.1/DTD/svg11.dtd">
<svg width="1336pt" height="1758pt" viewBox="0 0 1336 1758" version="1.1" xmlns="http://www.w3.org/2000/svg">
<g id="#504f4fff">
<path fill="#504f4f" opacity="1.00" d=" M 496.94 66.99 C 500.32 59.81 508.01 54.73 516.02 54.96 C 524.08 54.42 532.06 59.17 535.71 66.32 C 538.23 70.83 538.42 76.20 537.69 81.20 C 536.08 89.12 529.60 95.89 521.64 97.52 C 518.51 97.99 515.32 98.05 512.16 97.82 C 503.90 96.21 496.91 89.43 495.30 81.13 C 494.64 76.40 494.73 71.34 496.94 66.99 Z" />
<path fill="#504f4f" opacity="1.00" d=" M 388.94 383.01 C 421.16 382.99 453.41 395.89 475.84 419.19 C 497.98 441.06 510.42 471.96 510.85 502.96 C 511.17 522.56 506.34 542.12 497.75 559.70 C 488.58 577.55 474.91 593.03 458.46 604.49 C 438.25 618.60 413.57 625.89 389.00 625.98 C 388.98 617.98 388.95 609.98 389.04 601.99 C 423.17 602.55 456.68 583.13 473.50 553.49 C 482.79 537.73 487.56 519.29 486.80 500.99 C 486.27 482.10 479.65 463.60 468.83 448.17 C 450.97 422.66 420.21 406.49 388.99 407.02 C 388.92 399.01 389.05 391.01 388.94 383.01 Z" />
<path fill="#504f4f" opacity="1.00" d=" M 661.05 399.06 C 676.86 398.93 692.60 402.67 706.95 409.22 C 734.41 422.13 755.76 447.52 763.26 476.98 C 772.10 508.72 764.80 544.48 744.15 570.17 C 724.58 595.37 692.81 610.22 661.00 609.94 C 661.06 603.44 660.98 596.94 661.16 590.45 C 663.20 590.02 665.25 589.57 667.32 589.19 C 678.89 588.01 690.37 585.15 700.63 579.56 C 715.93 571.63 728.68 558.85 736.51 543.49 C 746.57 525.07 748.48 502.81 743.37 482.60 C 739.22 468.21 731.58 454.68 720.84 444.18 C 705.15 428.51 683.13 419.59 660.96 419.77 C 661.03 412.86 660.96 405.96 661.05 399.06 Z" />
<path fill="#504f4f" opacity="1.00" d=" M 695.20 822.39 C 704.88 820.96 715.12 825.17 721.19 832.80 C 728.53 842.52 728.72 856.74 721.57 866.61 C 715.23 875.25 703.51 879.67 693.05 877.20 C 687.58 876.10 682.59 873.13 678.59 869.30 C 670.96 861.03 668.86 848.11 673.83 837.96 C 677.46 829.39 686.15 823.67 695.20 822.39 M 696.19 830.22 C 687.01 831.31 679.29 839.62 679.09 848.89 C 678.58 855.48 681.71 862.10 687.02 866.01 C 696.21 873.31 711.26 870.05 716.58 859.57 C 720.60 852.26 719.48 842.38 713.62 836.37 C 709.29 831.57 702.55 829.33 696.19 830.22 Z" />
<path fill="#504f4f" opacity="1.00" d=" M 617.38 842.47 C 630.46 840.78 644.19 844.30 654.83 852.11 C 668.19 861.51 675.87 877.86 675.97 894.04 C 675.76 904.51 672.80 915.06 666.69 923.64 C 657.06 938.27 639.26 946.57 621.91 945.90 C 612.39 945.35 602.91 942.56 595.01 937.16 C 579.48 927.19 570.74 908.14 572.20 889.89 C 573.12 880.31 576.38 870.87 582.14 863.12 C 590.27 851.64 603.54 844.32 617.38 842.47 M 616.42 850.65 C 599.56 853.41 585.15 866.87 581.27 883.51 C 577.63 897.91 581.92 914.07 592.44 924.60 C 600.76 933.39 612.93 938.30 625.00 937.97 C 636.17 937.77 647.21 933.10 655.06 925.14 C 664.04 916.33 668.83 903.48 667.88 890.95 C 667.00 876.38 658.25 862.58 645.43 855.59 C 636.72 850.63 626.28 848.95 616.42 850.65 Z" />
<path fill="#504f4f" opacity="1.00" d=" M 700.22 890.39 C 707.34 889.38 715.08 891.55 720.01 896.95 C 726.04 902.38 728.01 911.25 726.20 918.98 C 725.08 925.66 720.08 931.05 714.41 934.37 C 707.87 937.55 699.94 937.59 693.29 934.72 C 688.83 932.40 685.08 928.69 682.58 924.34 C 679.45 917.79 679.42 909.89 682.29 903.26 C 685.85 896.54 692.44 891.05 700.22 890.39 M 699.42 898.54 C 692.68 900.24 687.59 906.97 688.08 913.96 C 687.94 922.25 695.71 929.53 703.97 928.92 C 712.66 929.08 720.07 920.57 718.87 911.98 C 718.40 902.68 708.27 895.88 699.42 898.54 Z" />
<path fill="#504f4f" opacity="1.00" d=" M 1115.68 942.86 C 1128.42 936.31 1144.04 936.43 1157.10 942.07 C 1169.88 948.46 1179.82 960.10 1183.67 973.92 C 1185.61 981.74 1185.53 990.09 1183.75 997.94 C 1181.22 1005.86 1177.33 1013.48 1171.42 1019.43 C 1166.19 1024.98 1159.46 1028.84 1152.45 1031.66 C 1136.89 1036.87 1118.56 1033.76 1106.14 1022.87 C 1094.94 1013.38 1088.29 998.75 1089.03 984.04 C 1089.46 966.73 1100.37 950.65 1115.68 942.86 M 1130.27 964.32 C 1122.66 966.28 1116.20 972.42 1114.15 980.05 C 1112.49 986.55 1113.53 993.87 1117.61 999.30 C 1121.61 1004.80 1128.16 1008.44 1135.02 1008.54 C 1143.17 1008.99 1151.29 1004.44 1155.32 997.38 C 1158.44 992.33 1158.40 986.07 1157.56 980.40 C 1154.88 968.73 1141.80 960.99 1130.27 964.32 Z" />
<path fill="#504f4f" opacity="1.00" d=" M 114.09 1242.18 C 125.51 1228.61 144.57 1221.96 161.89 1226.24 C 175.65 1229.40 187.53 1238.94 193.97 1251.46 C 200.29 1263.37 200.69 1278.13 195.83 1290.63 C 190.04 1304.80 177.46 1315.84 162.64 1319.70 C 154.73 1321.70 146.22 1321.53 138.32 1319.51 C 122.92 1314.97 110.05 1302.85 105.13 1287.50 C 100.19 1272.22 103.47 1254.34 114.09 1242.18 M 146.32 1249.42 C 136.12 1251.05 127.94 1260.72 128.07 1271.06 C 127.64 1280.29 133.74 1289.26 142.35 1292.50 C 147.74 1294.47 153.89 1294.45 159.22 1292.27 C 166.52 1289.17 172.18 1282.07 172.80 1274.06 C 173.64 1266.87 170.93 1259.32 165.38 1254.60 C 160.32 1249.93 153.02 1248.22 146.32 1249.42 Z" />
<path fill="#504f4f" opacity="1.00" d=" M 346.01 1303.00 C 370.34 1303.00 394.67 1303.00 419.00 1303.00 C 419.00 1316.32 419.00 1329.63 419.00 1342.96 C 394.67 1343.03 370.33 1343.06 346.00 1342.93 C 346.00 1329.62 345.99 1316.31 346.01 1303.00 Z" />
<path fill="#504f4f" opacity="1.00" d=" M 616.01 1303.00 C 640.34 1303.00 664.66 1302.99 688.99 1303.00 C 689.01 1316.31 689.00 1329.62 689.00 1342.94 C 664.67 1343.04 640.33 1343.06 616.00 1342.92 C 616.00 1329.62 615.99 1316.31 616.01 1303.00 Z" />
<path fill="#504f4f" opacity="1.00" d=" M 346.00 1368.07 C 370.33 1367.96 394.67 1367.95 419.00 1368.06 C 419.00 1381.01 419.00 1393.97 419.00 1406.93 C 394.67 1407.07 370.33 1407.00 346.00 1406.94 C 346.00 1393.98 346.00 1381.03 346.00 1368.07 Z" />
<path fill="#504f4f" opacity="1.00" d=" M 616.00 1368.04 C 640.33 1367.99 664.67 1367.94 689.00 1368.06 C 689.00 1381.03 689.00 1393.99 689.00 1406.96 C 664.67 1407.02 640.33 1407.06 616.00 1406.93 C 616.00 1393.97 616.00 1381.00 616.00 1368.04 Z" />
<path fill="#504f4f" opacity="1.00" d=" M 346.00 1432.03 C 370.33 1431.99 394.67 1431.95 419.00 1432.06 C 419.00 1446.35 419.00 1460.64 419.00 1474.94 C 394.67 1475.02 370.33 1475.08 346.00 1474.92 C 345.99 1460.62 346.00 1446.32 346.00 1432.03 Z" />
<path fill="#504f4f" opacity="1.00" d=" M 616.00 1432.07 C 640.33 1431.94 664.67 1431.96 689.00 1432.07 C 689.00 1446.36 689.00 1460.64 689.00 1474.93 C 664.67 1475.02 640.33 1475.07 616.00 1474.92 C 616.00 1460.64 616.00 1446.35 616.00 1432.07 Z" />
<path fill="#504f4f" opacity="1.00" d=" M 346.00 1500.08 C 370.33 1499.96 394.67 1499.93 419.00 1500.08 C 419.00 1513.69 419.00 1527.30 418.99 1540.91 C 394.67 1541.09 370.33 1541.00 346.00 1540.95 C 346.00 1527.32 346.00 1513.70 346.00 1500.08 Z" />
<path fill="#504f4f" opacity="1.00" d=" M 616.00 1500.08 C 640.33 1499.93 664.67 1499.98 689.00 1500.07 C 689.00 1513.69 689.00 1527.32 689.00 1540.95 C 664.67 1541.04 640.33 1541.02 616.00 1540.95 C 616.00 1527.32 615.99 1513.70 616.00 1500.08 Z" />
<path fill="#504f4f" opacity="1.00" d=" M 346.00 1566.08 C 370.33 1565.93 394.67 1565.98 419.00 1566.05 C 418.99 1580.45 419.03 1594.86 418.98 1609.27 C 396.29 1598.76 369.78 1597.11 346.00 1604.91 C 346.00 1591.96 345.99 1579.02 346.00 1566.08 Z" />
<path fill="#504f4f" opacity="1.00" d=" M 616.00 1566.05 C 640.33 1565.97 664.67 1565.94 689.00 1566.07 C 688.99 1579.60 689.03 1593.13 688.97 1606.67 C 671.88 1600.27 653.11 1598.22 635.12 1601.63 C 628.58 1602.79 622.26 1604.86 616.01 1607.08 C 615.99 1593.40 616.00 1579.73 616.00 1566.05 Z" />
</g>
<g id="#595858ff">
<path fill="#595858" opacity="1.00" d=" M 512.16 97.82 C 515.32 98.05 518.51 97.99 521.64 97.52 C 521.62 104.07 521.87 110.66 521.08 117.16 C 516.58 120.03 511.10 121.10 506.78 124.28 C 518.54 127.26 530.43 129.73 542.18 132.76 C 544.02 133.34 546.44 133.76 547.18 135.84 C 548.33 138.10 547.08 141.07 544.82 142.07 C 533.32 147.12 520.93 149.93 509.47 154.99 C 521.88 159.31 535.27 160.43 547.37 165.74 C 548.20 167.36 548.12 169.28 548.15 171.06 C 547.31 172.03 546.01 172.35 544.91 172.91 C 531.69 178.70 517.73 182.59 504.45 188.24 C 510.48 192.26 517.20 195.09 523.40 198.81 C 524.91 212.82 524.16 227.00 525.15 241.05 C 531.01 242.16 536.67 245.10 540.32 249.92 C 535.22 249.94 530.12 250.06 525.02 250.01 C 517.59 249.99 510.17 250.06 502.75 249.86 C 506.52 246.34 511.32 244.24 515.47 241.29 C 515.54 229.10 515.22 216.84 514.41 204.70 C 508.31 200.85 501.68 197.92 495.39 194.40 C 492.85 192.80 489.12 191.93 488.37 188.63 C 487.67 186.82 489.07 185.19 489.62 183.56 C 502.27 178.66 515.18 174.46 527.89 169.71 C 514.26 165.98 500.36 163.28 486.86 159.04 C 488.06 155.67 489.06 150.98 493.21 150.27 C 504.25 146.88 515.07 142.83 526.02 139.18 C 514.80 135.13 502.97 133.09 491.36 130.50 C 488.98 129.15 486.15 126.96 486.45 123.89 C 487.82 121.00 491.23 120.20 493.90 118.98 C 499.94 116.16 506.13 113.72 512.24 111.06 C 512.18 106.65 512.17 102.24 512.16 97.82 Z" />
<path fill="#595858" opacity="1.00" d=" M 432.64 670.71 C 435.78 668.88 439.58 669.54 443.05 669.42 C 470.37 669.45 497.69 669.52 525.01 669.41 C 550.35 669.51 575.68 669.70 601.02 669.53 C 604.05 669.64 607.84 669.36 609.89 672.09 C 612.27 675.55 611.43 680.02 611.63 683.98 C 611.83 689.95 611.22 696.00 612.33 701.91 C 605.52 702.70 599.38 705.76 593.01 708.02 C 589.25 709.62 585.80 706.78 582.15 706.32 C 579.36 707.55 577.23 710.45 573.96 710.33 C 570.78 710.27 567.28 710.97 564.32 709.79 C 560.76 704.22 558.00 698.09 556.26 691.71 C 555.39 688.97 554.67 686.09 552.97 683.73 C 551.53 682.63 550.56 684.81 549.66 685.59 C 544.44 692.76 540.70 701.05 534.38 707.40 C 531.87 710.01 528.27 710.96 524.89 711.85 C 522.97 709.63 521.58 706.45 518.80 705.29 C 514.29 705.83 512.42 711.71 508.17 712.68 C 504.77 710.11 502.38 706.45 499.12 703.72 C 496.80 706.85 494.07 709.77 490.36 711.22 C 489.06 707.63 488.64 703.06 484.99 700.99 C 480.89 703.23 479.17 707.92 475.92 711.08 C 473.68 709.26 474.24 705.88 473.41 703.36 C 471.66 696.66 471.00 689.67 468.77 683.10 C 468.46 681.40 466.52 681.45 465.27 680.88 C 460.37 689.69 455.08 698.44 452.01 708.09 C 451.38 710.05 451.12 714.27 454.01 714.22 C 459.80 708.24 460.80 699.32 465.55 692.70 C 467.02 700.19 468.99 707.59 471.19 714.90 C 471.94 717.63 473.70 720.46 476.75 720.90 C 479.63 717.68 481.57 713.75 484.30 710.40 C 486.21 713.45 487.58 716.79 489.30 719.95 C 492.43 717.57 495.24 714.62 498.89 713.02 C 502.32 714.84 503.83 718.91 507.12 720.80 C 510.25 720.57 511.98 717.60 513.68 715.35 C 516.96 714.84 520.05 715.73 522.19 718.36 C 522.49 718.14 523.09 717.70 523.38 717.48 C 523.54 720.40 524.78 723.20 527.28 724.85 C 528.71 724.67 529.44 723.31 530.30 722.33 C 536.52 714.10 542.48 705.66 548.06 696.98 C 549.06 695.49 550.26 694.15 551.46 692.83 C 553.95 700.91 555.46 709.53 560.32 716.65 C 565.89 716.74 571.46 716.80 577.02 717.07 C 579.79 717.51 581.84 715.32 584.22 714.35 C 587.04 714.66 589.77 716.31 592.67 715.50 C 599.39 714.01 605.66 711.06 612.25 709.14 C 610.53 717.40 612.45 725.93 611.21 734.23 C 610.55 738.08 606.46 739.63 602.97 739.41 C 576.99 739.40 551.01 739.43 525.03 739.57 C 496.33 739.50 467.63 739.54 438.94 739.58 C 436.36 739.55 433.46 739.37 431.54 737.43 C 429.51 735.53 429.67 732.50 429.53 729.96 C 429.55 723.05 429.48 716.14 429.62 709.24 C 431.74 709.58 434.22 709.47 435.81 711.21 C 439.43 714.82 442.30 719.09 445.50 723.07 C 448.81 721.80 451.31 718.63 450.43 714.93 C 448.13 713.29 445.39 712.44 443.06 710.86 C 440.18 708.75 438.60 705.28 435.61 703.30 C 433.68 702.31 431.40 702.62 429.31 702.43 C 429.12 694.59 429.44 686.77 429.42 678.94 C 429.43 675.97 429.85 672.41 432.64 670.71 Z" />
</g>
<g id="#919191ff">
<path fill="#919191" opacity="1.00" d=" M 185.57 252.66 C 190.05 251.83 194.40 250.10 199.00 249.99 C 278.32 250.01 357.65 249.99 436.97 250.00 C 458.90 249.91 480.83 250.17 502.75 249.86 C 510.17 250.06 517.59 249.99 525.02 250.01 C 524.97 389.81 524.99 529.61 525.01 669.41 C 497.69 669.52 470.37 669.45 443.05 669.42 C 439.58 669.54 435.78 668.88 432.64 670.71 C 429.85 672.41 429.43 675.97 429.42 678.94 C 429.44 686.77 429.12 694.59 429.31 702.43 C 431.40 702.62 433.68 702.31 435.61 703.30 C 438.60 705.28 440.18 708.75 443.06 710.86 C 445.39 712.44 448.13 713.29 450.43 714.93 C 451.31 718.63 448.81 721.80 445.50 723.07 C 442.30 719.09 439.43 714.82 435.81 711.21 C 434.22 709.47 431.74 709.58 429.62 709.24 C 429.48 716.14 429.55 723.05 429.53 729.96 C 429.67 732.50 429.51 735.53 431.54 737.43 C 433.46 739.37 436.36 739.55 438.94 739.58 C 467.63 739.54 496.33 739.50 525.03 739.57 C 524.87 752.38 525.10 765.20 524.99 778.01 C 441.99 778.00 359.00 777.98 276.00 778.00 C 250.34 778.00 224.68 777.99 199.02 778.01 C 195.57 778.02 192.30 776.82 188.96 776.13 C 185.83 775.32 182.51 774.96 179.65 773.37 C 173.99 769.82 168.26 765.96 164.79 760.09 C 159.45 754.00 158.98 745.64 157.11 738.14 C 156.85 702.74 157.08 667.33 157.00 631.93 C 157.00 546.98 157.00 462.02 157.00 377.07 C 156.99 349.72 157.02 322.37 156.98 295.02 C 156.61 288.29 159.08 281.89 160.46 275.40 C 162.49 270.30 166.07 265.88 169.68 261.81 C 174.50 258.08 179.32 253.63 185.57 252.66 M 282.32 272.27 C 279.09 273.19 275.98 275.32 274.37 278.31 C 273.36 282.45 273.32 288.06 277.42 290.59 C 279.81 292.05 282.30 294.20 285.30 293.69 C 289.79 293.12 294.45 289.82 294.94 285.06 C 295.32 281.71 295.28 277.80 292.71 275.27 C 289.94 272.80 286.04 271.05 282.32 272.27 M 239.31 283.44 C 232.32 284.92 225.64 287.48 218.92 289.84 C 200.32 297.85 183.45 312.92 178.30 333.08 C 177.61 339.03 175.50 345.72 178.78 351.25 C 180.45 353.04 182.18 355.84 184.88 355.80 C 194.77 352.99 200.22 343.58 205.60 335.60 C 210.78 328.58 215.93 321.22 223.41 316.45 C 231.45 309.69 241.33 305.85 250.96 301.99 C 255.43 299.57 261.21 296.75 261.73 291.03 C 260.07 287.61 257.33 284.30 253.43 283.47 C 248.81 282.43 243.97 282.79 239.31 283.44 M 309.79 412.74 C 301.67 419.30 295.06 427.51 289.08 436.01 C 278.45 451.08 272.31 468.87 269.21 486.94 C 267.72 498.23 267.69 509.71 269.05 521.02 C 271.91 538.51 277.58 555.77 287.46 570.60 C 293.90 580.21 301.25 589.38 310.28 596.69 C 331.84 615.53 360.46 625.78 389.00 625.98 C 413.57 625.89 438.25 618.60 458.46 604.49 C 474.91 593.03 488.58 577.55 497.75 559.70 C 506.34 542.12 511.17 522.56 510.85 502.96 C 510.42 471.96 497.98 441.06 475.84 419.19 C 453.41 395.89 421.16 382.99 388.94 383.01 C 360.21 383.28 331.39 393.63 309.79 412.74 Z" />
<path fill="#919191" opacity="1.00" d=" M 465.27 680.88 C 466.52 681.45 468.46 681.40 468.77 683.10 C 471.00 689.67 471.66 696.66 473.41 703.36 C 474.24 705.88 473.68 709.26 475.92 711.08 C 479.17 707.92 480.89 703.23 484.99 700.99 C 488.64 703.06 489.06 707.63 490.36 711.22 C 494.07 709.77 496.80 706.85 499.12 703.72 C 502.38 706.45 504.77 710.11 508.17 712.68 C 512.42 711.71 514.29 705.83 518.80 705.29 C 521.58 706.45 522.97 709.63 524.89 711.85 C 528.27 710.96 531.87 710.01 534.38 707.40 C 540.70 701.05 544.44 692.76 549.66 685.59 C 550.56 684.81 551.53 682.63 552.97 683.73 C 554.67 686.09 555.39 688.97 556.26 691.71 C 558.00 698.09 560.76 704.22 564.32 709.79 C 567.28 710.97 570.78 710.27 573.96 710.33 C 577.23 710.45 579.36 707.55 582.15 706.32 C 585.80 706.78 589.25 709.62 593.01 708.02 C 599.38 705.76 605.52 702.70 612.33 701.91 C 612.90 704.30 613.01 706.77 612.25 709.14 C 605.66 711.06 599.39 714.01 592.67 715.50 C 589.77 716.31 587.04 714.66 584.22 714.35 C 581.84 715.32 579.79 717.51 577.02 717.07 C 571.46 716.80 565.89 716.74 560.32 716.65 C 555.46 709.53 553.95 700.91 551.46 692.83 C 550.26 694.15 549.06 695.49 548.06 696.98 C 542.48 705.66 536.52 714.10 530.30 722.33 C 529.44 723.31 528.71 724.67 527.28 724.85 C 524.78 723.20 523.54 720.40 523.38 717.48 C 523.09 717.70 522.49 718.14 522.19 718.36 C 520.05 715.73 516.96 714.84 513.68 715.35 C 511.98 717.60 510.25 720.57 507.12 720.80 C 503.83 718.91 502.32 714.84 498.89 713.02 C 495.24 714.62 492.43 717.57 489.30 719.95 C 487.58 716.79 486.21 713.45 484.30 710.40 C 481.57 713.75 479.63 717.68 476.75 720.90 C 473.70 720.46 471.94 717.63 471.19 714.90 C 468.99 707.59 467.02 700.19 465.55 692.70 C 460.80 699.32 459.80 708.24 454.01 714.22 C 451.12 714.27 451.38 710.05 452.01 708.09 C 455.08 698.44 460.37 689.69 465.27 680.88 Z" />
<path fill="#919191" opacity="1.00" d=" M 276.00 798.93 C 359.00 799.09 442.00 798.94 525.00 799.00 C 525.04 967.00 524.92 1135.00 525.06 1303.00 C 489.70 1303.00 454.35 1303.00 419.00 1303.00 C 394.67 1303.00 370.34 1303.00 346.01 1303.00 C 322.67 1303.00 299.34 1303.00 276.00 1303.00 C 276.00 1185.34 276.00 1067.68 276.00 950.02 C 275.98 944.04 276.08 938.05 275.87 932.07 C 276.21 912.40 275.87 892.72 276.02 873.05 C 276.02 864.03 276.01 855.02 276.01 846.00 C 276.06 841.26 275.93 836.52 275.92 831.79 C 276.09 820.84 275.95 809.89 276.00 798.93 M 327.02 858.01 C 327.01 869.34 326.98 880.66 327.03 891.99 C 386.01 892.02 444.98 891.98 503.96 892.01 C 504.04 880.67 504.01 869.33 503.98 858.00 C 444.99 858.00 386.00 857.99 327.02 858.01 M 327.02 907.99 C 326.95 919.32 327.03 930.64 327.00 941.97 C 385.99 942.04 444.99 941.99 503.99 941.99 C 504.00 930.66 504.01 919.33 503.99 908.01 C 445.00 907.98 386.01 908.02 327.02 907.99 Z" />
</g>
<g id="#858585ff">
<path fill="#858585" opacity="1.00" d=" M 525.02 250.01 C 530.12 250.06 535.22 249.94 540.32 249.92 C 637.21 250.11 734.10 249.95 830.99 250.00 C 833.60 250.02 836.09 250.89 838.63 251.44 C 843.16 252.62 848.11 253.07 851.89 256.12 C 857.16 259.41 861.84 263.60 865.09 268.95 C 869.21 273.74 869.59 280.21 871.21 286.05 C 872.39 289.93 871.94 294.02 872.00 298.01 C 872.00 326.19 871.99 354.36 872.01 382.54 C 872.00 467.17 871.99 551.81 872.01 636.44 C 871.98 669.96 872.01 703.48 872.00 737.00 C 871.71 741.49 870.08 745.77 869.26 750.18 C 868.52 755.00 865.23 758.75 862.52 762.60 C 859.49 766.99 854.84 769.80 850.53 772.78 C 847.40 774.94 843.52 775.32 839.94 776.26 C 836.64 776.96 833.39 778.13 829.98 778.02 C 810.32 777.98 790.66 778.00 771.00 778.00 C 688.99 778.02 606.99 777.96 524.99 778.01 C 525.10 765.20 524.87 752.38 525.03 739.57 C 551.01 739.43 576.99 739.40 602.97 739.41 C 606.46 739.63 610.55 738.08 611.21 734.23 C 612.45 725.93 610.53 717.40 612.25 709.14 C 613.01 706.77 612.90 704.30 612.33 701.91 C 611.22 696.00 611.83 689.95 611.63 683.98 C 611.43 680.02 612.27 675.55 609.89 672.09 C 607.84 669.36 604.05 669.64 601.02 669.53 C 575.68 669.70 550.35 669.51 525.01 669.41 C 524.99 529.61 524.97 389.81 525.02 250.01 M 589.51 427.55 C 564.60 450.34 552.38 485.76 557.16 519.09 C 558.78 527.81 560.50 536.60 564.17 544.73 C 570.84 561.55 582.36 576.33 596.54 587.50 C 614.67 602.00 637.88 609.68 661.00 609.94 C 692.81 610.22 724.58 595.37 744.15 570.17 C 764.80 544.48 772.10 508.72 763.26 476.98 C 755.76 447.52 734.41 422.13 706.95 409.22 C 692.60 402.67 676.86 398.93 661.05 399.06 C 634.78 399.25 608.57 409.34 589.51 427.55 Z" />
<path fill="#858585" opacity="1.00" d=" M 525.00 799.00 C 607.00 798.96 689.00 799.08 771.00 798.92 C 771.02 809.36 770.97 819.80 771.02 830.25 C 771.54 830.21 772.57 830.15 773.08 830.12 C 772.60 830.40 771.63 830.95 771.15 831.23 C 770.84 848.54 771.04 865.86 771.03 883.18 C 770.90 887.62 771.02 892.06 771.24 896.51 C 770.75 904.53 771.07 912.58 771.06 920.61 C 770.92 934.94 770.96 949.26 771.10 963.58 C 770.87 1076.72 771.07 1189.86 771.00 1303.00 C 743.66 1303.00 716.33 1302.99 688.99 1303.00 C 664.66 1302.99 640.34 1303.00 616.01 1303.00 C 585.69 1302.99 555.37 1303.00 525.06 1303.00 C 524.92 1135.00 525.04 967.00 525.00 799.00 M 695.20 822.39 C 686.15 823.67 677.46 829.39 673.83 837.96 C 668.86 848.11 670.96 861.03 678.59 869.30 C 682.59 873.13 687.58 876.10 693.05 877.20 C 703.51 879.67 715.23 875.25 721.57 866.61 C 728.72 856.74 728.53 842.52 721.19 832.80 C 715.12 825.17 704.88 820.96 695.20 822.39 M 617.38 842.47 C 603.54 844.32 590.27 851.64 582.14 863.12 C 576.38 870.87 573.12 880.31 572.20 889.89 C 570.74 908.14 579.48 927.19 595.01 937.16 C 602.91 942.56 612.39 945.35 621.91 945.90 C 639.26 946.57 657.06 938.27 666.69 923.64 C 672.80 915.06 675.76 904.51 675.97 894.04 C 675.87 877.86 668.19 861.51 654.83 852.11 C 644.19 844.30 630.46 840.78 617.38 842.47 M 700.22 890.39 C 692.44 891.05 685.85 896.54 682.29 903.26 C 679.42 909.89 679.45 917.79 682.58 924.34 C 685.08 928.69 688.83 932.40 693.29 934.72 C 699.94 937.59 707.87 937.55 714.41 934.37 C 720.08 931.05 725.08 925.66 726.20 918.98 C 728.01 911.25 726.04 902.38 720.01 896.95 C 715.08 891.55 707.34 889.38 700.22 890.39 Z" />
<path fill="#858585" opacity="1.00" d=" M 1155.60 938.62 C 1178.29 922.10 1200.17 904.43 1224.03 889.59 C 1254.26 890.39 1282.14 903.83 1311.69 908.67 C 1311.33 924.33 1310.66 940.02 1308.72 955.57 C 1297.31 951.93 1285.55 949.50 1274.02 946.28 C 1261.07 943.11 1248.22 939.49 1235.12 937.04 C 1218.19 949.64 1201.13 962.07 1183.67 973.92 C 1179.82 960.10 1169.88 948.46 1157.10 942.07 C 1155.65 941.60 1153.96 939.87 1155.60 938.62 Z" />
<path fill="#858585" opacity="1.00" d=" M 1130.27 964.32 C 1141.80 960.99 1154.88 968.73 1157.56 980.40 C 1158.40 986.07 1158.44 992.33 1155.32 997.38 C 1151.29 1004.44 1143.17 1008.99 1135.02 1008.54 C 1128.16 1008.44 1121.61 1004.80 1117.61 999.30 C 1113.53 993.87 1112.49 986.55 1114.15 980.05 C 1116.20 972.42 1122.66 966.28 1130.27 964.32 Z" />
<path fill="#858585" opacity="1.00" d=" M 1171.42 1019.43 C 1177.33 1013.48 1181.22 1005.86 1183.75 997.94 C 1197.61 1009.45 1208.63 1023.91 1222.42 1035.49 C 1224.67 1037.35 1226.64 1040.33 1229.95 1040.12 C 1254.37 1040.13 1278.43 1034.89 1302.82 1034.21 C 1301.99 1049.61 1300.28 1064.95 1299.23 1080.34 C 1286.18 1081.64 1273.09 1082.56 1260.00 1083.20 C 1254.69 1083.59 1249.23 1082.84 1244.12 1084.62 C 1232.37 1085.10 1220.73 1087.22 1208.98 1087.87 C 1190.19 1069.08 1172.43 1049.24 1152.45 1031.66 C 1159.46 1028.84 1166.19 1024.98 1171.42 1019.43 Z" />
<path fill="#858585" opacity="1.00" d=" M 146.32 1249.42 C 153.02 1248.22 160.32 1249.93 165.38 1254.60 C 170.93 1259.32 173.64 1266.87 172.80 1274.06 C 172.18 1282.07 166.52 1289.17 159.22 1292.27 C 153.89 1294.45 147.74 1294.47 142.35 1292.50 C 133.74 1289.26 127.64 1280.29 128.07 1271.06 C 127.94 1260.72 136.12 1251.05 146.32 1249.42 Z" />
<path fill="#858585" opacity="1.00" d=" M 48.22 1344.04 C 67.29 1325.30 87.33 1307.49 105.13 1287.50 C 110.05 1302.85 122.92 1314.97 138.32 1319.51 C 125.01 1334.48 109.31 1347.11 96.37 1362.42 C 95.56 1366.60 95.79 1370.87 96.13 1375.09 C 96.99 1396.27 100.69 1417.22 101.43 1438.40 C 86.09 1436.93 70.72 1435.52 55.35 1434.31 C 53.52 1417.27 52.83 1400.11 52.29 1382.99 C 51.49 1380.07 50.81 1377.12 51.06 1374.07 C 50.21 1364.05 48.93 1354.07 48.22 1344.04 Z" />
<path fill="#858585" opacity="1.00" d=" M 195.83 1290.63 C 198.45 1291.32 199.54 1293.93 201.00 1295.94 C 211.96 1311.01 223.31 1325.80 233.92 1341.12 C 238.15 1347.64 242.89 1353.89 246.40 1360.84 C 245.31 1390.87 231.89 1418.54 226.65 1447.84 C 211.09 1447.38 195.50 1446.58 180.05 1444.62 C 186.43 1422.20 192.20 1399.61 197.76 1376.97 C 198.25 1375.03 198.58 1373.03 198.93 1371.09 C 186.54 1354.17 174.29 1337.14 162.64 1319.70 C 177.46 1315.84 190.04 1304.80 195.83 1290.63 Z" />
<path fill="#858585" opacity="1.00" d=" M 346.00 1342.93 C 370.33 1343.06 394.67 1343.03 419.00 1342.96 C 419.00 1351.32 419.00 1359.69 419.00 1368.06 C 394.67 1367.95 370.33 1367.96 346.00 1368.07 C 346.00 1359.69 346.00 1351.31 346.00 1342.93 Z" />
<path fill="#858585" opacity="1.00" d=" M 616.00 1342.92 C 640.33 1343.06 664.67 1343.04 689.00 1342.94 C 689.00 1351.31 689.00 1359.68 689.00 1368.06 C 664.67 1367.94 640.33 1367.99 616.00 1368.04 C 616.00 1359.67 615.99 1351.29 616.00 1342.92 Z" />
<path fill="#858585" opacity="1.00" d=" M 346.00 1406.94 C 370.33 1407.00 394.67 1407.07 419.00 1406.93 C 419.00 1415.30 419.00 1423.68 419.00 1432.06 C 394.67 1431.95 370.33 1431.99 346.00 1432.03 C 346.00 1423.66 346.00 1415.30 346.00 1406.94 Z" />
<path fill="#858585" opacity="1.00" d=" M 616.00 1406.93 C 640.33 1407.06 664.67 1407.02 689.00 1406.96 C 689.00 1415.33 689.00 1423.70 689.00 1432.07 C 664.67 1431.96 640.33 1431.94 616.00 1432.07 C 616.00 1423.69 616.00 1415.31 616.00 1406.93 Z" />
<path fill="#858585" opacity="1.00" d=" M 346.00 1474.92 C 370.33 1475.08 394.67 1475.02 419.00 1474.94 C 419.00 1483.32 419.00 1491.70 419.00 1500.08 C 394.67 1499.93 370.33 1499.96 346.00 1500.08 C 346.00 1491.69 346.00 1483.30 346.00 1474.92 Z" />
<path fill="#858585" opacity="1.00" d=" M 616.00 1474.92 C 640.33 1475.07 664.67 1475.02 689.00 1474.93 C 689.00 1483.30 689.00 1491.69 689.00 1500.07 C 664.67 1499.98 640.33 1499.93 616.00 1500.08 C 615.99 1491.69 616.00 1483.30 616.00 1474.92 Z" />
<path fill="#858585" opacity="1.00" d=" M 346.00 1540.95 C 370.33 1541.00 394.67 1541.09 418.99 1540.91 C 419.00 1549.28 419.00 1557.66 419.00 1566.05 C 394.67 1565.98 370.33 1565.93 346.00 1566.08 C 346.00 1557.70 346.00 1549.32 346.00 1540.95 Z" />
<path fill="#858585" opacity="1.00" d=" M 616.00 1540.95 C 640.33 1541.02 664.67 1541.04 689.00 1540.95 C 689.00 1549.32 689.00 1557.69 689.00 1566.07 C 664.67 1565.94 640.33 1565.97 616.00 1566.05 C 616.00 1557.68 616.00 1549.31 616.00 1540.95 Z" />
</g>
<g id="#9d9d9dff">
<path fill="#9d9d9d" opacity="1.00" d=" M 282.32 272.27 C 286.04 271.05 289.94 272.80 292.71 275.27 C 295.28 277.80 295.32 281.71 294.94 285.06 C 294.45 289.82 289.79 293.12 285.30 293.69 C 282.30 294.20 279.81 292.05 277.42 290.59 C 273.32 288.06 273.36 282.45 274.37 278.31 C 275.98 275.32 279.09 273.19 282.32 272.27 Z" />
<path fill="#9d9d9d" opacity="1.00" d=" M 239.31 283.44 C 243.97 282.79 248.81 282.43 253.43 283.47 C 257.33 284.30 260.07 287.61 261.73 291.03 C 261.21 296.75 255.43 299.57 250.96 301.99 C 241.33 305.85 231.45 309.69 223.41 316.45 C 215.93 321.22 210.78 328.58 205.60 335.60 C 200.22 343.58 194.77 352.99 184.88 355.80 C 182.18 355.84 180.45 353.04 178.78 351.25 C 175.50 345.72 177.61 339.03 178.30 333.08 C 183.45 312.92 200.32 297.85 218.92 289.84 C 225.64 287.48 232.32 284.92 239.31 283.44 Z" />
</g>
<g id="#e44c2eff">
<path fill="#e44c2e" opacity="1.00" d=" M 104.85 399.81 C 120.26 388.47 138.24 380.76 157.00 377.07 C 157.00 462.02 157.00 546.98 157.00 631.93 C 121.59 625.24 89.50 603.07 70.83 572.24 C 51.62 541.20 46.77 501.91 57.31 467.02 C 65.28 440.22 82.29 416.29 104.85 399.81 M 106.42 429.43 C 93.96 432.00 83.45 442.44 81.24 455.03 C 80.64 459.57 81.48 464.83 85.22 467.89 C 88.26 471.56 93.43 472.26 97.89 471.76 C 107.62 470.14 116.28 463.67 121.16 455.18 C 124.30 449.55 125.93 442.57 123.46 436.37 C 121.87 434.10 119.93 431.95 117.57 430.48 C 114.04 429.18 110.12 428.46 106.42 429.43 Z" />
<path fill="#e44c2e" opacity="1.00" d=" M 872.01 382.54 C 902.63 388.74 930.61 406.62 949.29 431.63 C 959.85 445.69 967.48 461.94 971.59 479.03 C 978.72 509.01 975.09 541.57 960.81 568.96 C 943.37 603.28 909.80 628.91 872.01 636.44 C 871.99 551.81 872.00 467.17 872.01 382.54 M 907.36 426.34 C 903.04 426.69 899.87 430.07 897.52 433.38 C 894.98 440.04 896.89 447.54 900.52 453.41 C 905.70 461.51 914.32 467.64 923.98 468.83 C 928.22 469.11 932.99 468.37 935.84 464.89 C 939.74 461.66 940.51 456.06 939.64 451.34 C 937.83 442.43 931.80 434.58 923.98 430.06 C 918.92 427.40 913.16 425.20 907.36 426.34 Z" />
<path fill="#e44c2e" opacity="1.00" d=" M 696.19 830.22 C 702.55 829.33 709.29 831.57 713.62 836.37 C 719.48 842.38 720.60 852.26 716.58 859.57 C 711.26 870.05 696.21 873.31 687.02 866.01 C 681.71 862.10 678.58 855.48 679.09 848.89 C 679.29 839.62 687.01 831.31 696.19 830.22 Z" />
<path fill="#e44c2e" opacity="1.00" d=" M 616.42 850.65 C 626.28 848.95 636.72 850.63 645.43 855.59 C 658.25 862.58 667.00 876.38 667.88 890.95 C 668.83 903.48 664.04 916.33 655.06 925.14 C 647.21 933.10 636.17 937.77 625.00 937.97 C 612.93 938.30 600.76 933.39 592.44 924.60 C 581.92 914.07 577.63 897.91 581.27 883.51 C 585.15 866.87 599.56 853.41 616.42 850.65 M 617.33 862.47 C 613.29 863.83 609.09 865.09 605.63 867.66 C 596.65 873.90 590.96 885.01 592.00 896.00 C 593.19 911.19 606.63 924.44 621.93 925.00 C 632.62 925.70 643.25 920.08 649.32 911.37 C 654.33 904.27 656.35 895.11 654.39 886.61 C 652.31 879.85 648.85 873.23 643.07 868.93 C 635.91 863.24 626.35 860.58 617.33 862.47 Z" />
<path fill="#e44c2e" opacity="1.00" d=" M 699.42 898.54 C 708.27 895.88 718.40 902.68 718.87 911.98 C 720.07 920.57 712.66 929.08 703.97 928.92 C 695.71 929.53 687.94 922.25 688.08 913.96 C 687.59 906.97 692.68 900.24 699.42 898.54 Z" />
<path fill="#e44c2e" opacity="1.00" d=" M 346.00 1604.91 C 369.78 1597.11 396.29 1598.76 418.98 1609.27 C 452.78 1624.56 475.84 1660.86 475.01 1698.00 C 409.67 1698.00 344.33 1698.00 278.99 1698.00 C 278.57 1679.16 284.38 1660.38 294.54 1644.58 C 306.48 1626.02 324.93 1611.60 346.00 1604.91 M 401.30 1616.40 C 395.22 1617.22 390.07 1622.91 390.34 1629.14 C 390.41 1642.69 401.35 1654.50 414.02 1658.07 C 419.56 1659.90 426.41 1659.04 430.31 1654.37 C 433.84 1651.39 434.16 1646.34 433.77 1642.08 C 432.04 1632.38 425.45 1623.75 416.66 1619.34 C 411.92 1617.10 406.59 1615.20 401.30 1616.40 Z" />
<path fill="#e44c2e" opacity="1.00" d=" M 635.12 1601.63 C 653.11 1598.22 671.88 1600.27 688.97 1606.67 C 707.97 1613.92 724.46 1627.48 735.46 1644.57 C 745.62 1660.37 751.42 1679.16 751.01 1698.00 C 685.67 1698.00 620.33 1698.00 554.99 1698.00 C 554.07 1658.98 579.64 1621.11 616.01 1607.08 C 622.26 1604.86 628.58 1602.79 635.12 1601.63 M 675.36 1616.39 C 670.97 1616.62 667.81 1620.00 665.51 1623.41 C 663.07 1629.37 664.66 1636.08 667.54 1641.59 C 671.84 1649.44 679.23 1655.77 687.98 1658.01 C 693.48 1659.77 700.52 1659.23 704.31 1654.36 C 708.07 1650.98 708.38 1645.32 707.47 1640.67 C 705.29 1631.58 698.98 1623.54 690.64 1619.32 C 685.92 1617.07 680.63 1615.14 675.36 1616.39 Z" />
</g>
<g id="#555454ff">
<path fill="#555454" opacity="1.00" d=" M 309.79 412.74 C 331.39 393.63 360.21 383.28 388.94 383.01 C 389.05 391.01 388.92 399.01 388.99 407.02 C 367.35 406.82 345.92 414.62 329.04 428.06 C 303.13 448.41 288.42 482.50 292.71 515.32 C 296.10 550.75 321.12 582.93 354.36 595.46 C 365.35 599.90 377.20 602.01 389.04 601.99 C 388.95 609.98 388.98 617.98 389.00 625.98 C 360.46 625.78 331.84 615.53 310.28 596.69 C 301.25 589.38 293.90 580.21 287.46 570.60 C 277.58 555.77 271.91 538.51 269.05 521.02 C 267.69 509.71 267.72 498.23 269.21 486.94 C 272.31 468.87 278.45 451.08 289.08 436.01 C 295.06 427.51 301.67 419.30 309.79 412.74 Z" />
<path fill="#555454" opacity="1.00" d=" M 589.51 427.55 C 608.57 409.34 634.78 399.25 661.05 399.06 C 660.96 405.96 661.03 412.86 660.96 419.77 C 649.91 420.19 638.71 421.90 628.62 426.63 C 615.61 432.25 603.83 440.95 595.17 452.20 C 581.55 469.56 574.65 492.36 577.59 514.32 C 579.54 533.12 588.59 550.88 601.71 564.35 C 617.36 579.73 638.94 589.29 661.01 589.16 C 663.11 589.18 665.21 589.22 667.32 589.19 C 665.25 589.57 663.20 590.02 661.16 590.45 C 660.98 596.94 661.06 603.44 661.00 609.94 C 637.88 609.68 614.67 602.00 596.54 587.50 C 582.36 576.33 570.84 561.55 564.17 544.73 C 560.50 536.60 558.78 527.81 557.16 519.09 C 552.38 485.76 564.60 450.34 589.51 427.55 Z" />
</g>
<g id="#2b9c78ff">
<path fill="#2b9c78" opacity="1.00" d=" M 329.04 428.06 C 345.92 414.62 367.35 406.82 388.99 407.02 C 389.01 439.36 389.03 471.70 388.98 504.04 C 357.03 504.05 325.07 503.83 293.12 504.11 C 293.18 507.85 292.97 511.59 292.71 515.32 C 288.42 482.50 303.13 448.41 329.04 428.06 Z" />
<path fill="#2b9c78" opacity="1.00" d=" M 628.62 426.63 C 638.71 421.90 649.91 420.19 660.96 419.77 C 661.03 447.84 661.06 475.91 660.96 503.98 C 653.91 504.01 646.86 504.02 639.81 503.99 C 634.42 502.07 628.59 502.13 623.21 504.00 C 608.19 504.16 593.17 503.82 578.16 504.14 C 578.13 507.54 577.89 510.93 577.59 514.32 C 574.65 492.36 581.55 469.56 595.17 452.20 C 603.83 440.95 615.61 432.25 628.62 426.63 Z" />
</g>
<g id="#259974ff">
<path fill="#259974" opacity="1.00" d=" M 388.99 407.02 C 420.21 406.49 450.97 422.66 468.83 448.17 C 479.65 463.60 486.27 482.10 486.80 500.99 C 487.56 519.29 482.79 537.73 473.50 553.49 C 456.68 583.13 423.17 602.55 389.04 601.99 C 388.96 569.34 389.03 536.69 388.98 504.04 C 389.03 471.70 389.01 439.36 388.99 407.02 M 419.32 502.41 C 412.61 503.93 407.13 509.46 405.31 516.04 C 404.55 521.64 404.55 528.00 408.36 532.59 C 412.86 538.42 420.83 542.43 428.21 540.29 C 432.71 538.57 437.37 536.20 439.98 531.96 C 444.76 524.55 444.12 513.57 437.39 507.52 C 432.93 502.50 425.68 501.16 419.32 502.41 Z" />
<path fill="#259974" opacity="1.00" d=" M 660.96 419.77 C 683.13 419.59 705.15 428.51 720.84 444.18 C 731.58 454.68 739.22 468.21 743.37 482.60 C 748.48 502.81 746.57 525.07 736.51 543.49 C 728.68 558.85 715.93 571.63 700.63 579.56 C 690.37 585.15 678.89 588.01 667.32 589.19 C 665.21 589.22 663.11 589.18 661.01 589.16 C 660.98 560.77 661.05 532.37 660.96 503.98 C 661.06 475.91 661.03 447.84 660.96 419.77 Z" />
<path fill="#259974" opacity="1.00" d=" M 327.02 907.99 C 386.01 908.02 445.00 907.98 503.99 908.01 C 504.01 919.33 504.00 930.66 503.99 941.99 C 444.99 941.99 385.99 942.04 327.00 941.97 C 327.03 930.64 326.95 919.32 327.02 907.99 Z" />
</g>
<g id="#f1593cff">
<path fill="#f1593c" opacity="1.00" d=" M 907.36 426.34 C 913.16 425.20 918.92 427.40 923.98 430.06 C 931.80 434.58 937.83 442.43 939.64 451.34 C 940.51 456.06 939.74 461.66 935.84 464.89 C 932.99 468.37 928.22 469.11 923.98 468.83 C 914.32 467.64 905.70 461.51 900.52 453.41 C 896.89 447.54 894.98 440.04 897.52 433.38 C 899.87 430.07 903.04 426.69 907.36 426.34 Z" />
<path fill="#f1593c" opacity="1.00" d=" M 106.42 429.43 C 110.12 428.46 114.04 429.18 117.57 430.48 C 119.93 431.95 121.87 434.10 123.46 436.37 C 125.93 442.57 124.30 449.55 121.16 455.18 C 116.28 463.67 107.62 470.14 97.89 471.76 C 93.43 472.26 88.26 471.56 85.22 467.89 C 81.48 464.83 80.64 459.57 81.24 455.03 C 83.45 442.44 93.96 432.00 106.42 429.43 Z" />
<path fill="#f1593c" opacity="1.00" d=" M 401.30 1616.40 C 406.59 1615.20 411.92 1617.10 416.66 1619.34 C 425.45 1623.75 432.04 1632.38 433.77 1642.08 C 434.16 1646.34 433.84 1651.39 430.31 1654.37 C 426.41 1659.04 419.56 1659.90 414.02 1658.07 C 401.35 1654.50 390.41 1642.69 390.34 1629.14 C 390.07 1622.91 395.22 1617.22 401.30 1616.40 Z" />
<path fill="#f1593c" opacity="1.00" d=" M 675.36 1616.39 C 680.63 1615.14 685.92 1617.07 690.64 1619.32 C 698.98 1623.54 705.29 1631.58 707.47 1640.67 C 708.38 1645.32 708.07 1650.98 704.31 1654.36 C 700.52 1659.23 693.48 1659.77 687.98 1658.01 C 679.23 1655.77 671.84 1649.44 667.54 1641.59 C 664.66 1636.08 663.07 1629.37 665.51 1623.41 C 667.81 1620.00 670.97 1616.62 675.36 1616.39 Z" />
</g>
<g id="#38c296ff">
<path fill="#38c296" opacity="1.00" d=" M 419.32 502.41 C 425.68 501.16 432.93 502.50 437.39 507.52 C 444.12 513.57 444.76 524.55 439.98 531.96 C 437.37 536.20 432.71 538.57 428.21 540.29 C 420.83 542.43 412.86 538.42 408.36 532.59 C 404.55 528.00 404.55 521.64 405.31 516.04 C 407.13 509.46 412.61 503.93 419.32 502.41 Z" />
<path fill="#38c296" opacity="1.00" d=" M 327.02 858.01 C 386.00 857.99 444.99 858.00 503.98 858.00 C 504.01 869.33 504.04 880.67 503.96 892.01 C 444.98 891.98 386.01 892.02 327.03 891.99 C 326.98 880.66 327.01 869.34 327.02 858.01 Z" />
</g>
<g id="#3cc69cff">
<path fill="#3cc69c" opacity="1.00" d=" M 623.21 504.00 C 628.59 502.13 634.42 502.07 639.81 503.99 C 644.56 507.49 648.65 512.72 648.05 518.97 C 648.76 527.58 641.35 535.05 633.10 536.05 C 623.78 536.79 614.52 528.59 615.00 519.05 C 614.57 512.86 618.56 507.59 623.21 504.00 Z" />
</g>
<g id="#289f7aff">
<path fill="#289f7a" opacity="1.00" d=" M 293.12 504.11 C 325.07 503.83 357.03 504.05 388.98 504.04 C 389.03 536.69 388.96 569.34 389.04 601.99 C 377.20 602.01 365.35 599.90 354.36 595.46 C 321.12 582.93 296.10 550.75 292.71 515.32 C 292.97 511.59 293.18 507.85 293.12 504.11 Z" />
<path fill="#289f7a" opacity="1.00" d=" M 578.16 504.14 C 593.17 503.82 608.19 504.16 623.21 504.00 C 618.56 507.59 614.57 512.86 615.00 519.05 C 614.52 528.59 623.78 536.79 633.10 536.05 C 641.35 535.05 648.76 527.58 648.05 518.97 C 648.65 512.72 644.56 507.49 639.81 503.99 C 646.86 504.02 653.91 504.01 660.96 503.98 C 661.05 532.37 660.98 560.77 661.01 589.16 C 638.94 589.29 617.36 579.73 601.71 564.35 C 588.59 550.88 579.54 533.12 577.59 514.32 C 577.89 510.93 578.13 507.54 578.16 504.14 Z" />
</g>
<g id="#6c6b6bff">
<path fill="#6c6b6b" opacity="1.00" d=" M 276.00 778.00 C 359.00 777.98 441.99 778.00 524.99 778.01 C 524.99 785.01 524.99 792.01 525.00 799.00 C 442.00 798.94 359.00 799.09 276.00 798.93 C 276.00 791.95 276.00 784.98 276.00 778.00 Z" />
</g>
<g id="#686767ff">
<path fill="#686767" opacity="1.00" d=" M 524.99 778.01 C 606.99 777.96 688.99 778.02 771.00 778.00 C 771.00 784.97 771.00 791.95 771.00 798.92 C 689.00 799.08 607.00 798.96 525.00 799.00 C 524.99 792.01 524.99 785.01 524.99 778.01 Z" />
</g>
<g id="#829d94ff">
<path fill="#829d94" opacity="1.00" d=" M 773.08 830.12 L 774.11 829.52 C 778.87 835.97 782.96 842.88 787.44 849.53 C 790.93 855.15 795.20 860.38 797.42 866.69 C 788.59 872.13 779.83 877.70 771.03 883.18 C 771.04 865.86 770.84 848.54 771.15 831.23 C 771.63 830.95 772.60 830.40 773.08 830.12 Z" />
<path fill="#829d94" opacity="1.00" d=" M 264.26 838.32 C 268.36 836.51 271.98 833.89 275.92 831.79 C 275.93 836.52 276.06 841.26 276.01 846.00 C 263.15 850.64 251.29 857.52 239.58 864.47 C 236.78 866.00 234.03 867.65 231.57 869.70 C 229.82 866.88 228.16 864.02 226.52 861.14 C 238.48 852.55 250.79 844.35 264.26 838.32 Z" />
<path fill="#829d94" opacity="1.00" d=" M 242.53 887.14 C 254.04 883.33 265.75 879.69 276.02 873.05 C 275.87 892.72 276.21 912.40 275.87 932.07 C 274.92 932.55 273.98 933.05 273.05 933.59 L 271.65 933.00 C 262.14 917.59 252.47 902.27 242.53 887.14 Z" />
<path fill="#829d94" opacity="1.00" d=" M 771.24 896.51 C 782.50 889.91 793.56 882.99 804.78 876.36 C 806.33 880.23 809.19 883.34 811.39 886.83 C 813.48 890.18 814.00 894.35 816.69 897.35 C 821.13 902.65 827.31 906.11 833.47 909.05 C 828.06 914.92 824.61 922.19 821.40 929.41 C 817.90 937.17 814.79 945.09 811.49 952.93 C 801.60 950.81 792.37 945.94 785.28 938.70 C 779.81 933.27 775.79 926.64 771.06 920.61 C 771.07 912.58 770.75 904.53 771.24 896.51 Z" />
<path fill="#829d94" opacity="1.00" d=" M 235.17 895.00 C 243.98 910.49 253.26 925.70 262.30 941.05 C 258.78 942.57 255.59 944.81 252.70 947.32 C 248.90 949.48 244.31 950.11 241.01 953.13 C 235.74 957.58 232.35 963.73 229.26 969.80 C 225.17 965.27 219.66 962.48 214.29 959.79 C 204.94 955.28 195.29 951.46 185.76 947.37 C 187.93 937.74 192.56 928.61 199.70 921.73 C 210.12 911.64 222.98 904.67 235.19 897.05 C 235.19 896.54 235.17 895.51 235.17 895.00 Z" />
<path fill="#829d94" opacity="1.00" d=" M 840.61 912.12 C 859.21 919.03 878.73 923.00 898.20 926.55 C 895.30 942.77 892.72 959.05 890.46 975.37 C 882.74 975.80 875.20 973.66 867.66 972.35 C 851.60 969.32 836.18 963.88 820.86 958.32 C 827.49 942.97 838.96 929.28 840.61 912.12 Z" />
<path fill="#829d94" opacity="1.00" d=" M 909.30 928.28 C 921.18 930.22 933.16 931.48 945.10 933.07 C 950.01 933.74 955.07 933.37 959.91 934.66 C 964.23 936.08 968.88 935.40 973.32 936.33 C 972.38 954.13 970.72 971.91 970.37 989.74 C 959.97 987.89 949.41 987.17 939.02 985.23 C 926.73 983.34 914.48 981.15 902.29 978.69 C 900.46 977.95 899.70 979.94 898.82 981.13 C 903.59 963.80 907.10 946.11 909.30 928.28 Z" />
<path fill="#829d94" opacity="1.00" d=" M 985.72 938.16 C 993.12 939.23 1000.54 937.70 1007.94 938.87 C 1011.60 939.53 1015.28 938.62 1018.96 939.00 C 1043.30 940.36 1067.66 941.62 1092.04 942.09 C 1099.91 942.46 1107.82 942.17 1115.68 942.86 C 1100.37 950.65 1089.46 966.73 1089.03 984.04 C 1088.29 998.75 1094.94 1013.38 1106.14 1022.87 C 1095.17 1023.96 1084.15 1024.12 1073.14 1024.46 C 1069.31 1024.45 1065.49 1024.23 1061.67 1024.23 C 1062.95 1022.37 1064.09 1020.35 1065.93 1018.97 C 1071.81 1014.33 1077.77 1009.79 1083.45 1004.90 C 1076.62 999.43 1069.27 994.50 1061.62 990.26 C 1061.70 974.25 1062.83 958.24 1062.23 942.24 C 1058.33 942.02 1054.44 941.75 1050.56 941.47 C 1050.20 958.02 1050.39 974.59 1050.71 991.13 C 1044.58 992.59 1038.25 991.81 1032.02 991.97 C 1014.77 991.77 997.50 991.81 980.28 990.61 C 982.14 973.13 984.16 955.67 985.72 938.16 Z" />
<path fill="#829d94" opacity="1.00" d=" M 180.40 956.78 C 185.50 959.19 190.56 961.72 195.42 964.59 C 205.11 969.87 215.09 976.14 226.46 976.44 C 219.58 993.96 215.80 1012.49 212.13 1030.89 C 211.85 1031.97 211.58 1033.06 211.30 1034.16 C 194.96 1031.25 178.60 1028.43 162.15 1026.19 C 164.98 1002.33 171.47 979.05 180.40 956.78 Z" />
<path fill="#829d94" opacity="1.00" d=" M 1043.99 1016.83 C 1047.68 1017.14 1048.64 1012.81 1050.61 1010.54 C 1050.71 1015.11 1050.75 1019.69 1050.54 1024.26 C 1026.61 1023.88 1002.71 1022.76 978.83 1021.18 C 978.75 1019.43 978.68 1017.70 978.66 1015.98 C 1000.44 1015.52 1022.21 1017.38 1043.99 1016.83 Z" />
<path fill="#829d94" opacity="1.00" d=" M 160.19 1035.47 C 176.49 1039.74 193.03 1043.30 209.77 1045.31 C 207.66 1058.88 205.75 1072.48 204.26 1086.13 C 203.71 1089.92 204.12 1093.98 202.40 1097.53 C 201.26 1105.07 202.21 1112.81 200.23 1120.23 C 200.68 1116.56 201.08 1112.89 201.25 1109.21 C 183.28 1108.38 165.38 1106.37 147.38 1106.06 C 149.91 1098.98 149.86 1091.34 151.16 1084.00 C 153.76 1067.75 156.31 1051.46 160.19 1035.47 Z" />
<path fill="#829d94" opacity="1.00" d=" M 116.42 1114.58 C 120.34 1114.11 124.29 1114.10 128.22 1114.36 C 126.12 1114.48 124.04 1114.71 121.95 1114.91 C 121.32 1134.94 120.67 1154.97 120.28 1175.01 C 120.31 1177.33 119.96 1179.80 120.81 1182.04 C 123.11 1183.82 125.79 1185.01 128.39 1186.29 C 123.17 1186.38 117.95 1186.37 112.74 1186.31 C 113.19 1163.55 114.40 1140.81 116.11 1118.10 C 116.20 1116.91 116.31 1115.74 116.42 1114.58 Z" />
<path fill="#829d94" opacity="1.00" d=" M 146.53 1115.83 C 164.16 1117.79 181.73 1120.20 199.43 1121.67 C 199.11 1125.41 198.46 1129.17 198.85 1132.94 C 199.50 1139.29 197.70 1145.59 198.38 1151.95 C 197.86 1163.46 196.85 1174.94 196.56 1186.47 C 179.59 1186.19 162.62 1186.16 145.65 1186.47 C 144.81 1177.07 145.29 1167.61 145.58 1158.20 C 145.50 1144.07 146.45 1129.95 146.53 1115.83 Z" />
<path fill="#829d94" opacity="1.00" d=" M 194.92 1198.22 C 195.06 1194.59 194.96 1190.86 196.26 1187.41 C 196.06 1200.63 194.91 1213.81 194.85 1227.04 C 194.64 1235.18 194.26 1243.32 193.97 1251.46 C 187.53 1238.94 175.65 1229.40 161.89 1226.24 C 144.57 1221.96 125.51 1228.61 114.09 1242.18 C 112.71 1227.07 112.49 1211.86 112.52 1196.69 C 113.03 1196.71 114.04 1196.73 114.54 1196.75 C 120.03 1204.51 126.35 1211.63 132.05 1219.24 C 137.54 1212.25 142.14 1204.61 147.35 1197.41 C 163.22 1197.37 179.07 1198.51 194.92 1198.22 Z" />
</g>
<g id="#98b2a7ff">
<path fill="#98b2a7" opacity="1.00" d=" M 239.58 864.47 C 251.29 857.52 263.15 850.64 276.01 846.00 C 276.01 855.02 276.02 864.03 276.02 873.05 C 265.75 879.69 254.04 883.33 242.53 887.14 C 238.74 881.41 235.24 875.49 231.57 869.70 C 234.03 867.65 236.78 866.00 239.58 864.47 Z" />
<path fill="#98b2a7" opacity="1.00" d=" M 155.33 946.37 C 155.73 946.24 156.53 945.98 156.93 945.85 C 164.84 949.29 172.66 952.96 180.40 956.78 C 171.47 979.05 164.98 1002.33 162.15 1026.19 C 153.34 1025.16 144.65 1023.24 136.04 1021.12 C 135.25 1020.45 134.47 1019.79 133.69 1019.13 C 136.89 1009.81 140.21 1000.53 143.10 991.11 C 147.80 976.37 151.28 961.28 155.33 946.37 Z" />
<path fill="#98b2a7" opacity="1.00" d=" M 809.50 983.65 C 812.83 975.01 816.85 966.66 820.86 958.32 C 836.18 963.88 851.60 969.32 867.66 972.35 C 875.20 973.66 882.74 975.80 890.46 975.37 C 889.43 985.23 887.50 995.02 884.85 1004.58 C 877.96 1003.22 871.62 1000.02 864.86 998.19 C 846.59 992.71 828.27 987.12 809.50 983.65 Z" />
</g>
<g id="#436151ff">
<path fill="#436151" opacity="1.00" d=" M 207.18 876.22 C 213.45 870.97 219.92 865.96 226.52 861.14 C 228.16 864.02 229.82 866.88 231.57 869.70 C 235.24 875.49 238.74 881.41 242.53 887.14 C 252.47 902.27 262.14 917.59 271.65 933.00 C 271.92 933.42 272.46 934.27 272.73 934.70 C 269.16 936.66 265.91 939.14 262.30 941.05 C 253.26 925.70 243.98 910.49 235.17 895.00 C 231.26 888.19 227.35 881.38 223.61 874.47 C 222.84 873.50 222.48 871.85 221.11 871.63 C 213.57 874.85 206.94 879.84 199.53 883.32 C 201.67 880.53 204.53 878.47 207.18 876.22 Z" />
<path fill="#436151" opacity="1.00" d=" M 797.42 866.69 C 797.65 866.55 798.12 866.27 798.35 866.13 C 800.42 869.58 802.80 872.84 804.78 876.36 C 793.56 882.99 782.50 889.91 771.24 896.51 C 771.02 892.06 770.90 887.62 771.03 883.18 C 779.83 877.70 788.59 872.13 797.42 866.69 Z" />
<path fill="#436151" opacity="1.00" d=" M 833.47 909.05 C 835.84 910.08 838.21 911.11 840.61 912.12 C 838.96 929.28 827.49 942.97 820.86 958.32 C 816.85 966.66 812.83 975.01 809.50 983.65 C 808.69 985.52 807.79 987.36 806.90 989.20 C 803.68 987.35 800.53 985.40 797.40 983.43 C 801.63 973.06 807.26 963.31 811.49 952.93 C 814.79 945.09 817.90 937.17 821.40 929.41 C 824.61 922.19 828.06 914.92 833.47 909.05 Z" />
<path fill="#436151" opacity="1.00" d=" M 149.68 942.73 C 151.38 939.24 153.55 936.02 155.64 932.77 C 165.52 937.96 175.55 942.86 185.76 947.37 C 195.29 951.46 204.94 955.28 214.29 959.79 C 219.66 962.48 225.17 965.27 229.26 969.80 L 229.31 969.85 C 228.31 972.02 227.35 974.21 226.46 976.44 C 215.09 976.14 205.11 969.87 195.42 964.59 C 190.56 961.72 185.50 959.19 180.40 956.78 C 172.66 952.96 164.84 949.29 156.93 945.85 C 154.52 944.78 152.11 943.73 149.68 942.73 Z" />
</g>
<g id="#cf452aff">
<path fill="#cf452a" opacity="1.00" d=" M 617.33 862.47 C 626.35 860.58 635.91 863.24 643.07 868.93 C 648.85 873.23 652.31 879.85 654.39 886.61 C 656.35 895.11 654.33 904.27 649.32 911.37 C 643.25 920.08 632.62 925.70 621.93 925.00 C 606.63 924.44 593.19 911.19 592.00 896.00 C 590.96 885.01 596.65 873.90 605.63 867.66 C 609.09 865.09 613.29 863.83 617.33 862.47 Z" />
</g>
<g id="#9ab2a8ff">
<path fill="#9ab2a8" opacity="1.00" d=" M 199.53 883.32 C 206.94 879.84 213.57 874.85 221.11 871.63 C 222.48 871.85 222.84 873.50 223.61 874.47 C 227.35 881.38 231.26 888.19 235.17 895.00 C 235.17 895.51 235.19 896.54 235.19 897.05 C 222.98 904.67 210.12 911.64 199.70 921.73 C 192.56 928.61 187.93 937.74 185.76 947.37 C 175.55 942.86 165.52 937.96 155.64 932.77 C 166.27 916.72 178.92 902.06 192.93 888.87 C 195.08 886.97 197.08 884.85 199.53 883.32 Z" />
<path fill="#9ab2a8" opacity="1.00" d=" M 771.06 920.61 C 775.79 926.64 779.81 933.27 785.28 938.70 C 792.37 945.94 801.60 950.81 811.49 952.93 C 807.26 963.31 801.63 973.06 797.40 983.43 C 788.19 977.42 779.48 970.69 771.10 963.58 C 770.96 949.26 770.92 934.94 771.06 920.61 Z" />
</g>
<g id="#3a584eff">
<path fill="#3a584e" opacity="1.00" d=" M 898.20 926.55 C 901.90 927.07 905.59 927.74 909.30 928.28 C 907.10 946.11 903.59 963.80 898.82 981.13 C 896.97 989.31 894.91 997.54 894.30 1005.93 C 894.43 1008.64 894.71 1011.35 894.96 1014.07 C 890.29 1013.30 885.51 1013.41 880.90 1012.31 C 882.23 1009.73 883.66 1007.21 884.85 1004.58 C 887.50 995.02 889.43 985.23 890.46 975.37 C 892.72 959.05 895.30 942.77 898.20 926.55 Z" />
<path fill="#3a584e" opacity="1.00" d=" M 124.12 1030.68 C 124.88 1025.94 124.88 1021.09 126.04 1016.42 C 129.28 1018.17 132.44 1020.19 136.04 1021.12 C 144.65 1023.24 153.34 1025.16 162.15 1026.19 C 178.60 1028.43 194.96 1031.25 211.30 1034.16 C 211.58 1033.06 211.85 1031.97 212.13 1030.89 C 211.39 1035.70 210.52 1040.50 209.77 1045.31 C 193.03 1043.30 176.49 1039.74 160.19 1035.47 C 151.03 1032.91 141.68 1030.88 132.25 1029.70 C 129.52 1029.90 126.82 1030.30 124.12 1030.68 Z" />
</g>
<g id="#385a4cff">
<path fill="#385a4c" opacity="1.00" d=" M 973.38 935.59 C 977.53 936.11 981.69 936.57 985.79 937.45 L 985.72 938.16 C 984.16 955.67 982.14 973.13 980.28 990.61 C 979.21 999.02 978.96 1007.52 978.66 1015.98 C 978.68 1017.70 978.75 1019.43 978.83 1021.18 C 978.09 1021.14 976.60 1021.08 975.86 1021.04 C 971.68 1020.42 967.23 1021.38 963.22 1020.25 C 964.50 1020.15 965.79 1020.07 967.09 1020.00 C 967.43 1017.59 967.80 1015.20 968.15 1012.81 C 969.17 1005.15 969.90 997.45 970.37 989.74 C 970.72 971.91 972.38 954.13 973.32 936.33 L 973.38 935.59 Z" />
<path fill="#385a4c" opacity="1.00" d=" M 117.17 1102.65 C 119.68 1102.91 122.20 1103.18 124.70 1103.55 C 132.22 1104.74 139.79 1105.51 147.38 1106.06 C 165.38 1106.37 183.28 1108.38 201.25 1109.21 C 201.08 1112.89 200.68 1116.56 200.23 1120.23 C 200.19 1120.60 200.10 1121.35 200.05 1121.73 L 199.43 1121.67 C 181.73 1120.20 164.16 1117.79 146.53 1115.83 C 140.44 1115.11 134.35 1114.49 128.22 1114.36 C 124.29 1114.10 120.34 1114.11 116.42 1114.58 C 116.31 1115.74 116.20 1116.91 116.11 1118.10 C 116.16 1112.93 117.17 1107.82 117.17 1102.65 Z" />
</g>
<g id="#3a5c4eff">
<path fill="#3a5c4e" opacity="1.00" d=" M 1050.71 991.13 C 1050.39 974.59 1050.20 958.02 1050.56 941.47 C 1054.44 941.75 1058.33 942.02 1062.23 942.24 C 1062.83 958.24 1061.70 974.25 1061.62 990.26 C 1061.31 1001.58 1061.33 1012.91 1061.42 1024.24 C 1057.79 1024.41 1054.16 1024.41 1050.54 1024.26 C 1050.75 1019.69 1050.71 1015.11 1050.61 1010.54 C 1050.62 1004.07 1051.47 997.59 1050.71 991.13 Z" />
<path fill="#3a5c4e" opacity="1.00" d=" M 112.74 1186.31 C 117.95 1186.37 123.17 1186.38 128.39 1186.29 C 134.14 1186.58 139.90 1186.69 145.65 1186.47 C 162.62 1186.16 179.59 1186.19 196.56 1186.47 C 196.48 1186.70 196.33 1187.17 196.26 1187.41 C 194.96 1190.86 195.06 1194.59 194.92 1198.22 C 179.07 1198.51 163.22 1197.37 147.35 1197.41 C 136.44 1196.53 125.48 1196.78 114.54 1196.75 C 114.04 1196.73 113.03 1196.71 112.52 1196.69 C 112.59 1193.22 112.63 1189.76 112.74 1186.31 Z" />
</g>
<g id="#84a094ff">
<path fill="#84a094" opacity="1.00" d=" M 149.41 942.62 L 149.68 942.73 C 152.11 943.73 154.52 944.78 156.93 945.85 C 156.53 945.98 155.73 946.24 155.33 946.37 C 151.28 961.28 147.80 976.37 143.10 991.11 C 140.21 1000.53 136.89 1009.81 133.69 1019.13 C 134.47 1019.79 135.25 1020.45 136.04 1021.12 C 132.44 1020.19 129.28 1018.17 126.04 1016.42 C 127.27 1011.65 126.24 1006.47 128.27 1001.93 C 129.10 993.89 131.81 986.26 133.61 978.42 C 134.82 975.80 135.59 973.02 136.43 970.28 C 139.79 960.64 144.59 951.59 149.41 942.62 Z" />
<path fill="#84a094" opacity="1.00" d=" M 809.50 983.65 C 828.27 987.12 846.59 992.71 864.86 998.19 C 871.62 1000.02 877.96 1003.22 884.85 1004.58 C 883.66 1007.21 882.23 1009.73 880.90 1012.31 C 876.92 1011.39 872.80 1011.45 868.75 1011.28 C 867.88 1010.78 867.02 1010.29 866.17 1009.82 C 861.23 1010.07 856.57 1008.36 851.86 1007.19 C 836.04 1003.62 820.90 997.36 806.90 989.20 C 807.79 987.36 808.69 985.52 809.50 983.65 Z" />
</g>
<g id="#97b2a7ff">
<path fill="#97b2a7" opacity="1.00" d=" M 898.82 981.13 C 899.70 979.94 900.46 977.95 902.29 978.69 C 914.48 981.15 926.73 983.34 939.02 985.23 C 949.41 987.17 959.97 987.89 970.37 989.74 C 969.90 997.45 969.17 1005.15 968.15 1012.81 C 954.65 1011.69 941.13 1010.87 927.65 1009.45 C 916.51 1008.46 905.49 1006.40 894.30 1005.93 C 894.91 997.54 896.97 989.31 898.82 981.13 Z" />
<path fill="#97b2a7" opacity="1.00" d=" M 132.25 1029.70 C 141.68 1030.88 151.03 1032.91 160.19 1035.47 C 156.31 1051.46 153.76 1067.75 151.16 1084.00 C 149.86 1091.34 149.91 1098.98 147.38 1106.06 C 139.79 1105.51 132.22 1104.74 124.70 1103.55 C 126.87 1085.10 127.48 1066.49 130.34 1048.12 C 131.23 1042.01 131.86 1035.86 132.25 1029.70 Z" />
</g>
<g id="#97b2a6ff">
<path fill="#97b2a6" opacity="1.00" d=" M 978.66 1015.98 C 978.96 1007.52 979.21 999.02 980.28 990.61 C 997.50 991.81 1014.77 991.77 1032.02 991.97 C 1038.25 991.81 1044.58 992.59 1050.71 991.13 C 1051.47 997.59 1050.62 1004.07 1050.61 1010.54 C 1048.64 1012.81 1047.68 1017.14 1043.99 1016.83 C 1022.21 1017.38 1000.44 1015.52 978.66 1015.98 Z" />
<path fill="#97b2a6" opacity="1.00" d=" M 121.95 1114.91 C 124.04 1114.71 126.12 1114.48 128.22 1114.36 C 134.35 1114.49 140.44 1115.11 146.53 1115.83 C 146.45 1129.95 145.50 1144.07 145.58 1158.20 C 145.29 1167.61 144.81 1177.07 145.65 1186.47 C 139.90 1186.69 134.14 1186.58 128.39 1186.29 C 125.79 1185.01 123.11 1183.82 120.81 1182.04 C 119.96 1179.80 120.31 1177.33 120.28 1175.01 C 120.67 1154.97 121.32 1134.94 121.95 1114.91 Z" />
</g>
<g id="#97b4a7ff">
<path fill="#97b4a7" opacity="1.00" d=" M 1061.42 1024.24 C 1061.33 1012.91 1061.31 1001.58 1061.62 990.26 C 1069.27 994.50 1076.62 999.43 1083.45 1004.90 C 1077.77 1009.79 1071.81 1014.33 1065.93 1018.97 C 1064.09 1020.35 1062.95 1022.37 1061.67 1024.23 L 1061.42 1024.24 Z" />
<path fill="#97b4a7" opacity="1.00" d=" M 114.54 1196.75 C 125.48 1196.78 136.44 1196.53 147.35 1197.41 C 142.14 1204.61 137.54 1212.25 132.05 1219.24 C 126.35 1211.63 120.03 1204.51 114.54 1196.75 Z" />
</g>
<g id="#819c91ff">
<path fill="#819c91" opacity="1.00" d=" M 894.30 1005.93 C 905.49 1006.40 916.51 1008.46 927.65 1009.45 C 941.13 1010.87 954.65 1011.69 968.15 1012.81 C 967.80 1015.20 967.43 1017.59 967.09 1020.00 C 965.79 1020.07 964.50 1020.15 963.22 1020.25 C 940.44 1018.50 917.70 1016.25 894.96 1014.07 C 894.71 1011.35 894.43 1008.64 894.30 1005.93 Z" />
<path fill="#819c91" opacity="1.00" d=" M 124.12 1030.68 C 126.82 1030.30 129.52 1029.90 132.25 1029.70 C 131.86 1035.86 131.23 1042.01 130.34 1048.12 C 127.48 1066.49 126.87 1085.10 124.70 1103.55 C 122.20 1103.18 119.68 1102.91 117.17 1102.65 C 119.28 1078.64 121.48 1054.64 124.12 1030.68 Z" />
</g>
<g id="#404f4a87">
<path fill="#404f4a" opacity="0.53" d=" M 975.86 1021.04 C 976.60 1021.08 978.09 1021.14 978.83 1021.18 C 1002.71 1022.76 1026.61 1023.88 1050.54 1024.26 C 1054.16 1024.41 1057.79 1024.41 1061.42 1024.24 L 1061.67 1024.23 C 1065.49 1024.23 1069.31 1024.45 1073.14 1024.46 C 1060.10 1025.23 1047.04 1024.27 1033.99 1024.50 C 1014.61 1023.49 995.11 1023.27 975.86 1021.04 Z" />
</g>
</svg>
