<?xml version="1.0" encoding="utf-8"?>
<!-- Generator: Adobe Illustrator 17.0.0, SVG Export Plug-In . SVG Version: 6.00 Build 0)  -->
<!DOCTYPE svg PUBLIC "-//W3C//DTD SVG 1.1//EN" "http://www.w3.org/Graphics/SVG/1.1/DTD/svg11.dtd">
<svg version="1.1" id="Layer_1" xmlns="http://www.w3.org/2000/svg" xmlns:xlink="http://www.w3.org/1999/xlink" x="0px" y="0px"
	 width="1336px" height="1319.214px" viewBox="0 438.786 1336 1319.214" enable-background="new 0 438.786 1336 1319.214"
	 xml:space="preserve">
<g id="_x23_504f4fff">
	<path fill="#504F4F" d="M445.207,486.035c-5.893-5.315-14.949-7.026-22.247-3.717c-7.642,2.618-13.165,10.084-13.767,18.089
		c-0.58,5.134,1.321,10.159,3.927,14.488c4.547,6.682,13.141,10.42,21.112,8.845c3.068-0.777,6.033-1.955,8.859-3.389
		c6.995-4.678,10.82-13.634,9.096-21.911C450.966,493.823,448.927,489.192,445.207,486.035z"/>
	<path fill="#504F4F" d="M666.994,735.721c-29.722,12.439-54.476,36.805-66.153,66.965c-11.962,28.729-11.488,62.036,0.102,90.792
		c7.283,18.199,19.3,34.371,34.019,47.262c15.358,12.916,33.951,21.907,53.552,26.116c24.094,5.199,49.673,2.38,72.367-7.037
		c-3.075-7.386-6.14-14.775-9.312-22.109c-31.259,13.712-69.672,8.759-96.644-12.073c-14.661-10.943-26.19-26.104-32.564-43.275
		c-6.815-17.626-7.863-37.247-3.85-55.66c6.608-30.432,28.724-57.237,57.721-68.819
		C673.198,750.469,669.985,743.141,666.994,735.721z"/>
	<path fill="#504F4F" d="M422.251,855.731c-14.631,5.993-27.701,15.528-38.402,27.117c-20.333,22.523-30.206,54.193-25.732,84.262
		c4.119,32.69,24.678,62.846,53.655,78.554c27.791,15.674,62.832,17.085,92.06,4.528c-2.568-5.971-5.008-11.997-7.683-17.912
		c-2.048,0.392-4.112,0.77-6.168,1.22c-11.126,3.385-22.819,5.186-34.443,3.998c-17.176-1.398-33.876-8.254-47.036-19.392
		c-16.4-13.098-26.768-32.888-29.869-53.502c-1.736-14.875,0.078-30.307,5.923-44.143c8.411-20.518,25.27-37.258,45.785-45.664
		C427.605,868.45,425.002,862.06,422.251,855.731z"/>
	<path fill="#504F4F" d="M554.433,1259.343c-9.48,2.424-17.296,10.266-19.944,19.649c-3.011,11.802,2.312,24.99,12.722,31.328
		c9.188,5.517,21.705,5.062,30.397-1.261c4.619-3.129,8.073-7.798,10.281-12.876c3.839-10.577,0.78-23.304-7.727-30.743
		C573.5,1258.94,563.274,1257.024,554.433,1259.343 M556.547,1266.947c8.888-2.544,19.22,2.135,22.989,10.607
		c3.018,5.88,2.691,13.196-0.694,18.855c-5.653,10.286-20.793,13.098-29.751,5.49c-6.534-5.187-9.321-14.732-6.24-22.54
		C544.988,1273.257,550.338,1268.585,556.547,1266.947z"/>
	<path fill="#504F4F" d="M633.965,1247.773c-12.716,3.499-24.017,12.054-30.81,23.37c-8.687,13.834-9.448,31.882-3.284,46.843
		c4.242,9.575,11.051,18.16,20.003,23.71c14.538,9.769,34.162,10.541,49.904,3.215c8.567-4.188,16.231-10.427,21.429-18.461
		c10.467-15.199,11.162-36.147,2.76-52.413c-4.552-8.479-11.209-15.925-19.517-20.845
		C662.512,1245.748,647.444,1244.128,633.965,1247.773 M638.013,1254.946c16.616-3.973,35.109,2.868,45.121,16.714
		c8.924,11.873,11.216,28.435,5.586,42.213c-4.274,11.323-13.6,20.557-24.858,24.919c-10.379,4.134-22.366,4.096-32.683-0.21
		c-11.688-4.653-21.074-14.651-25.042-26.574c-4.822-13.777-2.088-29.887,7.033-41.29
		C619.284,1262.776,628.262,1257.19,638.013,1254.946z"/>
	<path fill="#504F4F" d="M576.095,1323.996c-6.957,1.821-13.256,6.815-15.715,13.701c-3.462,7.339-1.849,16.281,2.809,22.71
		c3.616,5.728,10.311,8.765,16.824,9.635c7.261,0.404,14.59-2.625,19.613-7.843c3.216-3.864,5.24-8.735,5.864-13.714
		c0.354-7.251-2.673-14.548-7.883-19.553C591.725,1324.111,583.525,1321.596,576.095,1323.996 M579.984,1331.202
		c6.873-1.038,14.169,3.2,16.42,9.836c3.334,7.591-1.017,17.309-8.87,19.94c-7.952,3.507-18.076-1.476-20.291-9.862
		C564.081,1342.359,570.794,1332.171,579.984,1331.202z"/>
	<path fill="#504F4F" d="M213.232,1533.018c-14.282-1.115-28.641,5.035-38.504,15.286c-9.316,10.834-13.982,25.412-12.189,39.646
		c1.234,7.962,4.537,15.632,9.213,22.183c5.395,6.326,11.929,11.849,19.68,15.051c6.969,3.096,14.668,4.054,22.223,3.944
		c16.364-1.211,32.066-11.167,39.31-26.012c6.66-13.082,7.136-29.146,0.766-42.426
		C246.642,1544.894,230.363,1534.283,213.232,1533.018 M208.074,1558.451c7.776-1.135,16.108,2.03,20.948,8.274
		c4.044,5.353,5.915,12.506,4.252,19.091c-1.562,6.619-6.196,12.508-12.484,15.253c-7.342,3.566-16.59,2.509-23.036-2.443
		c-4.83-3.451-7.213-9.24-8.631-14.793C187.083,1572.033,196.153,1559.837,208.074,1558.451z"/>
	<path fill="#504F4F" d="M1252.658,1421.806c-15.779-8.099-35.927-6.863-50.246,3.781c-11.468,8.234-18.736,21.626-19.834,35.662
		c-1.224,13.427,4.114,27.194,13.429,36.843c10.818,10.829,26.689,16.147,41.849,13.977c8.068-1.214,15.851-4.661,22.355-9.578
		c12.447-10.141,19.63-26.295,18.233-42.353C1277.092,1444.135,1267.154,1428.914,1252.658,1421.806 M1225.734,1440.944
		c10.037-2.44,21.32,3.315,25.198,12.901c3.965,8.346,1.808,18.977-4.88,25.294c-4.209,3.901-9.889,6.26-15.647,6.31
		c-7.931-0.036-15.896-4.396-19.565-11.543c-3.555-6.306-3.974-14.317-0.681-20.816
		C1213.02,1446.828,1219.091,1442.428,1225.734,1440.944z"/>
	<path fill="#504F4F" d="M1062.29,1567.566c-22.438,9.407-44.876,18.814-67.314,28.221c5.15,12.284,10.296,24.559,15.45,36.852
		c22.465-9.342,44.924-18.725,67.311-28.252C1072.591,1592.111,1067.454,1579.833,1062.29,1567.566z"/>
	<path fill="#504F4F" d="M813.287,1671.958c-22.438,9.407-44.87,18.801-67.304,28.217c5.128,12.283,10.283,24.554,15.433,36.838
		c22.477-9.315,44.931-18.707,67.315-28.243C823.589,1696.504,818.452,1684.225,813.287,1671.958z"/>
	<path fill="#504F4F" d="M1087.458,1627.571c-22.48,9.306-44.931,18.707-67.327,28.216c5.007,11.943,10.018,23.895,15.029,35.847
		c22.492-9.278,44.912-18.753,67.327-28.216C1097.475,1651.466,1092.468,1639.523,1087.458,1627.571z"/>
	<path fill="#504F4F" d="M838.444,1731.936c-22.457,9.361-44.924,18.725-67.315,28.243c5.015,11.961,10.026,23.913,15.04,35.875
		c22.461-9.352,44.924-18.725,67.311-28.252C848.469,1755.85,843.454,1743.888,838.444,1731.936z"/>
	<path fill="#504F4F" d="M1112.187,1686.557c-22.453,9.37-44.916,18.744-67.311,28.252c5.525,13.179,11.05,26.357,16.579,39.545
		c22.469-9.333,44.939-18.689,67.315-28.243C1123.25,1712.92,1117.712,1699.736,1112.187,1686.557z"/>
	<path fill="#504F4F" d="M1138.498,1749.315c-22.484,9.296-44.943,18.679-67.323,28.225c5.262,12.552,10.524,25.103,15.796,37.651
		c22.498-9.237,44.911-18.731,67.329-28.184C1149.03,1774.437,1143.764,1761.876,1138.498,1749.315z"/>
</g>
<g id="_x23_595858ff">
	<path fill="#595858" d="M443.091,520.352c-2.825,1.434-5.79,2.612-8.859,3.389c2.551,6.033,4.868,12.207,8.11,17.896
		c5.26,0.907,10.727-0.225,15.941,1.037c-9.693,7.295-19.704,14.17-29.368,21.508c-1.473,1.246-3.542,2.569-3.42,4.774
		c-0.187,2.529,2.114,4.785,4.585,4.833c12.558,0.211,25.071-1.988,37.596-1.753c-9.775,8.782-21.69,14.992-30.796,24.568
		c-0.139,1.815,0.677,3.555,1.338,5.208c1.15,0.57,2.472,0.362,3.703,0.453c14.431,0.228,28.809-1.582,43.241-1.506
		c-4.007,6.039-9.11,11.247-13.389,17.075c4.024,13.504,10.199,26.292,14.718,39.632c-4.975,3.289-9.058,8.189-10.561,14.046
		c4.711-1.953,9.461-3.815,14.145-5.833c6.844-2.891,13.714-5.695,20.48-8.749c-4.838-1.789-10.076-1.869-15.044-2.985
		c-4.778-11.215-9.223-22.645-13.17-34.154c4.137-5.909,9.119-11.175,13.558-16.853c1.724-2.458,4.827-4.702,4.243-8.036
		c-0.054-1.94-1.976-2.902-3.113-4.192c-13.561,0.372-27.091,1.49-40.649,2.024c11.128-8.71,22.903-16.574,33.714-25.704
		c-2.41-2.644-5.145-6.583-9.247-5.633c-11.492,1.142-23.037,1.591-34.546,2.458c8.782-8.073,18.903-14.528,28.609-21.406
		c1.673-2.165,3.436-5.279,1.972-7.994c-2.381-2.135-5.835-1.555-8.769-1.648c-6.661-0.265-13.313-0.122-19.976-0.213
		C446.486,528.503,444.79,524.432,443.091,520.352z"/>
	<path fill="#595858" d="M737.928,1017.943c-3.603-0.474-6.853,1.604-10.099,2.835c-25.184,10.591-50.352,21.218-75.59,31.68
		c-23.331,9.89-46.617,19.859-70.052,29.499c-2.752,1.273-6.355,2.48-7.19,5.79c-0.857,4.111,1.646,7.909,2.992,11.638
		c2.124,5.583,5.026,10.927,6.287,16.806c6.586-1.904,13.431-1.456,20.18-1.835c4.086,0.022,6.17-3.931,9.358-5.767
		c3.049,0.056,6.134,1.906,9.104,0.532c2.909-1.285,6.408-1.993,8.682-4.225c1.13-6.513,1.305-13.234,0.443-19.79
		c-0.257-2.863-0.707-5.798-0.051-8.631c0.903-1.571,2.64,0.064,3.772,0.436c7.586,4.594,14.241,10.793,22.524,14.206
		c3.324,1.437,7.011,0.921,10.473,0.435c0.912-2.79,0.965-6.26,3.08-8.405c4.368-1.246,8.366,3.454,12.661,2.705
		c2.142-3.685,2.931-7.984,4.882-11.762c3.35,1.99,6.996,3.627,10.979,3.53c-0.189-3.813-1.569-8.19,0.997-11.511
		c4.647,0.481,8.047,4.141,12.266,5.799c1.362-2.545-0.461-5.445-0.67-8.09c-0.977-6.855-3.07-13.557-3.554-20.478
		c-0.371-1.688,1.437-2.392,2.369-3.401c7.925,6.23,16.187,12.255,22.749,19.967c1.339,1.564,3.21,5.355,0.526,6.427
		c-7.652-3.276-12.023-11.116-18.963-15.385c1.54,7.476,2.585,15.062,3.382,22.654c0.364,2.808-0.165,6.098-2.808,7.683
		c-3.901-1.856-7.21-4.73-11.023-6.764c-0.582,3.551-0.554,7.161-0.919,10.74c-3.807-0.985-7.539-2.619-11.524-2.683
		c-2.46,3.005-2.279,7.342-4.582,10.357c-2.975,0.998-5.719-1.072-8.157-2.49c-3.222,0.798-5.728,2.813-6.684,6.066
		c-0.362-0.087-1.085-0.261-1.438-0.352c0.981,2.755,0.92,5.817-0.747,8.305c-1.388,0.387-2.587-0.585-3.759-1.156
		c-8.918-5.185-17.678-10.664-26.18-16.512c-1.498-0.987-3.123-1.759-4.74-2.513c0.828,8.414,2.768,16.948,1.039,25.393
		c-5.102,2.237-10.216,4.446-15.239,6.844c-2.384,1.477-5.122,0.25-7.692,0.275c-2.481,1.376-4.361,3.953-7.348,4.328
		c-6.774,1.224-13.696,0.928-20.516,1.705c4.78,6.953,6.307,15.562,10.66,22.737c2.097,3.295,6.468,3.144,9.602,1.591
		c23.956-10.054,47.927-20.071,71.94-29.987c26.441-11.161,52.924-22.221,79.399-33.277c2.368-1.025,4.973-2.313,5.993-4.844
		c1.138-2.537-0.182-5.27-1.034-7.666c-2.69-6.365-5.297-12.765-8.094-19.074c-1.824,1.133-4.153,1.991-4.947,4.21
		c-1.943,4.729-2.939,9.776-4.351,14.684c-3.544,0.109-7.075-1.848-7.694-5.601c1.487-2.402,3.685-4.245,5.223-6.603
		c1.84-3.059,1.956-6.87,3.948-9.853c1.397-1.659,3.62-2.255,5.474-3.238c-2.856-7.304-6.175-14.392-9.184-21.621
		C742.922,1021.553,741.159,1018.432,737.928,1017.943z"/>
</g>
<g id="_x23_919191ff">
	<path fill="#919191" d="M804.149,536.877c-4.453,0.967-9.133,1.053-13.418,2.73c-73.144,30.687-146.312,61.34-219.459,92.018
		c-20.259,8.396-40.383,17.115-60.719,25.304c-6.766,3.053-13.636,5.858-20.48,8.749c54.098,128.909,108.132,257.844,162.166,386.78
		c25.238-10.461,50.406-21.089,75.59-31.68c3.247-1.231,6.496-3.309,10.099-2.835c3.23,0.489,4.994,3.61,6.152,6.345
		c3.009,7.229,6.328,14.317,9.184,21.621c-1.854,0.983-4.077,1.579-5.474,3.238c-1.992,2.982-2.107,6.793-3.948,9.853
		c-1.538,2.358-3.736,4.201-5.223,6.603c0.619,3.753,4.15,5.709,7.694,5.601c1.412-4.908,2.408-9.955,4.351-14.684
		c0.794-2.219,3.123-3.077,4.947-4.21c2.797,6.309,5.404,12.709,8.094,19.074c0.853,2.397,2.172,5.129,1.034,7.666
		c-1.021,2.531-3.625,3.819-5.993,4.844c-26.474,11.056-52.958,22.115-79.399,33.277c5.1,11.752,9.845,23.664,14.899,35.435
		c76.541-32.1,153.07-64.206,229.622-96.279c23.664-9.921,47.325-19.852,70.997-29.754c3.186-1.325,5.737-3.696,8.551-5.623
		c2.573-1.957,5.496-3.573,7.519-6.145c3.847-5.462,7.639-11.237,8.57-17.993c2.57-7.681-0.229-15.573-1.404-23.212
		c-13.447-32.747-27.35-65.315-40.964-97.993c-32.845-78.344-65.694-156.696-98.539-235.04
		c-10.565-25.227-21.168-50.438-31.705-75.677c-2.261-6.35-7.013-11.297-10.795-16.749c-3.844-3.919-8.854-6.611-13.757-8.968
		C816.454,537.596,810.288,535.355,804.149,536.877 M722.505,592.37c3.334-0.4,7.026,0.362,9.667,2.496
		c2.532,3.428,4.738,8.586,1.935,12.504c-1.64,2.271-3.105,5.216-6.069,5.906c-4.361,1.21-9.935-0.031-12.227-4.232
		c-1.646-2.943-3.121-6.564-1.729-9.891C715.683,595.804,718.603,592.683,722.505,592.37 M766.489,586.041
		c7.019-1.338,14.169-1.56,21.279-1.981c20.25,0.196,41.635,7.571,54.179,24.172c2.937,5.221,7.469,10.574,6.583,16.943
		c-0.848,2.296-1.361,5.548-3.866,6.555c-10.207,1.232-18.872-5.339-26.919-10.618c-7.491-4.471-15.087-9.268-23.829-10.775
		c-10.028-3.126-20.625-2.847-30.998-2.684c-5.058-0.503-11.479-0.869-14.17-5.943c0.209-3.796,1.456-7.908,4.732-10.181
		C757.338,588.783,761.94,587.244,766.489,586.041 M751.483,732.536c10.025,2.91,19.295,7.926,28.096,13.453
		c15.63,9.788,28.171,23.821,38.016,39.287c5.739,9.836,10.206,20.411,13.324,31.368c4.125,17.236,5.569,35.346,2.191,52.842
		c-2.224,11.353-5.456,22.651-10.958,32.884c-12.599,25.711-35.03,46.229-61.273,57.448c-22.694,9.417-48.273,12.236-72.367,7.037
		c-19.602-4.208-38.194-13.199-53.552-26.116c-14.719-12.892-26.736-29.063-34.019-47.262
		c-11.589-28.755-12.064-62.062-0.102-90.792c11.677-30.16,36.431-54.526,66.153-66.965
		C693.594,724.862,724.174,723.264,751.483,732.536z"/>
	<path fill="#919191" d="M711.768,1039.938c-0.932,1.009-2.741,1.713-2.369,3.401c0.484,6.921,2.578,13.623,3.554,20.478
		c0.209,2.645,2.032,5.546,0.67,8.09c-4.219-1.658-7.619-5.318-12.266-5.799c-2.566,3.32-1.186,7.697-0.997,11.511
		c-3.982,0.097-7.629-1.54-10.979-3.53c-1.951,3.778-2.74,8.078-4.882,11.762c-4.294,0.749-8.292-3.951-12.661-2.705
		c-2.115,2.145-2.168,5.615-3.08,8.405c-3.461,0.486-7.149,1.002-10.473-0.435c-8.284-3.413-14.938-9.612-22.524-14.206
		c-1.132-0.371-2.869-2.007-3.772-0.436c-0.655,2.834-0.206,5.768,0.051,8.631c0.862,6.557,0.687,13.277-0.443,19.79
		c-2.274,2.233-5.772,2.94-8.682,4.225c-2.969,1.375-6.055-0.476-9.104-0.532c-3.188,1.835-5.272,5.788-9.358,5.767
		c-6.748,0.379-13.594-0.069-20.18,1.835c0.398,2.425,1.252,4.745,2.869,6.637c6.82-0.777,13.743-0.481,20.516-1.705
		c2.988-0.374,4.867-2.952,7.348-4.328c2.57-0.026,5.307,1.202,7.692-0.275c5.023-2.399,10.137-4.608,15.239-6.844
		c1.729-8.445-0.211-16.979-1.039-25.393c1.617,0.753,3.242,1.525,4.74,2.513c8.502,5.848,17.262,11.327,26.18,16.512
		c1.172,0.571,2.371,1.543,3.759,1.156c1.668-2.488,1.729-5.55,0.747-8.305c0.352,0.091,1.076,0.265,1.438,0.352
		c0.957-3.253,3.462-5.268,6.684-6.066c2.438,1.418,5.182,3.488,8.157,2.49c2.303-3.015,2.122-7.352,4.582-10.357
		c3.985,0.064,7.717,1.698,11.524,2.683c0.364-3.579,0.337-7.189,0.919-10.74c3.813,2.034,7.122,4.908,11.023,6.764
		c2.643-1.585,3.172-4.875,2.808-7.683c-0.797-7.592-1.842-15.178-3.382-22.654c6.94,4.269,11.311,12.108,18.963,15.385
		c2.685-1.071,0.813-4.863-0.526-6.427C727.955,1052.193,719.693,1046.168,711.768,1039.938z"/>
	<path fill="#919191" d="M931.962,1075.628c-76.483,32.239-153.086,64.191-229.608,96.338
		c64.919,154.95,129.985,309.839,194.811,464.828c32.61-13.672,65.211-27.339,97.812-41.007
		c22.438-9.407,44.876-18.814,67.314-28.221c21.525-9.024,43.041-18.044,64.565-27.069
		c-45.492-108.51-90.984-217.019-136.476-325.529c-2.294-5.523-4.702-11.008-6.82-16.604c-7.919-18.009-15.214-36.29-22.958-54.372
		c-3.487-8.318-6.962-16.632-10.449-24.95c-1.879-4.352-3.592-8.774-5.411-13.14C940.35,1095.869,936.245,1085.716,931.962,1075.628
		 M907.752,1149.84c4.39,10.445,8.794,20.873,13.129,31.341c-54.382,22.832-108.781,45.595-163.163,68.427
		c-4.458-10.427-8.815-20.897-13.168-31.357C798.953,1195.442,853.351,1172.625,907.752,1149.84 M927.076,1195.933
		c4.445,10.422,8.748,20.892,13.156,31.33c-54.375,22.872-108.806,45.638-163.218,68.45c-4.39-10.445-8.78-20.89-13.138-31.337
		C818.268,1241.539,872.685,1218.768,927.076,1195.933z"/>
</g>
<g id="_x23_858585ff">
	<path fill="#858585" d="M490.073,665.678c-4.684,2.018-9.434,3.879-14.145,5.833c-89.282,37.637-178.698,74.951-268.034,112.458
		c-2.399,1.028-4.359,2.793-6.489,4.282c-3.721,2.84-8.113,5.169-10.419,9.443c-3.588,5.072-6.284,10.745-7.213,16.936
		c-1.948,6.01,0.204,12.124,0.967,18.136c0.412,4.034,2.408,7.632,3.896,11.335c10.896,25.988,21.796,51.964,32.673,77.96
		c32.731,78.045,65.465,156.098,98.168,234.154c12.988,30.902,25.92,61.826,38.89,92.736c2.003,4.029,5.161,7.346,7.623,11.096
		c2.546,4.159,7.03,6.345,11.018,8.848c4.492,2.877,9.867,3.671,14.994,4.753c3.722,0.782,7.447-0.368,11.112-0.885
		c3.314-0.63,6.764-0.808,9.866-2.228c18.116-7.638,36.254-15.221,54.385-22.823c75.64-31.69,151.24-63.45,226.882-95.108
		c-5.054-11.771-9.799-23.683-14.899-35.435c-24.014,9.916-47.985,19.933-71.94,29.987c-3.134,1.552-7.505,1.704-9.602-1.591
		c-4.353-7.175-5.88-15.784-10.66-22.737c-1.617-1.892-2.471-4.212-2.869-6.637c-1.261-5.88-4.163-11.223-6.287-16.806
		c-1.347-3.729-3.85-7.527-2.992-11.638c0.835-3.31,4.439-4.517,7.19-5.79c23.435-9.641,46.722-19.609,70.052-29.499
		C598.206,923.522,544.172,794.587,490.073,665.678 M499.243,854.345c31.784,11.386,56.749,39.327,65.227,71.913
		c1.877,8.668,3.69,17.44,3.449,26.356c0.352,18.091-4.558,36.176-13.316,51.959c-11.114,20.382-29.549,36.439-50.771,45.618
		c-29.228,12.557-64.269,11.146-92.06-4.528c-28.977-15.708-49.535-45.864-53.655-78.554c-4.474-30.069,5.399-61.739,25.732-84.262
		c10.702-11.589,23.771-21.124,38.402-27.117C446.551,845.749,474.624,844.921,499.243,854.345z"/>
	<path fill="#858585" d="M702.353,1171.966c-75.638,31.668-151.215,63.483-226.9,95.04c4.018,9.636,8.101,19.245,12.095,28.901
		c-0.495,0.164-1.468,0.507-1.95,0.677c0.551,0.073,1.658,0.205,2.209,0.277c6.979,15.844,13.491,31.894,20.197,47.864
		c1.837,4.044,3.443,8.186,4.96,12.375c3.553,7.207,6.37,14.755,9.484,22.156c5.67,13.161,11.169,26.383,16.577,39.644
		c43.957,104.252,87.516,208.671,131.326,312.985c25.214-10.571,50.414-21.147,75.632-31.708
		c22.434-9.416,44.867-18.81,67.304-28.217c27.958-11.732,55.924-23.446,83.877-35.165
		C832.338,1481.804,767.272,1326.916,702.353,1171.966 M554.433,1259.343c8.841-2.319,19.067-0.403,25.728,6.097
		c8.508,7.439,11.567,20.166,7.727,30.743c-2.208,5.079-5.662,9.747-10.281,12.876c-8.692,6.322-21.209,6.777-30.397,1.261
		c-10.41-6.338-15.733-19.526-12.722-31.328C537.137,1269.609,544.953,1261.767,554.433,1259.343 M633.965,1247.773
		c13.479-3.645,28.547-2.025,40.484,5.419c8.308,4.92,14.965,12.366,19.517,20.845c8.403,16.266,7.708,37.214-2.76,52.413
		c-5.198,8.034-12.862,14.273-21.429,18.461c-15.742,7.326-35.366,6.554-49.904-3.215c-8.952-5.55-15.761-14.135-20.003-23.71
		c-6.164-14.96-5.402-33.008,3.284-46.843C609.947,1259.827,621.249,1251.272,633.965,1247.773 M576.095,1323.996
		c7.43-2.399,15.63,0.116,21.512,4.937c5.21,5.005,8.237,12.302,7.883,19.553c-0.624,4.978-2.648,9.85-5.864,13.714
		c-5.023,5.218-12.352,8.247-19.613,7.843c-6.513-0.87-13.208-3.907-16.824-9.635c-4.658-6.429-6.271-15.371-2.809-22.71
		C562.839,1330.811,569.138,1325.817,576.095,1323.996z"/>
	<path fill="#858585" d="M174.777,1544.543c-27.313-6.462-54.323-14.298-82.065-18.759c-27.57,12.426-48.085,35.6-73.466,51.489
		c6.387,14.303,13.071,28.514,20.872,42.104c9.115-7.768,19.021-14.556,28.409-21.984c10.717-7.931,21.168-16.237,32.302-23.562
		c20.485,5.074,41.024,9.942,61.708,14.119c-1.793-14.234,2.874-28.812,12.189-39.646
		C175.883,1547.31,176.773,1545.061,174.777,1544.543z"/>
	<path fill="#858585" d="M208.074,1558.451c-11.921,1.387-20.991,13.582-18.951,25.381c1.418,5.554,3.801,11.342,8.631,14.793
		c6.446,4.953,15.694,6.009,23.036,2.443c6.288-2.745,10.921-8.634,12.484-15.253c1.663-6.585-0.208-13.738-4.252-19.091
		C224.181,1560.48,215.85,1557.316,208.074,1558.451z"/>
	<path fill="#858585" d="M191.432,1625.185c-7.751-3.202-14.285-8.726-19.68-15.051c-8.332,15.974-12.904,33.57-21.144,49.581
		c-1.356,2.585-2.02,6.095-5.154,7.181c-22.517,9.451-46.732,13.921-69.488,22.724c6.72,13.881,14.228,27.367,21.146,41.154
		c12.538-3.847,24.965-8.059,37.285-12.53c5.048-1.693,9.793-4.496,15.194-4.83c11.022-4.1,22.576-6.646,33.664-10.589
		c10.064-24.594,18.772-49.757,30.401-73.695C206.1,1629.239,198.401,1628.281,191.432,1625.185z"/>
	<path fill="#858585" d="M1225.734,1440.944c-6.643,1.484-12.714,5.883-15.575,12.146c-3.293,6.499-2.874,14.509,0.681,20.816
		c3.669,7.147,11.634,11.507,19.565,11.543c5.758-0.05,11.438-2.41,15.647-6.31c6.688-6.317,8.845-16.948,4.88-25.294
		C1247.053,1444.259,1235.771,1438.504,1225.734,1440.944z"/>
	<path fill="#858585" d="M1352.789,1490.276c-24.833-9.909-50.2-18.586-74.345-30.139c1.398,16.058-5.786,32.212-18.233,42.353
		c18.063,8.66,37.425,14.237,55.278,23.354c2.363,3.542,3.802,7.568,5.12,11.592c7.396,19.865,12.084,40.617,19.59,60.436
		c13.579-7.287,27.208-14.53,40.915-21.588c-4.901-16.422-10.899-32.515-17.02-48.512c-0.391-3.002-0.905-5.986-2.314-8.702
		C1358.69,1509.5,1356.012,1499.801,1352.789,1490.276z"/>
	<path fill="#858585" d="M1196.008,1498.092c-2.149,1.649-2.146,4.478-2.715,6.896c-4.281,18.136-9.03,36.164-12.891,54.395
		c-1.38,7.648-3.335,15.245-3.885,23.012c12.616,27.273,35.691,47.603,51.852,72.598c14.172-6.44,28.24-13.206,41.731-20.987
		c-14.552-18.21-28.608-36.812-42.489-55.542c-1.202-1.6-2.28-3.317-3.352-4.97c4.885-20.395,9.597-40.837,13.598-61.425
		C1222.696,1514.239,1206.826,1508.921,1196.008,1498.092z"/>
	<path fill="#858585" d="M1077.737,1604.386c-22.388,9.527-44.846,18.91-67.311,28.252c3.232,7.71,6.469,15.429,9.705,23.148
		c22.395-9.508,44.846-18.91,67.327-28.216C1084.218,1619.843,1080.978,1612.115,1077.737,1604.386z"/>
	<path fill="#858585" d="M828.731,1708.77c-22.384,9.536-44.839,18.928-67.315,28.243c3.236,7.719,6.472,15.438,9.712,23.167
		c22.391-9.518,44.858-18.882,67.315-28.243C835.207,1724.217,831.977,1716.485,828.731,1708.77z"/>
	<path fill="#858585" d="M1102.486,1663.418c-22.415,9.462-44.835,18.938-67.327,28.216c3.236,7.719,6.476,15.447,9.716,23.176
		c22.395-9.509,44.858-18.882,67.311-28.252C1108.951,1678.838,1105.719,1671.128,1102.486,1663.418z"/>
	<path fill="#858585" d="M1128.77,1726.112c-22.376,9.554-44.846,18.91-67.315,28.243c3.24,7.728,6.48,15.457,9.72,23.185
		c22.38-9.545,44.839-18.928,67.323-28.225C1135.254,1741.577,1132.01,1733.84,1128.77,1726.112z"/>
</g>
<g id="_x23_9d9d9dff">
	<path fill="#9D9D9D" d="M722.505,592.37c-3.902,0.313-6.823,3.435-8.422,6.784c-1.392,3.327,0.083,6.948,1.729,9.891
		c2.292,4.2,7.866,5.442,12.227,4.232c2.964-0.69,4.429-3.635,6.069-5.906c2.803-3.918,0.597-9.077-1.935-12.504
		C729.532,592.731,725.84,591.969,722.505,592.37z"/>
	<path fill="#9D9D9D" d="M766.489,586.041c-4.549,1.202-9.152,2.742-13.01,5.487c-3.276,2.273-4.523,6.385-4.732,10.181
		c2.691,5.074,9.112,5.44,14.17,5.943c10.374-0.164,20.97-0.442,30.998,2.684c8.743,1.507,16.338,6.303,23.829,10.775
		c8.047,5.279,16.711,11.85,26.919,10.618c2.506-1.007,3.018-4.258,3.866-6.555c0.887-6.368-3.646-11.722-6.583-16.943
		c-12.544-16.601-33.929-23.976-54.179-24.172C780.658,584.482,773.508,584.704,766.489,586.041z"/>
</g>
<g id="_x23_e44c2eff">
	<path fill="#E44C2E" d="M935.486,641.374c-18.596-4.5-38.159-4.659-56.887-0.808c32.845,78.344,65.694,156.696,98.539,235.04
		c30.07-19.861,51.092-52.714,56.39-88.365c5.715-36.053-5.004-74.163-28.214-102.264
		C987.603,663.342,962.663,647.85,935.486,641.374 M945.49,669.297c12.485-2.447,26.214,3.117,33.12,13.874
		c2.309,3.955,3.568,9.131,1.302,13.399c-1.385,4.56-5.882,7.204-10.188,8.468c-9.6,2.268-20.088-0.351-27.871-6.293
		c-5.073-3.978-9.275-9.785-9.394-16.458c0.589-2.708,1.547-5.441,3.155-7.709C938.366,672.013,941.703,669.833,945.49,669.297z"/>
	<path fill="#E44C2E" d="M221.31,922.061c-25.842,17.557-44.732,44.864-52.29,75.152c-4.303,17.049-5.056,34.986-2.239,52.336
		c5.016,30.405,20.953,59.03,44.712,78.768c29.353,24.908,70.222,35.565,107.985,27.898
		C286.775,1078.16,254.04,1000.106,221.31,922.061 M205.644,976.123c4.119-1.347,8.35,0.544,11.797,2.688
		c4.918,5.16,6.056,12.815,4.978,19.632c-1.645,9.473-7.225,18.459-15.674,23.291c-3.802,1.898-8.487,3.059-12.461,0.952
		c-4.846-1.471-7.721-6.338-8.743-11.027c-1.776-8.917,0.75-18.488,6.214-25.68C195.393,981.57,199.854,977.314,205.644,976.123z"/>
	<path fill="#E44C2E" d="M556.547,1266.947c-6.209,1.638-11.559,6.31-13.697,12.411c-3.081,7.808-0.293,17.353,6.24,22.54
		c8.958,7.608,24.098,4.796,29.751-5.49c3.385-5.659,3.712-12.974,0.694-18.855C575.768,1269.082,565.435,1264.403,556.547,1266.947
		z"/>
	<path fill="#E44C2E" d="M638.013,1254.946c-9.751,2.245-18.729,7.83-24.844,15.772c-9.12,11.403-11.854,27.513-7.033,41.29
		c3.968,11.923,13.354,21.922,25.042,26.574c10.317,4.306,22.304,4.344,32.683,0.21c11.259-4.362,20.584-13.596,24.858-24.919
		c5.631-13.779,3.339-30.34-5.586-42.213C673.122,1257.814,654.629,1250.972,638.013,1254.946 M641.744,1266.198
		c4.252-0.308,8.612-0.77,12.797,0.263c10.694,2.283,20.237,10.329,23.527,20.866c4.776,14.469-2.496,31.885-16.39,38.317
		c-9.588,4.779-21.564,3.706-30.53-1.98c-7.366-4.611-12.77-12.277-14.249-20.874c-0.695-7.038-0.064-14.481,3.604-20.682
		C624.906,1274.092,632.694,1267.943,641.744,1266.198z"/>
	<path fill="#E44C2E" d="M579.984,1331.202c-9.19,0.969-15.903,11.156-12.741,19.915c2.215,8.386,12.339,13.369,20.291,9.862
		c7.853-2.631,12.204-12.349,8.87-19.94C594.153,1334.403,586.857,1330.164,579.984,1331.202z"/>
</g>
<g id="_x23_555454ff">
	<path fill="#555454" d="M751.483,732.536c-27.309-9.272-57.889-7.675-84.489,3.185c2.992,7.42,6.205,14.748,9.237,22.162
		c19.88-8.551,42.659-9.644,63.423-3.775c31.763,8.75,58.51,34.501,67.243,66.427c10.572,33.985-0.06,73.336-25.87,97.744
		c-8.419,8.344-18.531,14.871-29.458,19.431c3.172,7.334,6.238,14.723,9.312,22.109c26.243-11.219,48.674-31.738,61.273-57.448
		c5.501-10.233,8.734-21.531,10.958-32.884c3.378-17.497,1.933-35.607-2.191-52.842c-3.119-10.956-7.585-21.532-13.324-31.368
		c-9.846-15.466-22.386-29.499-38.016-39.287C770.778,740.462,761.508,735.447,751.483,732.536z"/>
	<path fill="#555454" d="M499.243,854.345c-24.618-9.424-52.691-8.596-76.992,1.386c2.751,6.329,5.354,12.719,8.09,19.065
		c10.353-3.885,21.343-6.638,32.477-6.177c14.171,0.153,28.399,3.622,40.735,10.648c19.273,10.744,34.452,29.103,40.231,50.492
		c5.471,18.092,3.991,37.97-2.901,55.465c-8.486,20.235-24.692,37.395-45.096,45.808c-1.929,0.83-3.85,1.679-5.808,2.467
		c2.056-0.45,4.12-0.827,6.168-1.22c2.675,5.916,5.115,11.941,7.683,17.912c21.221-9.179,39.657-25.235,50.771-45.618
		c8.758-15.784,13.668-33.869,13.316-51.959c0.241-8.917-1.571-17.688-3.449-26.356
		C555.991,893.672,531.027,865.732,499.243,854.345z"/>
</g>
<g id="_x23_2b9c78ff">
	<path fill="#2B9C78" d="M739.653,754.108c-20.764-5.868-43.543-4.776-63.423,3.775c12.485,29.833,24.971,59.665,37.521,89.471
		c29.469-12.344,58.859-24.904,88.432-36.999c1.391,3.472,3.03,6.84,4.712,10.18C798.163,788.609,771.417,762.857,739.653,754.108z"
		/>
	<path fill="#2B9C78" d="M462.819,868.618c-11.134-0.461-22.124,2.292-32.477,6.177c10.788,25.914,21.614,51.813,32.559,77.661
		c6.513-2.698,13.019-5.415,19.509-8.168c4.228-3.855,9.628-6.053,15.313-6.409c13.914-5.66,27.634-11.781,41.601-17.289
		c1.342,3.124,2.874,6.158,4.462,9.168c-5.779-21.389-20.958-39.748-40.231-50.492C491.217,872.24,476.99,868.771,462.819,868.618z"
		/>
</g>
<g id="_x23_259974ff">
	<path fill="#259974" d="M676.231,757.883c-28.997,11.582-51.113,38.388-57.721,68.819c-4.013,18.413-2.965,38.034,3.85,55.66
		c6.375,17.171,17.903,32.332,32.564,43.275c26.972,20.832,65.384,25.785,96.644,12.073c-12.55-30.142-25.238-60.226-37.816-90.356
		C701.202,817.548,688.716,787.716,676.231,757.883 M685.141,857.581c6.776-1.193,13.968,1.789,18.19,7.153
		c2.866,4.871,5.325,10.736,3.586,16.442c-1.896,7.116-7.696,13.896-15.329,14.776c-4.815,0.154-10.029-0.23-14.075-3.131
		c-7.273-4.986-10.928-15.359-7.061-23.541C672.624,862.927,678.792,858.888,685.141,857.581z"/>
	<path fill="#259974" d="M430.341,874.796c-20.515,8.406-37.374,25.146-45.785,45.664c-5.845,13.836-7.66,29.268-5.923,44.143
		c3.101,20.614,13.469,40.404,29.869,53.502c13.16,11.138,29.86,17.995,47.036,19.392c11.623,1.188,23.316-0.613,34.443-3.998
		c1.957-0.788,3.879-1.637,5.808-2.467c-10.949-26.194-21.994-52.358-32.888-78.575C451.955,926.609,441.13,900.71,430.341,874.796z
		"/>
	<path fill="#259974" d="M927.076,1195.933c-54.391,22.836-108.809,45.607-163.199,68.442c4.358,10.447,8.748,20.892,13.138,31.337
		c54.412-22.812,108.843-45.577,163.218-68.45C935.824,1216.825,931.521,1206.355,927.076,1195.933z"/>
</g>
<g id="_x23_f1593cff">
	<path fill="#F1593C" d="M205.644,976.123c-5.79,1.191-10.251,5.447-13.889,9.857c-5.464,7.192-7.99,16.763-6.214,25.68
		c1.023,4.689,3.898,9.556,8.743,11.027c3.974,2.107,8.659,0.946,12.461-0.952c8.449-4.832,14.028-13.818,15.674-23.291
		c1.078-6.817-0.06-14.472-4.978-19.632C213.994,976.667,209.763,974.775,205.644,976.123z"/>
	<path fill="#F1593C" d="M945.49,669.297c-3.787,0.536-7.124,2.716-9.877,5.279c-1.608,2.268-2.566,5.001-3.155,7.709
		c0.119,6.673,4.321,12.48,9.394,16.458c7.783,5.943,18.271,8.561,27.871,6.293c4.306-1.263,8.804-3.908,10.188-8.468
		c2.266-4.268,1.007-9.444-1.302-13.399C971.704,672.414,957.975,666.85,945.49,669.297z"/>
</g>
<g id="_x23_38c296ff">
	<path fill="#38C296" d="M685.141,857.581c-6.349,1.306-12.517,5.345-14.689,11.699c-3.867,8.182-0.212,18.555,7.061,23.541
		c4.046,2.901,9.26,3.285,14.075,3.131c7.633-0.88,13.433-7.659,15.329-14.776c1.739-5.706-0.72-11.572-3.586-16.442
		C699.109,859.37,691.917,856.389,685.141,857.581z"/>
	<path fill="#38C296" d="M907.752,1149.84c-54.401,22.786-108.799,45.603-163.202,68.411c4.353,10.46,8.71,20.93,13.168,31.357
		c54.382-22.832,108.781-45.595,163.163-68.427C916.546,1170.713,912.142,1160.285,907.752,1149.84z"/>
</g>
<g id="_x23_3cc69cff">
	<path fill="#3CC69C" d="M497.722,937.88c-5.685,0.356-11.084,2.554-15.313,6.409c-3.027,5.064-4.777,11.469-1.807,17.001
		c2.674,8.215,12.396,12.239,20.391,9.971c8.881-2.921,14.251-14.064,10.119-22.676C509.116,942.71,503.399,939.393,497.722,937.88z
		"/>
</g>
<g id="_x23_289f7aff">
	<path fill="#289F7A" d="M802.184,810.355c-29.574,12.095-58.963,24.655-88.432,36.999c12.578,30.13,25.266,60.214,37.816,90.356
		c10.927-4.559,21.04-11.087,29.458-19.431c25.81-24.407,36.443-63.759,25.87-97.744
		C805.214,817.195,803.575,813.828,802.184,810.355z"/>
	<path fill="#289F7A" d="M539.323,920.591c-13.966,5.508-27.687,11.629-41.601,17.289c5.676,1.513,11.394,4.83,13.39,10.705
		c4.131,8.613-1.238,19.755-10.119,22.676c-7.995,2.268-17.717-1.756-20.391-9.971c-2.97-5.532-1.22-11.937,1.807-17.001
		c-6.49,2.753-12.996,5.47-19.509,8.168c10.894,26.217,21.939,52.381,32.888,78.575c20.404-8.413,36.609-25.573,45.096-45.808
		c6.892-17.495,8.371-37.373,2.901-55.465C542.197,926.748,540.665,923.715,539.323,920.591z"/>
</g>
<g id="_x23_6c6b6bff">
	<path fill="#6C6B6B" d="M923.869,1056.326c-76.553,32.073-153.081,64.178-229.622,96.279c2.706,6.456,5.413,12.911,8.106,19.361
		c76.522-32.146,153.125-64.099,229.608-96.338C929.263,1069.191,926.568,1062.763,923.869,1056.326z"/>
</g>
<g id="_x23_686767ff">
	<path fill="#686767" d="M694.247,1152.604c-75.642,31.658-151.242,63.418-226.882,95.108c2.695,6.428,5.394,12.865,8.089,19.293
		c75.685-31.557,151.261-63.372,226.9-95.04C699.66,1165.516,696.953,1159.06,694.247,1152.604z"/>
</g>
<g id="_x23_829d94ff">
	<path fill="#829D94" d="M485.598,1296.583l-1.182-0.155c-1.896,7.789-2.996,15.743-4.557,23.608
		c-1.046,6.532-2.961,13.007-2.569,19.684c10.247,1.603,20.479,3.353,30.713,5.004c-6.706-15.969-13.218-32.02-20.197-47.864
		C487.257,1296.788,486.149,1296.656,485.598,1296.583z"/>
	<path fill="#829D94" d="M958.018,1107.416c-4.481-0.084-8.832-1.101-13.278-1.514c1.82,4.366,3.532,8.788,5.411,13.14
		c13.654-0.693,27.252,1.066,40.738,2.948c3.174,0.328,6.348,0.787,9.409,1.726c0.524-3.277,0.949-6.557,1.348-9.847
		C987.295,1110.571,972.772,1107.769,958.018,1107.416z"/>
	<path fill="#829D94" d="M996.934,1144.037c-12.088,0.937-24.295,2.107-36.333-0.046c7.744,18.082,15.039,36.363,22.958,54.372
		c1.062,0.075,2.122,0.173,3.188,0.312l1.063-1.085C990.622,1179.701,993.617,1161.834,996.934,1144.037z"/>
	<path fill="#829D94" d="M512.964,1357.099c-12.936-1.733-25.812-3.839-38.722-5.615c0.067,4.168-1.368,8.142-2.048,12.212
		c-0.632,3.897,0.501,7.944-0.82,11.751c-2.046,6.605-6.407,12.185-10.951,17.278c7.259,3.322,13.251,8.693,19.003,14.11
		c6.228,5.803,12.159,11.905,18.233,17.859c8.301-5.779,14.93-13.839,18.67-23.257c2.945-7.123,4.089-14.791,6.12-22.181
		C519.334,1371.853,516.517,1364.306,512.964,1357.099z"/>
	<path fill="#829D94" d="M1006.761,1148.44c-2.136,17.692-4.813,35.307-7.215,52.958c3.834,0.041,7.642,0.873,11.278,2.071
		c4.34,0.523,8.816-0.671,13.027,0.838c6.581,2.066,12.085,6.427,17.282,10.831c2.02-5.759,6.023-10.463,9.935-15.02
		c6.879-7.774,14.302-15.028,21.509-22.485c-5.725-8.042-13.525-14.672-22.769-18.256c-13.511-5.276-28.066-6.732-42.272-9.039
		C1007.338,1149.868,1006.958,1148.911,1006.761,1148.44z"/>
	<path fill="#829D94" d="M455.025,1398.316c-14.482,13.564-30.949,24.773-47.532,35.574c8.946,13.837,17.62,27.854,26.014,42.031
		c7.286-2.588,13.412-7.477,19.859-11.6c13.64-9.004,25.757-19.983,37.736-31.034
		C479.052,1421.694,463.181,1413.504,455.025,1398.316z"/>
	<path fill="#829D94" d="M397.925,1439.778c-10.206,6.382-20.767,12.176-31.164,18.259c-4.269,2.516-9.079,4.131-13.043,7.192
		c-3.435,2.98-7.986,4.151-11.721,6.725c7.749,16.052,16.154,31.808,23.371,48.116c8.876-5.727,18.336-10.474,27.168-16.281
		c10.604-6.495,21.054-13.251,31.345-20.233c1.402-1.39,2.872,0.151,4.144,0.909C416.924,1470.327,406.847,1455.37,397.925,1439.778
		z"/>
	<path fill="#829D94" d="M331.268,1478.436c-6.411,3.848-13.845,5.306-20.217,9.246c-3.12,2.024-6.866,2.607-10.113,4.381
		c-21.921,10.665-43.9,21.246-66.202,31.105c-7.115,3.384-14.522,6.175-21.504,9.85c17.131,1.265,33.41,11.876,40.499,27.674
		c6.37,13.28,5.894,29.343-0.766,42.426c10.538-3.236,20.763-7.349,31.048-11.293c3.528-1.49,6.966-3.17,10.489-4.647
		c-1.9-1.22-3.732-2.643-5.962-3.204c-7.217-2.006-14.469-3.888-21.597-6.202c4.184-7.685,9.056-15.074,14.472-21.942
		c-6.264-14.734-13.496-29.062-19.129-44.05c3.512-1.711,6.995-3.464,10.465-5.222c6.731,15.124,12.962,30.479,19.062,45.856
		c6.218-1.024,11.754-4.19,17.561-6.452c15.831-6.854,31.774-13.494,47.19-21.259
		C348.09,1509.302,339.477,1493.981,331.268,1478.436z"/>
	<path fill="#829D94" d="M1081.158,1184.239c-3.772,4.194-7.46,8.484-10.832,13.01c-6.895,8.616-13.675,18.257-24.044,22.93
		c13.119,13.497,23.769,29.125,34.268,44.675c0.676,0.888,1.346,1.789,2.03,2.695c13.944-9.001,27.942-17.927,42.246-26.354
		C1112.99,1220.285,1098.004,1201.325,1081.158,1184.239z"/>
	<path fill="#829D94" d="M307.946,1573.518c-3.283,1.713-5.843-1.91-8.537-3.241c1.675,4.253,3.409,8.493,5.369,12.626
		c21.922-9.603,43.53-19.876,64.942-30.566c-0.603-1.645-1.207-3.267-1.854-4.861
		C347.603,1555.471,328.245,1565.604,307.946,1573.518z"/>
	<path fill="#829D94" d="M1130.221,1248.996c-13.381,10.24-27.259,19.918-41.92,28.244c7.193,11.699,14.212,23.503,20.864,35.515
		c1.973,3.283,3.164,7.185,6.123,9.794c3.967,6.513,6.083,14.018,10.778,20.096c-1.834-3.21-3.622-6.44-5.202-9.769
		c16.252-7.713,31.982-16.488,48.463-23.733c-5.071-5.551-7.979-12.616-12.015-18.883
		C1148.632,1276.279,1139.982,1262.242,1130.221,1248.996z"/>
	<path fill="#829D94" d="M1201.174,1305.03c-3.797,1.082-7.443,2.6-10.967,4.359c1.983-0.701,3.99-1.293,5.995-1.917
		c8.325,18.229,16.669,36.45,24.777,54.78c0.869,2.151,2.147,4.294,2.229,6.688c-1.433,2.531-3.444,4.664-5.347,6.85
		c4.849-1.935,9.659-3.963,14.441-6.032c-9.215-20.816-19.123-41.32-29.481-61.602
		C1202.278,1307.094,1201.724,1306.057,1201.174,1305.03z"/>
	<path fill="#829D94" d="M1173.889,1317.825c-15.501,8.624-30.773,17.64-46.528,25.839c1.741,3.325,3.794,6.542,4.892,10.169
		c1.856,6.108,5.952,11.222,7.783,17.35c4.93,10.414,10.3,20.61,15.025,31.132c15.542-6.82,31.181-13.408,46.951-19.684
		c-2.86-8.994-6.96-17.532-10.866-26.099C1185.758,1343.47,1179.422,1330.816,1173.889,1317.825z"/>
	<path fill="#829D94" d="M1161.117,1412.517c-1.533-3.294-2.883-6.772-5.415-9.451c5.296,12.115,11.452,23.825,16.623,36.003
		c3.341,7.426,6.839,14.786,10.253,22.181c1.098-14.036,8.366-27.428,19.834-35.662c14.318-10.644,34.467-11.88,50.246-3.781
		c-4.569-14.469-10.247-28.581-16.14-42.559c-0.463,0.216-1.386,0.625-1.84,0.836c-2.063,9.279-5.138,18.289-7.453,27.511
		c-7.766-4.324-14.962-9.591-22.55-14.217C1190.024,1399.476,1175.847,1406.656,1161.117,1412.517z"/>
</g>
<g id="_x23_98b2a7ff">
	<path fill="#98B2A7" d="M990.89,1121.99c-13.486-1.882-27.084-3.641-40.738-2.948c3.487,8.319,6.962,16.632,10.449,24.95
		c12.039,2.153,24.245,0.982,36.333,0.046c1.28-6.75,2.219-13.563,3.365-20.321C997.237,1122.776,994.063,1122.318,990.89,1121.99z"
		/>
	<path fill="#98B2A7" d="M1100.253,1164.946c-0.419,0.035-1.257,0.104-1.677,0.139c-5.965,6.231-11.758,12.639-17.419,19.154
		c16.846,17.085,31.832,36.046,43.667,56.956c7.727-4.356,14.998-9.487,22.119-14.771c0.47-0.923,0.934-1.834,1.398-2.744
		c-6.555-7.358-13.204-14.633-19.512-22.203C1118.797,1189.701,1109.753,1177.13,1100.253,1164.946z"/>
	<path fill="#98B2A7" d="M511.372,1452.255c-6.412-6.681-13.347-12.827-20.27-18.968c-11.979,11.051-24.096,22.03-37.736,31.034
		c-6.447,4.123-12.573,9.012-19.859,11.6c4.762,8.695,10.327,16.977,16.467,24.769c5.828-3.918,10.438-9.321,15.965-13.622
		C480.669,1474.951,495.403,1462.712,511.372,1452.255z"/>
</g>
<g id="_x23_436151ff">
	<path fill="#436151" d="M1025.313,1120.299c-7.812-2.417-15.716-4.536-23.666-6.43c-0.399,3.29-0.824,6.569-1.348,9.847
		c-1.146,6.759-2.085,13.571-3.365,20.321c-3.317,17.797-6.312,35.664-9.124,53.552c-0.087,0.492-0.256,1.484-0.339,1.985
		c4.05,0.427,8.006,1.458,12.074,1.823c2.402-17.651,5.08-35.267,7.215-52.958c0.973-7.792,1.946-15.584,2.723-23.403
		c0.335-1.192,0.029-2.853,1.208-3.586c8.199,0.054,16.242,2.093,24.422,2.437
		C1032.061,1122.143,1028.627,1121.349,1025.313,1120.299z"/>
	<path fill="#436151" d="M477.291,1339.72c-0.266-0.04-0.808-0.117-1.074-0.157c-0.575,3.982-1.51,7.909-1.975,11.92
		c12.911,1.776,25.786,3.882,38.722,5.615c-1.518-4.189-3.124-8.33-4.96-12.375C497.77,1343.073,487.537,1341.323,477.291,1339.72z"
		/>
	<path fill="#436151" d="M460.422,1392.724c-1.787,1.866-3.575,3.732-5.398,5.592c8.156,15.188,24.027,23.378,36.077,34.971
		c6.923,6.141,13.858,12.287,20.27,18.968c1.47,1.411,3.011,2.76,4.544,4.113c2.254-2.951,4.405-5.967,6.53-8.994
		c-7.91-7.928-16.872-14.743-24.787-22.68c-6.075-5.954-12.005-12.056-18.233-17.859
		C473.674,1401.417,467.681,1396.046,460.422,1392.724z"/>
	<path fill="#436151" d="M1104.057,1159.404c-2.917-2.561-6.163-4.692-9.347-6.881c-7.105,8.606-14.46,17.003-22.133,25.11
		c-7.208,7.457-14.63,14.711-21.509,22.485c-3.912,4.557-7.915,9.26-9.935,15.02l-0.027,0.065c1.761,1.615,3.493,3.263,5.176,4.976
		c10.37-4.673,17.149-14.314,24.044-22.93c3.372-4.526,7.061-8.816,10.832-13.01c5.661-6.516,11.454-12.924,17.419-19.154
		C1100.386,1163.166,1102.202,1161.266,1104.057,1159.404z"/>
</g>
<g id="_x23_cf452aff">
	<path fill="#CF452A" d="M641.744,1266.198c-9.049,1.745-16.837,7.894-21.24,15.91c-3.668,6.2-4.299,13.643-3.604,20.682
		c1.479,8.597,6.883,16.263,14.249,20.874c8.966,5.686,20.942,6.759,30.53,1.98c13.894-6.432,21.165-23.848,16.39-38.317
		c-3.29-10.537-12.833-18.583-23.527-20.866C650.356,1265.429,645.995,1265.891,641.744,1266.198z"/>
</g>
<g id="_x23_9ab2a8ff">
	<path fill="#9AB2A8" d="M1035.113,1123.889c-8.179-0.344-16.223-2.383-24.422-2.437c-1.178,0.733-0.872,2.393-1.208,3.586
		c-0.777,7.819-1.75,15.611-2.723,23.403c0.197,0.47,0.577,1.428,0.774,1.898c14.207,2.307,28.761,3.762,42.272,9.039
		c9.245,3.584,17.045,10.214,22.769,18.256c7.672-8.107,15.028-16.504,22.133-25.11c-16.009-10.692-33.343-19.321-51.363-26.068
		C1040.628,1125.534,1037.964,1124.352,1035.113,1123.889z"/>
	<path fill="#9AB2A8" d="M522.448,1379.255c-2.031,7.39-3.175,15.059-6.12,22.181c-3.739,9.418-10.369,17.478-18.67,23.257
		c7.914,7.937,16.876,14.752,24.787,22.68c6.17-9.104,11.601-18.678,16.58-28.475
		C533.618,1405.638,528.118,1392.416,522.448,1379.255z"/>
</g>
<g id="_x23_3a584eff">
	<path fill="#3A584E" d="M407.492,1433.89c-3.211,1.91-6.355,3.955-9.568,5.887c8.923,15.593,18.999,30.55,30.099,44.688
		c4.869,6.828,9.951,13.622,13.757,21.124c0.928,2.55,1.717,5.157,2.539,7.762c4.009-2.516,8.46-4.262,12.286-7.059
		c-2.224-1.865-4.517-3.636-6.632-5.602c-6.14-7.792-11.705-16.074-16.467-24.769
		C425.112,1461.744,416.438,1447.728,407.492,1433.89z"/>
	<path fill="#3A584E" d="M1161.634,1230.632c-2.534-4.078-4.409-8.55-7.284-12.409c-2.311,2.867-4.445,5.951-7.405,8.201
		c-7.121,5.284-14.392,10.415-22.119,14.771c-14.305,8.426-28.302,17.352-42.246,26.354c-0.684-0.906-1.354-1.807-2.03-2.695
		c2.542,4.15,5.2,8.24,7.752,12.386c14.661-8.326,28.538-18.004,41.92-28.244c7.458-5.902,15.296-11.39,23.536-16.124
		C1156.352,1232.001,1158.997,1231.326,1161.634,1230.632z"/>
</g>
<g id="_x23_385a4cff">
	<path fill="#385A4C" d="M341.654,1471.295c-3.626,2.084-7.285,4.117-10.726,6.514l0.339,0.628
		c8.209,15.545,16.822,30.866,25.296,46.268c4.238,7.342,7.755,15.085,11.303,22.771c0.647,1.594,1.251,3.216,1.854,4.861
		c0.667-0.323,2.018-0.954,2.685-1.277c3.615-2.188,8.09-3.023,11.352-5.616c-1.219,0.403-2.44,0.828-3.666,1.266
		c-1.245-2.091-2.511-4.152-3.758-6.221c-3.902-6.67-7.553-13.489-10.967-20.417c-7.217-16.308-15.622-32.063-23.371-48.116
		L341.654,1471.295z"/>
	<path fill="#385A4C" d="M1195.87,1294.318c-2.214,1.21-4.434,2.434-6.596,3.741c-6.475,4.005-13.159,7.642-19.946,11.084
		c-16.48,7.245-32.211,16.02-48.463,23.733c1.58,3.328,3.368,6.558,5.202,9.769c0.18,0.326,0.553,0.983,0.746,1.314l0.549-0.295
		c15.755-8.199,31.027-17.215,46.528-25.839c5.338-3.019,10.715-5.945,16.318-8.435c3.524-1.759,7.171-3.277,10.967-4.359
		c0.55,1.027,1.104,2.064,1.647,3.126C1200.776,1303.408,1197.869,1299.086,1195.87,1294.318z"/>
</g>
<g id="_x23_3a5c4eff">
	<path fill="#3A5C4E" d="M291.812,1552.414c-6.1-15.377-12.331-30.732-19.062-45.856c-3.47,1.758-6.953,3.511-10.465,5.222
		c5.633,14.988,12.865,29.316,19.129,44.05c4.663,10.32,9.025,20.776,13.322,31.26c3.413-1.247,6.761-2.65,10.042-4.188
		c-1.961-4.133-3.694-8.373-5.369-12.626C296.898,1564.313,293.609,1558.666,291.812,1552.414z"/>
	<path fill="#3A5C4E" d="M1232.302,1369.759c-4.782,2.07-9.592,4.097-14.441,6.032c-5.191,2.491-10.46,4.819-15.848,6.839
		c-15.77,6.275-31.409,12.864-46.951,19.684c0.163,0.181,0.483,0.557,0.64,0.751c2.533,2.679,3.883,6.158,5.415,9.451
		c14.729-5.861,28.906-13.04,43.557-19.139c9.721-5.03,19.926-9.037,30.003-13.294c0.453-0.212,1.377-0.621,1.84-0.836
		C1235.111,1376.074,1233.737,1372.898,1232.302,1369.759z"/>
</g>
<g id="_x23_84a094ff">
	<path fill="#84A094" d="M1104.263,1159.199l-0.207,0.206c-1.854,1.862-3.671,3.762-5.48,5.681c0.419-0.035,1.258-0.104,1.677-0.139
		c9.5,12.185,18.544,24.755,28.577,36.532c6.307,7.57,12.957,14.845,19.512,22.203c-0.464,0.91-0.928,1.821-1.398,2.744
		c2.96-2.25,5.094-5.334,7.405-8.201c-2.979-3.923-4.031-9.099-7.659-12.501c-3.874-7.094-9.323-13.083-14.015-19.617
		c-2.129-1.948-3.914-4.214-5.748-6.417C1120.102,1172.098,1112.176,1165.607,1104.263,1159.199z"/>
	<path fill="#84A094" d="M511.372,1452.255c-15.969,10.457-30.703,22.696-45.433,34.814c-5.527,4.301-10.136,9.704-15.965,13.622
		c2.114,1.965,4.407,3.736,6.632,5.602c3.315-2.387,7.138-3.925,10.807-5.648c0.609-0.797,1.213-1.582,1.815-2.344
		c4.652-1.679,8.289-5.058,12.18-7.958c13.209-9.409,24.752-21.036,34.508-33.974
		C514.383,1455.015,512.842,1453.666,511.372,1452.255z"/>
</g>
<g id="_x23_97b2a7ff">
	<path fill="#97B2A7" d="M428.024,1484.465c-1.272-0.757-2.742-2.299-4.144-0.909c-10.291,6.982-20.741,13.738-31.345,20.233
		c-8.832,5.806-18.292,10.553-27.168,16.281c3.414,6.929,7.065,13.748,10.967,20.417c12.017-6.253,24.169-12.236,36.051-18.758
		c9.891-5.22,19.257-11.381,29.395-16.141C437.974,1498.087,432.892,1491.294,428.024,1484.465z"/>
	<path fill="#97B2A7" d="M1153.757,1232.872c-8.24,4.734-16.078,10.222-23.536,16.124c9.761,13.246,18.411,27.284,27.091,41.265
		c4.037,6.266,6.945,13.332,12.015,18.883c6.787-3.442,13.471-7.079,19.946-11.084c-9.135-16.176-16.893-33.103-26.633-48.939
		C1159.457,1243.83,1156.499,1238.402,1153.757,1232.872z"/>
</g>
<g id="_x23_97b2a6ff">
	<path fill="#97B2A6" d="M367.867,1547.474c-3.548-7.686-7.065-15.428-11.303-22.771c-15.417,7.765-31.359,14.405-47.19,21.259
		c-5.807,2.261-11.343,5.428-17.561,6.452c1.797,6.251,5.086,11.899,7.597,17.862c2.694,1.332,5.254,4.954,8.537,3.241
		C328.245,1565.604,347.603,1555.471,367.867,1547.474z"/>
	<path fill="#97B2A6" d="M1196.202,1307.473c-2.005,0.624-4.012,1.216-5.995,1.917c-5.603,2.49-10.98,5.416-16.318,8.435
		c5.533,12.991,11.869,25.646,17.258,38.708c3.906,8.566,8.006,17.105,10.866,26.099c5.388-2.02,10.657-4.349,15.848-6.839
		c1.903-2.186,3.914-4.319,5.347-6.85c-0.082-2.394-1.36-4.537-2.229-6.688C1212.871,1343.922,1204.527,1325.701,1196.202,1307.473z
		"/>
</g>
<g id="_x23_97b4a7ff">
	<path fill="#97B4A7" d="M294.737,1587.09c-4.298-10.484-8.66-20.94-13.322-31.26c-5.416,6.868-10.288,14.256-14.472,21.942
		c7.129,2.314,14.381,4.196,21.597,6.202c2.231,0.561,4.063,1.983,5.962,3.204L294.737,1587.09z"/>
	<path fill="#97B4A7" d="M1234.678,1380.083c-10.078,4.258-20.282,8.265-30.003,13.294c7.589,4.626,14.785,9.893,22.55,14.217
		C1229.54,1398.372,1232.615,1389.362,1234.678,1380.083z"/>
</g>
<g id="_x23_819c91ff">
	<path fill="#819C91" d="M441.781,1505.589c-10.138,4.76-19.505,10.921-29.395,16.141c-11.883,6.521-24.034,12.505-36.051,18.758
		c1.247,2.069,2.512,4.13,3.758,6.221c1.226-0.438,2.447-0.863,3.666-1.266c20.332-10.422,40.433-21.289,60.562-32.091
		C443.498,1510.746,442.709,1508.139,441.781,1505.589z"/>
	<path fill="#819C91" d="M1161.634,1230.632c-2.637,0.693-5.282,1.369-7.877,2.24c2.741,5.53,5.7,10.958,8.883,16.249
		c9.74,15.836,17.498,32.762,26.633,48.939c2.162-1.308,4.382-2.531,6.596-3.741
		C1184.641,1272.991,1173.332,1251.708,1161.634,1230.632z"/>
</g>
<g id="_x23_404f4a87">
	<path opacity="0.53" fill="#404F4A" enable-background="new    " d="M372.406,1551.058c-0.667,0.323-2.018,0.954-2.685,1.277
		c-21.412,10.69-43.02,20.964-64.942,30.566c-3.28,1.538-6.628,2.942-10.042,4.188l-0.234,0.087
		c-3.523,1.477-6.961,3.157-10.489,4.647c12.324-4.332,23.997-10.266,36.121-15.1C337.616,1568.3,355.515,1560.558,372.406,1551.058
		z"/>
</g>
</svg>
