<?xml version="1.0" encoding="utf-8"?>
<!-- Generator: Adobe Illustrator 16.0.0, SVG Export Plug-In . SVG Version: 6.00 Build 0)  -->
<!DOCTYPE svg PUBLIC "-//W3C//DTD SVG 1.1//EN" "http://www.w3.org/Graphics/SVG/1.1/DTD/svg11.dtd">
<svg version="1.1" xmlns="http://www.w3.org/2000/svg" xmlns:xlink="http://www.w3.org/1999/xlink" x="0px" y="0px" width="100px"
	 height="100px" viewBox="0 0 100 100" enable-background="new 0 0 100 100" xml:space="preserve">
<g id="Business_Registration">
	<g id="Isolation_Mode_1_">
	</g>
	<g id="Isolation_Mode">
	</g>
</g>
<g id="Company_Registration">
</g>
<g id="NCC">
	<polygon fill="#FFFFFF" stroke="#666666" stroke-miterlimit="10" points="78.5,19.5 78.5,92.5 18.5,92.5 18.5,7.5 70.8,7.5 	"/>
	<rect x="23.5" y="18.5" fill="#9AB3C1" stroke="#FFFFFF" stroke-miterlimit="10" width="49" height="16"/>
	<g>
		<rect x="23.5" y="37.5" fill="#9AB3C1" stroke="#FFFFFF" stroke-miterlimit="10" width="49" height="2"/>
		<rect x="23.5" y="40.5" fill="#9AB3C1" stroke="#FFFFFF" stroke-miterlimit="10" width="49" height="2"/>
		<rect x="23.5" y="43.5" fill="#9AB3C1" stroke="#FFFFFF" stroke-miterlimit="10" width="49" height="2"/>
		<rect x="23.5" y="46.5" fill="#9AB3C1" stroke="#FFFFFF" stroke-miterlimit="10" width="49" height="2"/>
		<rect x="23.5" y="49.5" fill="#9AB3C1" stroke="#FFFFFF" stroke-miterlimit="10" width="24" height="2"/>
	</g>
	<g>
		<rect x="23.5" y="70.5" fill="#9AB3C1" stroke="#FFFFFF" stroke-miterlimit="10" width="26" height="2"/>
		<rect x="23.5" y="73.5" fill="#9AB3C1" stroke="#FFFFFF" stroke-miterlimit="10" width="26" height="2"/>
		<rect x="23.5" y="76.5" fill="#9AB3C1" stroke="#FFFFFF" stroke-miterlimit="10" width="26" height="2"/>
		<rect x="23.5" y="79.5" fill="#9AB3C1" stroke="#FFFFFF" stroke-miterlimit="10" width="26" height="2"/>
	</g>
	<g>
		<g>
			<rect x="58.5" y="55.5" fill="#9AB3C1" stroke="#FFFFFF" stroke-miterlimit="10" width="14" height="2"/>
			<rect x="58.5" y="58.5" fill="#9AB3C1" stroke="#FFFFFF" stroke-miterlimit="10" width="14" height="2"/>
			<rect x="58.5" y="61.5" fill="#9AB3C1" stroke="#FFFFFF" stroke-miterlimit="10" width="14" height="2"/>
			<rect x="58.5" y="64.5" fill="#9AB3C1" stroke="#FFFFFF" stroke-miterlimit="10" width="14" height="2"/>
		</g>
		<g>
			<rect x="41.5" y="55.5" fill="#9AB3C1" stroke="#FFFFFF" stroke-miterlimit="10" width="14" height="2"/>
			<rect x="41.5" y="58.5" fill="#9AB3C1" stroke="#FFFFFF" stroke-miterlimit="10" width="14" height="2"/>
			<rect x="41.5" y="61.5" fill="#9AB3C1" stroke="#FFFFFF" stroke-miterlimit="10" width="14" height="2"/>
			<rect x="41.5" y="64.5" fill="#9AB3C1" stroke="#FFFFFF" stroke-miterlimit="10" width="14" height="2"/>
		</g>
		<g>
			<rect x="23.5" y="55.5" fill="#9AB3C1" stroke="#FFFFFF" stroke-miterlimit="10" width="14" height="2"/>
			<rect x="23.5" y="58.5" fill="#9AB3C1" stroke="#FFFFFF" stroke-miterlimit="10" width="14" height="2"/>
			<rect x="23.5" y="61.5" fill="#9AB3C1" stroke="#FFFFFF" stroke-miterlimit="10" width="14" height="2"/>
			<rect x="23.5" y="64.5" fill="#9AB3C1" stroke="#FFFFFF" stroke-miterlimit="10" width="14" height="2"/>
		</g>
	</g>
	<g>
		<polygon fill="#FBB03B" points="66.331,87.124 63.518,86.839 60.938,88 58.645,86.347 55.831,86.062 54.67,83.484 52.376,81.831 
			52.66,79.017 51.5,76.438 53.153,74.145 53.438,71.331 56.016,70.17 57.669,67.876 60.482,68.16 63.062,67 65.355,68.652 
			68.169,68.938 69.33,71.516 71.624,73.169 71.34,75.982 72.5,78.562 70.847,80.856 70.562,83.669 67.984,84.83 		"/>
		<polygon opacity="0.2" points="66.331,87.124 63.518,86.839 60.938,88 58.645,86.347 55.831,86.062 54.67,83.484 52.376,81.831 
			52.66,79.017 51.5,76.438 53.153,74.145 53.438,71.331 56.016,70.17 57.669,67.876 60.482,68.16 63.062,67 65.355,68.652 
			68.169,68.938 69.33,71.516 71.624,73.169 71.34,75.982 72.5,78.562 70.847,80.856 70.562,83.669 67.984,84.83 		"/>
	</g>
	
		<circle opacity="0.3" fill="none" stroke="#000000" stroke-width="0.239" stroke-miterlimit="10" cx="61.875" cy="77.5" r="7.769"/>
	<g>
		<g>
			<path fill="#FBB03B" d="M69.561,72.58l-0.381,0.29c-1.38,1.03-2.93,2.649-4.63,4.82c-1.7,2.18-3.021,4.239-3.909,6.119
				l-0.061,0.12l-0.84,0.57c-0.721,0.5-1.04,0.76-1.18,0.89l-0.601,0.57l-0.22-0.8c-0.061-0.2-0.2-0.62-0.551-1.47l-0.27-0.641
				c-0.38-0.88-0.73-1.53-1.05-1.939c-0.28-0.36-0.58-0.601-0.91-0.71L54.23,80.14l0.529-0.56c0.82-0.87,1.58-1.29,2.33-1.29
				c0.721,0,1.37,0.68,2.07,2.2c1.061-1.63,2.359-3.23,3.88-4.771c1.771-1.81,3.54-3.21,5.239-4.18l0.4-0.23L69.561,72.58z"/>
			<path opacity="0.2" d="M69.561,72.58l-0.381,0.29c-1.38,1.03-2.93,2.649-4.63,4.82c-1.7,2.18-3.021,4.239-3.909,6.119
				l-0.061,0.12l-0.84,0.57c-0.721,0.5-1.04,0.76-1.18,0.89l-0.601,0.57l-0.22-0.8c-0.061-0.2-0.2-0.62-0.551-1.47l-0.27-0.641
				c-0.38-0.88-0.73-1.53-1.05-1.939c-0.28-0.36-0.58-0.601-0.91-0.71L54.23,80.14l0.529-0.56c0.82-0.87,1.58-1.29,2.33-1.29
				c0.721,0,1.37,0.68,2.07,2.2c1.061-1.63,2.359-3.23,3.88-4.771c1.771-1.81,3.54-3.21,5.239-4.18l0.4-0.23L69.561,72.58z"/>
		</g>
		<g opacity="0.4">
			<g>
				<path d="M68.529,71.97c-1.67,0.95-3.389,2.32-5.139,4.101c-1.75,1.77-3.181,3.6-4.301,5.489l-0.311-0.689
					c-0.619-1.39-1.18-2.08-1.689-2.08c-0.6,0-1.25,0.38-1.97,1.13c0.43,0.15,0.81,0.44,1.149,0.88c0.34,0.45,0.711,1.13,1.11,2.061
					l0.271,0.64c0.289,0.71,0.479,1.22,0.57,1.53c0.219-0.21,0.629-0.521,1.239-0.94l0.729-0.5c0.91-1.92,2.23-3.99,3.971-6.21
					c1.73-2.21,3.3-3.85,4.72-4.91L68.529,71.97z"/>
				<path d="M68.68,71.31l-0.4,0.23c-1.699,0.97-3.469,2.37-5.239,4.18c-1.521,1.54-2.819,3.141-3.88,4.771
					c-0.7-1.521-1.35-2.2-2.07-2.2c-0.75,0-1.51,0.42-2.33,1.29l-0.529,0.56L54.96,80.4c0.33,0.109,0.63,0.35,0.91,0.71
					c0.319,0.409,0.67,1.06,1.05,1.939l0.27,0.641c0.351,0.85,0.49,1.27,0.551,1.47l0.22,0.8l0.601-0.57
					c0.14-0.13,0.459-0.39,1.18-0.89l0.84-0.57l0.061-0.12c0.889-1.88,2.209-3.939,3.909-6.119c1.7-2.171,3.25-3.79,4.63-4.82
					l0.381-0.29L68.68,71.31z M58.46,84.19c-0.09-0.261-0.21-0.551-0.351-0.891l-0.279-0.64c-0.41-0.97-0.79-1.68-1.16-2.16
					c-0.22-0.28-0.449-0.51-0.699-0.69c0.42-0.34,0.799-0.52,1.119-0.52c0,0,0.45,0.02,1.24,1.78l0.699,1.58l0.49-0.841
					c1.09-1.84,2.51-3.649,4.23-5.39c0.891-0.9,1.77-1.7,2.641-2.39c-0.841,0.859-1.721,1.88-2.631,3.05
					c-1.71,2.18-3.039,4.26-3.96,6.17l-0.63,0.43C58.9,83.87,58.66,84.04,58.46,84.19z"/>
			</g>
		</g>
	</g>
	<g>
		<path fill="#05334C" d="M17.805,61.078c0.481-0.375,1.229-0.844,2.12-1.305c1.086-0.562,1.931-0.791,2.671-0.639
			c0.625,0.119,1.128,0.504,1.476,1.178c0.478,0.924,0.146,1.906-0.365,2.461l0.017,0.031c0.617-0.057,1.146,0.275,1.68,0.852
			c0.661,0.721,1.373,1.562,1.66,1.773l-1.695,0.875c-0.215-0.148-0.709-0.65-1.381-1.445c-0.684-0.818-1.123-0.893-1.812-0.551
			l-0.489,0.254l1.489,2.877l-1.639,0.85L17.805,61.078z M21.067,63.367l0.652-0.336c0.826-0.428,1.101-1.094,0.77-1.734
			c-0.343-0.662-0.978-0.773-1.739-0.381c-0.402,0.209-0.619,0.348-0.722,0.443L21.067,63.367z"/>
		<path fill="#05334C" d="M30.727,59.609l-2.693,1.395l0.899,1.736l3.008-1.557l0.702,1.357l-4.659,2.412l-3.787-7.32l4.507-2.332
			l0.703,1.357l-2.856,1.479l0.786,1.52l2.693-1.393L30.727,59.609z"/>
		<path fill="#05334C" d="M39.711,58.459c-0.421,0.438-1.264,1.176-2.229,1.676c-1.336,0.691-2.477,0.855-3.482,0.562
			c-0.994-0.297-1.858-1.062-2.414-2.137c-1.248-2.439-0.197-4.746,2.203-5.986c0.945-0.49,1.768-0.682,2.211-0.703l0.344,1.516
			c-0.498,0.023-1.054,0.145-1.857,0.561c-1.379,0.715-2.029,2.041-1.208,3.627c0.787,1.52,2.198,1.904,3.555,1.203
			c0.37-0.191,0.651-0.391,0.754-0.514l-0.798-1.543l-1.13,0.586l-0.668-1.293l2.726-1.41L39.711,58.459z"/>
		<path fill="#05334C" d="M39.051,49.947l3.787,7.323l-1.651,0.854l-3.787-7.321L39.051,49.947z"/>
		<path fill="#05334C" d="M43.447,54.805c0.553,0.004,1.365-0.127,2.071-0.494c0.76-0.393,1-0.916,0.746-1.404
			c-0.229-0.445-0.717-0.537-1.755-0.385c-1.441,0.193-2.593-0.064-3.149-1.139c-0.646-1.249-0.081-2.739,1.635-3.627
			c0.836-0.432,1.518-0.578,2.059-0.598l0.316,1.517c-0.355,0.005-0.994,0.074-1.699,0.438c-0.718,0.371-0.891,0.888-0.699,1.257
			c0.241,0.467,0.749,0.465,1.896,0.34c1.539-0.191,2.484,0.174,3.024,1.217c0.636,1.227,0.24,2.752-1.77,3.793
			c-0.836,0.432-1.778,0.631-2.311,0.615L43.447,54.805z"/>
		<path fill="#05334C" d="M48.488,46.828l-1.978,1.023l-0.72-1.391l5.626-2.911l0.72,1.39l-1.999,1.034l3.068,5.93l-1.651,0.854
			L48.488,46.828z"/>
		<path fill="#05334C" d="M58.835,45.067l-2.692,1.394l0.898,1.738l3.008-1.557L60.752,48l-4.658,2.41l-3.787-7.319l4.506-2.332
			l0.703,1.358l-2.857,1.478l0.787,1.521l2.693-1.394L58.835,45.067z"/>
		<path fill="#05334C" d="M58.149,40.205c0.481-0.373,1.229-0.843,2.12-1.303c1.086-0.562,1.931-0.792,2.671-0.638
			c0.625,0.117,1.129,0.503,1.477,1.177c0.478,0.923,0.147,1.907-0.365,2.461l0.018,0.032c0.617-0.058,1.146,0.275,1.68,0.852
			c0.66,0.719,1.372,1.562,1.659,1.771l-1.695,0.877c-0.215-0.15-0.708-0.652-1.381-1.447c-0.685-0.816-1.123-0.892-1.812-0.549
			l-0.49,0.252l1.49,2.878l-1.641,0.849L58.149,40.205z M61.413,42.496l0.65-0.337c0.827-0.427,1.102-1.093,0.77-1.733
			c-0.342-0.663-0.978-0.774-1.738-0.381c-0.402,0.208-0.618,0.347-0.721,0.442L61.413,42.496z"/>
		<path fill="#05334C" d="M71.071,38.738l-2.692,1.393l0.899,1.738l3.008-1.556l0.702,1.358l-4.66,2.41l-3.786-7.32l4.507-2.332
			l0.703,1.357l-2.855,1.478l0.786,1.521l2.692-1.394L71.071,38.738z"/>
		<path fill="#05334C" d="M70.386,33.875c0.552-0.423,1.315-0.888,2.143-1.315c1.4-0.725,2.431-0.968,3.4-0.796
			c1.054,0.172,2.003,0.836,2.677,2.14c0.726,1.401,0.715,2.632,0.329,3.588c-0.44,1.04-1.467,1.957-2.899,2.698
			c-0.858,0.444-1.506,0.71-1.936,0.864L70.386,33.875z M75.121,38.984c0.158-0.041,0.396-0.165,0.593-0.266
			c1.515-0.77,2.076-2.106,1.171-3.855c-0.814-1.575-2.093-1.863-3.525-1.122c-0.359,0.186-0.592,0.347-0.716,0.453L75.121,38.984z"
			/>
	</g>
	<polygon fill="#FFFFFF" stroke="#666666" stroke-linejoin="bevel" stroke-miterlimit="10" points="78.5,19.5 70.5,19.5 70.5,7.5 
		70.5,7.5 	"/>
</g>
<g id="TCC">
</g>
<g id="Trademarking">
</g>
<g id="svg2">
</g>
</svg>
