<?xml version="1.0" encoding="utf-8"?>
<!-- Generator: Adobe Illustrator 16.0.0, SVG Export Plug-In . SVG Version: 6.00 Build 0)  -->
<!DOCTYPE svg PUBLIC "-//W3C//DTD SVG 1.1//EN" "http://www.w3.org/Graphics/SVG/1.1/DTD/svg11.dtd">
<svg version="1.1" xmlns="http://www.w3.org/2000/svg" xmlns:xlink="http://www.w3.org/1999/xlink" x="0px" y="0px" width="100px"
	 height="100px" viewBox="0 0 100 100" enable-background="new 0 0 100 100" xml:space="preserve">
<g id="Business_Registration">
	<g id="Isolation_Mode_1_">
	</g>
	<g id="Isolation_Mode">
	</g>
</g>
<g id="Company_Registration">
</g>
<g id="NCC">
</g>
<g id="TCC">
	<polygon fill="#FFFFFF" stroke="#666666" stroke-miterlimit="10" points="18.5,80.5 18.5,7.5 78.5,7.5 78.5,92.5 26.2,92.5 	"/>
	<rect x="23.5" y="18.5" fill="#9AB3C1" stroke="#FFFFFF" stroke-miterlimit="10" width="49" height="16"/>
	<g>
		<rect x="23.5" y="67.5" fill="#9AB3C1" stroke="#FFFFFF" stroke-miterlimit="10" width="26" height="2"/>
		<rect x="23.5" y="70.5" fill="#9AB3C1" stroke="#FFFFFF" stroke-miterlimit="10" width="26" height="2"/>
	</g>
	<g>
		<g>
			<rect x="65.5" y="39.5" fill="#9AB3C1" stroke="#FFFFFF" stroke-miterlimit="10" width="7" height="2"/>
			<rect x="65.5" y="45.5" fill="#9AB3C1" stroke="#FFFFFF" stroke-miterlimit="10" width="7" height="2"/>
			<rect x="65.5" y="51.5" fill="#9AB3C1" stroke="#FFFFFF" stroke-miterlimit="10" width="7" height="2"/>
			<rect x="65.5" y="57.5" fill="#9AB3C1" stroke="#FFFFFF" stroke-miterlimit="10" width="7" height="2"/>
		</g>
		<g>
			<rect x="23.5" y="39.5" fill="#9AB3C1" stroke="#FFFFFF" stroke-miterlimit="10" width="37" height="2"/>
			<rect x="23.5" y="45.5" fill="#9AB3C1" stroke="#FFFFFF" stroke-miterlimit="10" width="37" height="2"/>
			<rect x="23.5" y="51.5" fill="#9AB3C1" stroke="#FFFFFF" stroke-miterlimit="10" width="37" height="2"/>
			<rect x="23.5" y="57.5" fill="#9AB3C1" stroke="#FFFFFF" stroke-miterlimit="10" width="37" height="2"/>
		</g>
	</g>
	<g>
		<line fill="none" stroke="#666666" stroke-miterlimit="10" x1="24" y1="43.5" x2="72" y2="43.5"/>
		<line fill="none" stroke="#666666" stroke-miterlimit="10" x1="24" y1="49.5" x2="72" y2="49.5"/>
		<line fill="none" stroke="#666666" stroke-miterlimit="10" x1="63.5" y1="37" x2="63.5" y2="63"/>
		<line fill="none" stroke="#666666" stroke-miterlimit="10" x1="24" y1="55.5" x2="72" y2="55.5"/>
	</g>
	<g>
		<g>
			<g>
				<polygon fill="none" stroke="#FFFFFF" stroke-width="1.1725" stroke-miterlimit="10" points="66.471,89.039 61.942,88.564 
					57.792,90.5 54.101,87.744 49.572,87.271 47.703,82.974 44.012,80.219 44.469,75.527 42.602,71.231 45.263,67.408 45.72,62.719 
					49.869,60.783 52.529,56.961 57.058,57.434 61.208,55.5 64.899,58.254 69.428,58.729 71.297,63.026 74.988,65.781 
					74.531,70.471 76.398,74.769 73.737,78.594 73.28,83.281 69.131,85.217 				"/>
				<polygon fill="none" stroke="#FFFFFF" stroke-width="1.1725" stroke-miterlimit="10" points="66.471,89.039 61.942,88.564 
					57.792,90.5 54.101,87.744 49.572,87.271 47.703,82.974 44.012,80.219 44.469,75.527 42.602,71.231 45.263,67.408 45.72,62.719 
					49.869,60.783 52.529,56.961 57.058,57.434 61.208,55.5 64.899,58.254 69.428,58.729 71.297,63.026 74.988,65.781 
					74.531,70.471 76.398,74.769 73.737,78.594 73.28,83.281 69.131,85.217 				"/>
			</g>
			
				<ellipse fill="none" stroke="#FFFFFF" stroke-width="1.1725" stroke-miterlimit="10" cx="59.298" cy="73" rx="12.501" ry="12.947"/>
		</g>
		<g>
			<g opacity="0.3">
				<polygon fill="none" stroke="#FF0000" stroke-width="1.1725" stroke-miterlimit="10" points="66.471,89.039 61.942,88.564 
					57.792,90.5 54.101,87.744 49.572,87.271 47.703,82.974 44.012,80.219 44.469,75.527 42.602,71.231 45.263,67.408 45.72,62.719 
					49.869,60.783 52.529,56.961 57.058,57.434 61.208,55.5 64.899,58.254 69.428,58.729 71.297,63.026 74.988,65.781 
					74.531,70.471 76.398,74.769 73.737,78.594 73.28,83.281 69.131,85.217 				"/>
				<polygon opacity="0.2" fill="none" stroke="#FF0000" stroke-width="1.1725" stroke-miterlimit="10" points="66.471,89.039 
					61.942,88.564 57.792,90.5 54.101,87.744 49.572,87.271 47.703,82.974 44.012,80.219 44.469,75.527 42.602,71.231 
					45.263,67.408 45.72,62.719 49.869,60.783 52.529,56.961 57.058,57.434 61.208,55.5 64.899,58.254 69.428,58.729 71.297,63.026 
					74.988,65.781 74.531,70.471 76.398,74.769 73.737,78.594 73.28,83.281 69.131,85.217 				"/>
			</g>
			
				<ellipse opacity="0.3" fill="none" stroke="#FF0000" stroke-width="1.1725" stroke-miterlimit="10" cx="59.298" cy="73" rx="12.501" ry="12.947"/>
		</g>
		
			<text transform="matrix(0.6047 -0.324 0.3128 0.6262 47.584 84.3525)" fill="#FF0000" font-family="'Myriad-Bold'" font-size="21.324">paid</text>
	</g>
	<polygon fill="#FFFFFF" stroke="#666666" stroke-linejoin="bevel" stroke-miterlimit="10" points="18.5,80.5 26.5,80.5 26.5,92.5 
		26.5,92.5 	"/>
</g>
<g id="Trademarking">
</g>
<g id="svg2">
</g>
</svg>
