<?xml version="1.0" encoding="utf-8"?>
<!-- Generator: Adobe Illustrator 16.0.0, SVG Export Plug-In . SVG Version: 6.00 Build 0)  -->
<!DOCTYPE svg PUBLIC "-//W3C//DTD SVG 1.1//EN" "http://www.w3.org/Graphics/SVG/1.1/DTD/svg11.dtd">
<svg version="1.1" xmlns="http://www.w3.org/2000/svg" xmlns:xlink="http://www.w3.org/1999/xlink" x="0px" y="0px" width="100px"
	 height="100px" viewBox="0 0 100 100" enable-background="new 0 0 100 100" xml:space="preserve">
<g id="Business_Registration">
	<g id="Isolation_Mode_1_">
	</g>
	<g id="Isolation_Mode">
	</g>
</g>
<g id="Company_Registration">
	<g>
		<rect x="23" y="9" fill="#FCF5F0" stroke="#164A74" stroke-width="6" stroke-miterlimit="10" width="64" height="38"/>
		<polyline fill="none" stroke="#FF0000" stroke-width="1.4336" stroke-miterlimit="10" points="29.237,40.243 32.142,34.616 
			34.971,29.135 41.243,33.489 45.598,29.135 49.065,32.6 51.815,20.532 55.758,28.417 59.878,25.359 64.717,27.7 70.003,22.414 
			73.856,18.561 79.59,16.59 		"/>
	</g>
	<g>
		<path fill="#7F5739" d="M79.321,25.858c-0.886,0.871-1.561,2.069-1.118,1.634c0.471-0.462,2.229-2.33,2.229-1.452
			c0,1.748-3.475,5.102-4.422,4.82c-0.116-0.033-0.354-0.167-0.784,0.102l-2.452,2.008l-0.954-2.471l3.209-1.896
			c0.566-0.557,0.895-1.035,0.963-1.115c4.184-4.707,5.564-4.462,5.34-3.953C81.099,24.064,80.623,24.58,79.321,25.858z"/>
		<path fill="#7F5739" d="M53.674,51H42.847L42.15,39.084c0,0,2.726-0.398,3.244-1.06c0.476-0.607,0-3.024,0-3.024h6.176
			c0,0-0.647,2.554,0,2.962c0.65,0.411,2.779-0.774,2.779-0.774L53.674,51z"/>
		<g>
			<path fill="#7F5739" d="M57.472,30.225c-0.042,0.064-0.063,0.107-0.095,0.149c-0.021,0.021-0.021,0.032-0.032,0.043
				c-0.531,0.616-1.582,1.392-2.357,0.743c-1.126,2.761-3.335,5.172-6.521,5.172c0,0.042-1.072-0.095-1.688-0.297
				c-0.68-0.213-1.222-0.563-1.742-1.03c-1.157-1.021-1.858-2.454-2.432-3.845c-1.902,1.571-4.185-3.621-1.084-3.389
				c-0.042-0.105-0.074-0.222-0.095-0.328c-0.637-2.178,0.233-4.62,1.688-6.256c0.744-0.828,1.508-1.519,2.527-1.965
				c0.234-0.096,1.764-0.446,2.826-0.553c4.249-0.223,8.868,4.429,7.742,8.656c-0.042,0.148-0.011,0.298-0.063,0.445
				C57.398,27.677,58.259,29.237,57.472,30.225z"/>
			<path d="M53.65,15.341c0.053,0.999-0.659,1.939-1.826,2.618c-0.165-0.104-0.198-0.259-0.195-0.444
				c-0.233-0.009-0.468-0.031-0.701-0.019c0.077,0.286-0.008,0.532-0.394,0.66c-0.386,0.125-0.796,0.012-1.164-0.209
				c-0.355,0.259-0.751,0.415-1.161,0.33c-0.434-0.098-0.51-0.378-0.429-0.708c-0.257,0.027-0.5,0.053-0.731,0.088
				c0.064,0.308,0.005,0.575-0.393,0.701c-0.458,0.152-0.939,0.007-1.384-0.297C45.209,18.021,45.188,18,45.188,18h-0.012
				c0,0-0.085,0.338-0.325,0.452c-1.622-0.514-2.745-1.41-2.807-2.592c-0.06-1.148,0.877-2.17,2.361-2.86
				c0.088,0.031,0.163,0.092,0.213,0.132c0,0.008,0.012,0.02,0.013,0.033c0.069-0.097,0.199-0.184,0.353-0.284
				c0.437-0.308,1.237-0.24,1.534,0c0,0.015,0.024,0.015,0.024,0.022c0.068-0.096,0.211-0.189,0.34-0.288
				c0.332-0.23,0.858-0.243,1.231-0.141c0.349-0.14,0.862-0.167,1.203,0.015c0.14,0.086,0.291,0.163,0.394,0.25
				c-0.001-0.007,0.011-0.008,0.01-0.021c0.105-0.105,0.285-0.191,0.503-0.233C52.187,12.93,53.581,14.008,53.65,15.341z"/>
			<path d="M57.272,23.917c0.321,0.268-0.694,4.707-1.851,4.218c-0.259-0.125-0.192-3.216-0.196-3.268
				c-1.102-2.415-2.179-1.929-3.721-2.603c-0.525-0.253-0.259-0.65-0.979-0.979c-0.265-0.125-2.267,0.009-2.154-0.636
				c-0.574,0.044-0.694,0.432-1.342,0.566c-1.844,0.38,0.021,0.469-1.205,1.058c-1.072,0.493-0.068-0.435-0.979-0.009
				c-0.418,0.198-0.726,0.856-0.979,0.978c-1.053,0.449-1.435,0.467-1.86,2.407c0.133,0.077,0.135,2.373-0.098,2.485
				c-1.324,0.617-2.658-4.409-2.057-5.01c0.134-1.355,0.881-2.183,1.285-3.598c0.255-0.898,2.927-2.168,2.927-1.881
				c0.255-2.319,7.879-0.932,8.94-0.401C53.523,17.504,58.375,20.734,57.272,23.917C57.322,23.772,57.282,23.908,57.272,23.917z"/>
			<path fill="#3380C1" d="M43.143,17.61c0,0,0.862-0.981,4.794-1.248c3.933-0.266,4.885,0.592,4.885,0.592
				s-1.739-0.427-4.863-0.216C44.835,16.95,43.143,17.61,43.143,17.61z"/>
		</g>
		<path d="M45.192,26.687c0-0.587,0.238-1.062,0.531-1.062s0.531,0.476,0.531,1.062"/>
		<path d="M50.502,26.687c0-0.587,0.237-1.062,0.531-1.062c0.293,0,0.531,0.476,0.531,1.062"/>
		<path opacity="0.2" d="M47.433,28.972c0,0,0.199,0.663,1.062,0.663c0.863,0,1.062-0.663,1.062-0.663s-0.376,0.332-1.062,0.332
			S47.433,28.972,47.433,28.972z"/>
		<path opacity="0.2" d="M46.092,35.753c0,0,0.885,0.902,2.364,0.902c1.563,0,2.215-0.743,2.215-0.743s-0.799,0.413-2.205,0.42
			C46.986,36.34,46.092,35.753,46.092,35.753z"/>
		<g>
			<path fill="#FFFFFF" d="M48.601,53.707c0,0-4.205-12.897-3.975-13.003c0.112-0.052,1.969,1.236,3.726,1.222
				c1.817-0.014,3.534-1.328,3.534-1.328L48.601,53.707z"/>
		</g>
		<path fill="#3380C1" d="M35.034,49.497c0,3.19,5.436,10.125,5.436,10.125s-1.999,3.424-1.673,3.947
			c2.29,3.675,15.837,4.645,19.058-1.493c1.268-2.416-5.52-5.458-3.562-10.294c0.591-1.462,1.081-1.916,1.881-3.356
			c2.239-4.024,0.891-6.717,4.592-8.139c4.885-1.878,13.947-8.321,13.947-8.321l-1.342-2.635c0,0-8.619,4.669-13.883,5.856
			c-0.001,0-3.097,1.007-6.729,2.125c-0.737,1.449-4.628,14.639-4.628,14.639s-3.349-12.383-3.904-13.54
			C40.198,39.257,37.422,40,37.422,40S35.034,43.756,35.034,49.497z"/>
		<g opacity="0.2">
			<path d="M79.32,25.86c-0.88,0.87-1.56,2.07-1.12,1.63c0.47-0.46,2.23-2.33,2.23-1.45c0,1.75-3.47,5.1-4.42,4.82
				c-0.12-0.03-0.36-0.17-0.79,0.1l-0.72,0.59l0.21,0.42c0,0-9.06,6.44-13.94,8.32c-3.71,1.42-2.36,4.11-4.6,8.14
				c-0.8,1.44-1.29,1.89-1.88,3.35c-1.96,4.84,4.83,7.88,3.56,10.3c-1.6,3.06-5.79,4.35-9.85,4.41V12.46c0.04,0,0.08,0.01,0.12,0.02
				c0.34-0.15,0.86-0.17,1.2,0.01c0.14,0.09,0.29,0.16,0.39,0.25c0-0.01,0.01-0.01,0.01-0.02c0.11-0.11,0.29-0.19,0.51-0.24
				c1.96,0.45,3.35,1.53,3.42,2.86c0.03,0.66-0.27,1.29-0.81,1.84c0.07,0.03,0.12,0.05,0.16,0.07c0.52,0.25,5.18,3.44,4.15,6.61
				L57,23.87v0.01c0,0.01,0.13,0.03,0.13,0.04c0.24,0.2-0.22,2.83-0.99,3.85c1.22-0.04,2.07,1.49,1.3,2.45
				c-0.04,0.07-0.05,0.11-0.08,0.15c-0.02,0.03-0.01,0.04-0.03,0.05c-0.53,0.61-1.57,1.39-2.34,0.74c-0.73,1.79-1.54,3.45-3.54,4.37
				l-0.07,0.38c0,0.78-0.27,1.76,0.19,2.05c0.2,0.13,0.54,0.04,0.91,0.04h0.01c0.11,0,0.2-0.54,0.27-0.67
				c3.63-1.12,6.73-2.13,6.73-2.13c5.26-1.19,13.88-5.87,13.88-5.87l0.1,0.19l1.56-0.92c0.56-0.55,0.89-1.03,0.96-1.11
				c4.18-4.71,5.57-4.46,5.34-3.95C81.1,24.06,80.62,24.58,79.32,25.86z"/>
		</g>
		<path fill="#FFFFFF" d="M51.63,32c0,0-1.421,1.058-3.174,1.058c-1.753,0-3.175-1.058-3.175-1.058H51.63z"/>
	</g>
	<g>
		<path fill="#583617" d="M67.287,91.101C67.835,93.795,66.033,96,63.283,96H31.358c-2.75,0-4.552-2.205-4.003-4.899l5.939-29.201
			C33.842,59.205,36.54,57,39.29,57h16.061c2.75,0,5.448,2.205,5.997,4.899L67.287,91.101z"/>
	</g>
	<g>
		<path fill="#583617" d="M67.287,91.101C67.835,93.795,66.033,96,63.283,96H31.358c-2.75,0-4.552-2.205-4.003-4.899l5.939-29.201
			C33.842,59.205,36.54,57,39.29,57h16.061c2.75,0,5.448,2.205,5.997,4.899L67.287,91.101z"/>
		<path opacity="0.2" d="M63.28,96H48V57h7.35c2.75,0,5.45,2.21,6,4.9L67.29,91.1C67.83,93.79,66.03,96,63.28,96z"/>
	</g>
	<g>
		<rect x="23" y="55" fill="#C69C6D" width="6" height="5"/>
		<g>
			<path fill="#C69C6D" d="M33.896,51.885c-0.056,0.054-0.087,0.09-0.128,0.124c-0.025,0.016-0.028,0.026-0.041,0.033
				c-0.66,0.477-1.863,0.984-2.466,0.174c-1.738,2.423-4.448,4.253-7.547,3.511c-0.01,0.041-1.021-0.343-1.573-0.682
				c-0.611-0.366-1.057-0.833-1.454-1.408c-0.888-1.262-1.236-2.819-1.469-4.306c-2.215,1.085-3.225-4.497-0.264-3.547
				c-0.016-0.113-0.02-0.234-0.017-0.343c-0.112-2.266,1.304-4.438,3.1-5.689c0.917-0.633,1.82-1.125,2.916-1.322
				c0.25-0.038,1.819-0.023,2.876,0.12c4.184,0.773,7.592,6.375,5.513,10.223c-0.076,0.135-0.08,0.287-0.166,0.419
				C34.418,49.391,34.891,51.108,33.896,51.885z"/>
			<path fill="#351C09" d="M35.061,48.972c0.212,0.279-0.407,0.823-0.628,1.005l-0.19-0.026c-0.039,0.08,0,0-0.069,0.047
				c0.004,0.014,0.016,0.018,0.019,0.03c0.219,0.281,0.099,0.78-0.13,0.965c-0.101,0.079-0.227,0.125-0.35,0.107
				c-0.005,0.024-0.013,0.028-0.019,0.053c-0.006,0.023-0.027,0.058-0.05,0.077c0.05,0.189,0.013,0.396-0.08,0.547
				c-0.016,0.167-0.069,0.364-0.157,0.57c-0.15,0.391-0.563,0.47-0.757,0.271l-0.003-0.014c-0.026,0.107-0.073,0.224-0.123,0.352
				c-0.087,0.208-0.244,0.329-0.396,0.356c0.003,0.013,0.012,0.027,0.016,0.041c0.129,0.361-0.12,0.79-0.383,0.88
				c-0.083,0.031-0.17,0.023-0.254-0.022c-0.019,0.16-0.083,0.348-0.158,0.527c-0.126,0.312-0.412,0.421-0.62,0.359
				c-0.05,0.052-0.11,0.088-0.172,0.11c-0.2,0.066-0.428-0.07-0.518-0.302c-0.033,0.005-0.06,0.012-0.087-0.008
				c-0.035,0.118-0.124,0.25-0.232,0.357c0.009,0.015,0.012,0.028,0.021,0.043c0.124,0.359-0.125,0.789-0.388,0.878
				c-0.23,0.085-0.525-0.112-0.55-0.462c-0.077,0.135-0.187,0.223-0.291,0.261c-0.173,0.06-0.357-0.021-0.464-0.212
				c-0.048,0.229-0.226,0.44-0.444,0.637c-0.283,0.25-0.635,0.051-0.707-0.259c-0.003-0.014-0.001-0.025,0.001-0.031
				c-0.07,0.079-0.15,0.174-0.245,0.253c-0.282,0.25-0.635,0.051-0.707-0.258c-0.003-0.014,0-0.026,0.003-0.038
				c-0.071,0.084-0.151,0.18-0.247,0.259c-0.287,0.242-0.634,0.051-0.707-0.259c0.003-0.013-0.009-0.015-0.006-0.026
				c-0.065,0.085-0.154,0.165-0.242,0.239c-0.208,0.181-0.455,0.121-0.585-0.051c-0.206,0.091-0.461,0.042-0.568-0.225
				c-0.044-0.105-0.088-0.218-0.101-0.323c-0.003,0.013-0.009,0.011-0.012,0.023c-0.204,0.243-0.607,0.255-0.747-0.09
				c-0.049-0.113-0.092-0.226-0.105-0.33c-0.003,0.012-0.009,0.01-0.012,0.022c-0.204,0.243-0.608,0.261-0.747-0.09
				c-0.049-0.114-0.08-0.223-0.105-0.33c-0.003,0.012-0.015,0.009-0.018,0.021c-0.204,0.243-0.602,0.263-0.74-0.088
				c-0.112-0.275-0.181-0.546-0.108-0.77c-0.188,0.121-0.395,0.108-0.521-0.022c-0.106-0.115-0.162-0.331-0.129-0.546
				c-0.006,0.023-0.017,0.047-0.024,0.07c-0.159,0.375-0.566,0.455-0.759,0.257c-0.188-0.197-0.215-0.693,0.052-0.959
				c0.015-0.011,0.024-0.02,0.039-0.03c-0.054-0.146-0.073-0.303-0.042-0.436c-0.018-0.004-0.047-0.011-0.06-0.039
				c-0.192,0.189-0.469,0.205-0.623,0.054c-0.039-0.048-0.07-0.104-0.098-0.176c-0.213-0.038-0.422-0.254-0.395-0.603
				c0.014-0.192,0.042-0.39,0.098-0.541c-0.097,0.002-0.177-0.03-0.238-0.096c-0.188-0.198-0.215-0.692,0.058-0.958
				c0.009-0.011,0.027-0.032,0.036-0.042c-0.13-0.095-0.217-0.262-0.195-0.485c0.013-0.136,0.036-0.258,0.062-0.365
				c-0.012-0.003-0.015,0.009-0.021,0.007c-0.269,0.088-0.583-0.165-0.552-0.583c0.019-0.237,0.061-0.442,0.124-0.6
				c-0.005-0.191,0.057-0.392,0.199-0.536c0.033-0.03,0.073-0.065,0.105-0.095c-0.159-0.001-0.329-0.111-0.398-0.274
				c-0.12-0.27,0-0.769,0.316-0.922c0.015-0.008,0.035-0.016,0.047-0.013c-0.045-0.074-0.064-0.156-0.068-0.244l-0.009-0.016
				c-0.092-0.2-0.042-0.538,0.123-0.752c0.015-0.111,0.036-0.227,0.074-0.332c-0.124-0.093-0.273-0.186-0.322-0.3
				c-0.08-0.171-0.02-0.452,0.135-0.644C17.943,43.673,18,43.623,18,43.562v-0.006c0-0.117,0.117-0.216,0.151-0.304
				c-0.001-0.02,0.047-0.057,0.043-0.097c-0.003-0.197,0.036-0.266,0.133-0.458c-0.098-0.125-0.246-0.388-0.23-0.638
				c0.017-0.174,0.126-0.315,0.263-0.385c-0.012-0.002-0.025-0.013-0.034-0.027c-0.235-0.234-0.139-0.637,0.084-0.774l0.015-0.003
				c0.047-0.065,0.096-0.11,0.168-0.145c-0.013-0.002-0.028-0.014-0.038-0.027c-0.234-0.241-0.139-0.638,0.083-0.774
				c0.136-0.088,0.34-0.09,0.495-0.021c-0.022-0.037-0.044-0.08-0.067-0.117c-0.07-0.156-0.043-0.322,0.039-0.454
				c0.002-0.14,0.053-0.299,0.132-0.471c0.144-0.309,0.548-0.353,0.76-0.18c0.012,0.003,0.011,0.009,0.017,0.011
				c0.02-0.085,0.055-0.178,0.097-0.275c0.072-0.167,0.219-0.253,0.387-0.264c-0.011-0.008-0.011-0.034-0.021-0.043
				c-0.139-0.293,0.088-0.632,0.343-0.691c0.087-0.018,0.174-0.01,0.266,0.031c0.011-0.125,0.066-0.276,0.132-0.419
				c0.117-0.252,0.405-0.316,0.626-0.256c0.046-0.034,0.104-0.064,0.158-0.078c0.213-0.044,0.463,0.08,0.564,0.295
				c0.022-0.014,0.053-0.007,0.07-0.003c0.026-0.107,0.113-0.207,0.222-0.289c-0.009-0.016-0.014-0.022-0.023-0.037
				c-0.139-0.294,0.094-0.632,0.349-0.691c0.262-0.058,0.615,0.166,0.604,0.5c-0.004,0.019-0.003,0.038-0.007,0.056
				c0.059-0.163,0.204-0.294,0.352-0.328c0.167-0.036,0.372,0.039,0.498,0.202c0.025-0.185,0.203-0.345,0.417-0.497
				c0.278-0.182,0.648-0.004,0.735,0.246c-0.003,0.012,0.01,0.014,0.007,0.026c0.066-0.065,0.145-0.13,0.234-0.185
				c0.279-0.188,0.65-0.011,0.741,0.246c-0.002,0.007,0.004,0.008,0.001,0.021c0.054-0.069,0.138-0.126,0.235-0.185
				c0.28-0.188,0.648-0.004,0.735,0.245c-0.003,0.013,0.009,0.015,0.008,0.021c0.055-0.069,0.144-0.125,0.229-0.186
				c0.211-0.141,0.466-0.066,0.622,0.079c0.199-0.061,0.451,0,0.573,0.207c0.047,0.093,0.102,0.183,0.131,0.272
				c0.002-0.006,0.007-0.004,0.01-0.016c0.196-0.183,0.608-0.18,0.767,0.112c0.06,0.098,0.1,0.195,0.13,0.279
				c0.001-0.005,0.004-0.018,0.012-0.022c0.197-0.188,0.608-0.178,0.767,0.114c0.061,0.091,0.095,0.188,0.124,0.277
				c0.001-0.006,0.004-0.019,0.02-0.027c0.196-0.182,0.606-0.173,0.767,0.114c0.128,0.233,0.202,0.455,0.153,0.634
				c0.18-0.09,0.384-0.067,0.523,0.043c0.084,0.07,0.148,0.175,0.169,0.301c0.169-0.233,0.522-0.243,0.708-0.092
				c0.207,0.17,0.262,0.577-0.007,0.773c-0.009,0.011-0.022,0.014-0.031,0.024c0.048,0.119,0.081,0.248,0.063,0.346
				c0.033-0.005,0.06,0.015,0.087,0.032c0.177-0.128,0.45-0.127,0.609,0.007c0.054,0.038,0.092,0.092,0.118,0.143
				c0.223,0.048,0.444,0.24,0.43,0.51c-0.005,0.158-0.025,0.318-0.072,0.434c0.101,0.006,0.182,0.036,0.251,0.092
				c0.213,0.172,0.263,0.577-0.001,0.775c-0.013,0.002-0.029,0.012-0.038,0.021c0.127,0.081,0.224,0.232,0.218,0.415
				c0,0.107-0.005,0.207-0.025,0.292l0.007-0.004c0.268-0.058,0.614,0.166,0.597,0.504c-0.004,0.177-0.031,0.343-0.091,0.461
				c0.028,0.146-0.023,0.306-0.151,0.415c0.014,0.022,0.019,0.056,0.014,0.074c-0.004,0.017,0.005,0.032,0.001,0.05
				c0.117,0.042,0.218,0.122,0.277,0.22c0.137,0.223,0.042,0.62-0.276,0.727c-0.015,0.01-0.021,0.009-0.034,0.012
				c0.049,0.062,0.081,0.14,0.083,0.21l0.003,0.014c0.108,0.185,0.063,0.479-0.131,0.63c0.082,0.134,0.125,0.303,0.097,0.524
				c-0.028,0.247-0.171,0.423-0.327,0.513c0.068,0.169,0.067,0.409,0.042,0.676c-0.011,0.099-0.031,0.184-0.082,0.26
				c0.244,0.071,0.268,0.446,0.229,0.875c-0.028,0.221-0.134,0.399-0.277,0.492C35.045,48.955,35.051,48.956,35.061,48.972z"/>
		</g>
		<path fill="#495259" d="M29.862,78.771l-1.542,7.585c0,0-3.903,0.394-8.491-8.612c-1.154-2.266-2.749-6.572-3.182-9.487
			c-0.787-5.293-0.122-6.338,0.471-7.257c0.908-1.41,1.306-2.524,4.956-3.303c0.686-0.148,1.47,1.204,3.94,1.235
			c2.261-0.031,3.174-1.384,3.866-1.235c3.65,0.778,4.756,1.576,5.89,2.71c1.269,1.27,1.129,5.772,1.129,11.065
			C36.898,74.419,29.862,78.771,29.862,78.771z"/>
		<g opacity="0.2">
			<path d="M36.9,71.47c0,2.95-7.04,7.3-7.04,7.3l-1.54,7.591c0,0-0.89,0.09-2.32-0.801v-49.5c0.05-0.02,0.1-0.05,0.14-0.07
				C26.42,35.8,27,35.98,27,36.24c0.01-0.06,0.04-0.12,0.12-0.17c0.27-0.18,0.59,0,0.68,0.25c0.04-0.06,0.11-0.12,0.19-0.17
				c0.21-0.14,0.46-0.06,0.62,0.08c0.2-0.06,0.44,0,0.56,0.21c0.05,0.09,0.1,0.18,0.13,0.27c0,0,0.01,0,0.01-0.01
				c0.2-0.19,0.61-0.18,0.77,0.11c0.06,0.1,0.1,0.19,0.13,0.28c0-0.01,0-0.02,0.01-0.02c0.2-0.19,0.61-0.18,0.77,0.11
				c0.06,0.09,0.09,0.19,0.12,0.28c0-0.01,0.01-0.02,0.02-0.03c0.2-0.18,0.61-0.17,0.77,0.11c0.13,0.24,0.2,0.46,0.15,0.64
				c0.18-0.09,0.39-0.07,0.52,0.04c0.09,0.07,0.15,0.18,0.17,0.3c0.17-0.23,0.53-0.24,0.71-0.09c0.21,0.17,0.26,0.58-0.01,0.77
				c0,0.01-0.02,0.02-0.03,0.03c0.05,0.12,0.08,0.25,0.07,0.34c0.03,0,0.06,0.02,0.08,0.04c0.18-0.13,0.45-0.13,0.61,0
				c0.06,0.04,0.09,0.1,0.12,0.15c0.22,0.04,0.44,0.24,0.43,0.51c-0.01,0.15-0.03,0.31-0.07,0.43c0.1,0.01,0.18,0.04,0.25,0.09
				c0.21,0.17,0.26,0.58,0,0.78c-0.02,0-0.03,0.01-0.04,0.02c0.13,0.08,0.22,0.08,0.22,0.26c0,0.08-0.01,0.13-0.02,0.15
				c0.27,0,0.61,0.31,0.6,0.65c-0.01,0.18-0.03,0.42-0.09,0.54c0.02,0.14-0.24,0.33-0.36,0.44c0,0.02-0.21,0.1-0.21,0.12v0.04
				c1,0.05,0.43,0.13,0.5,0.22c0.13,0.23,0.14,0.62-0.18,0.73c-0.01,0.01-0.2,0.01-0.21,0.01c0.05,0.07-0.11,0.14-0.11,0.21v0.02
				c1,0.18,0.31,0.48,0.11,0.63c0.08,0.13,0.25,0.3,0.22,0.52c-0.03,0.25-0.11,0.42-0.27,0.51c0.07,0.17,0.1,0.41,0.07,0.68
				c-0.01,0.1-0.02,0.18-0.07,0.26c0.25,0.07,0.28,0.45,0.24,0.87c-0.03,0.22-0.12,0.4-0.27,0.5c0.01,0.01,0.02,0.01,0.03,0.02
				c0.21,0.28-0.41,0.82-0.63,1.01l-0.19-0.03c-0.01,0.01-0.01,0.02-0.01,0.02c0.33,0.62,0.27,1.44-0.33,1.91
				c-0.06,0.061-0.09,0.09-0.13,0.13c-0.03,0.01-0.03,0.03-0.04,0.03c-0.09,0.06-0.18,0.13-0.28,0.18
				c-0.01,0.04,0.16,0.08,0.13,0.13C33.43,52.74,33,52.82,33,52.62c-0.03,0.11-0.25,0.22-0.3,0.34c-0.08,0.2-0.33,0.33-0.48,0.35
				c0,0.021-0.04,0.03-0.04,0.04c0.13,0.36-0.14,0.79-0.4,0.881c-0.08,0.029-0.18,0.029-0.26-0.021c-0.02,0.16-0.09,0.35-0.16,0.53
				c-0.13,0.31-0.42,0.42-0.63,0.359c-0.05,0.051-0.11,0.091-0.17,0.11c-0.2,0.06-0.43-0.07-0.52-0.3c-0.04,0-0.06,0.01-0.09-0.01
				c-0.03,0.119-0.12,0.25-0.23,0.359c0.01,0.01,0.01,0.021,0.02,0.04c0.12,0.36-0.13,0.79-0.39,0.88
				C29.23,56.22,29.1,56.19,29,56.1v1.891c0.36-0.2,0.63-0.34,0.88-0.29c3.65,0.78,4.76,1.569,5.89,2.71
				C37.04,61.68,36.9,66.18,36.9,71.47z"/>
			<path d="M18.34,41.7c0,0,0,0.01-0.01,0.01l-0.01-0.01C18.33,41.7,18.33,41.69,18.34,41.7z"/>
		</g>
	</g>
	<g>
		<path fill="#4F4562" d="M66.683,88.133l0.729,3.584c0,0,3.027-2.665,4.171-4.217c1.494-2.027,4.055-6.544,4.487-9.458
			c0.787-5.293,0.122-6.29-0.471-7.21c-0.908-1.41-1.306-2.499-4.956-3.277c-0.686-0.148-1.47,1.217-3.94,1.248
			c-2.261-0.031-3.175-1.378-3.866-1.229c-3.65,0.778-4.756,1.579-5.89,2.713c-1.269,1.269-1.129,5.677-1.129,10.97
			C55.818,84.202,66.683,88.133,66.683,88.133z"/>
		<g>
			<path fill="#6C421E" d="M76.383,60.487c-0.042,0.064-0.063,0.107-0.095,0.149c-0.021,0.021-0.021,0.032-0.032,0.043
				c-0.531,0.616-1.583,1.391-2.357,0.743c-1.126,2.761-3.335,5.172-6.521,5.172c0,0.042-1.072-0.095-1.688-0.297
				c-0.68-0.213-1.222-0.563-1.742-1.03c-1.157-1.021-1.858-2.454-2.432-3.845c-1.902,1.571-4.185-3.622-1.084-3.389
				c-0.042-0.105-0.074-0.222-0.095-0.328c-0.637-2.178,0.233-4.62,1.688-6.256c0.744-0.829,1.508-1.519,2.527-1.965
				c0.234-0.096,1.763-0.446,2.826-0.553c4.248-0.223,8.868,4.429,7.742,8.656c-0.042,0.148-0.011,0.298-0.063,0.445
				C76.309,57.939,77.169,59.5,76.383,60.487z"/>
			<path fill="#231204" d="M75.685,58.177c-0.042,0.716-0.703,12.048-1.199,10.822c-0.319-0.79-4.896,0.455-7.711,1.161
				c-2.166,0.544-3.159-2.411-3.551-2.315c-2.547,0.617-3.227-8.278-4.117-13.222c0.145-2.115,0.536-2.183,0.939-3.598
				c0.255-0.898,2.927-2.169,2.927-1.882c0.255-2.318,7.879-0.931,8.94-0.4C73.38,49.472,76.041,52.173,75.685,58.177z"/>
		</g>
		<g opacity="0.2">
			<g>
				<path d="M75.6,70.83c0.59,0.92,1.26,1.92,0.47,7.21c-0.43,2.92-2.99,7.43-4.49,9.46c-0.38,0.52-0.96,1.16-1.58,1.78
					c-0.73,0.729-1.49,1.439-2,1.91V47.95c0.71,0.07,1.4,0.18,2,0.29c0.92,0.17,1.64,0.36,1.91,0.5c1.47,0.73,4.12,3.42,3.78,9.41
					c0.88,0.34,1.34,1.529,0.69,2.34c-0.04,0.06-0.06,0.1-0.09,0.149c-0.02,0.021-0.02,0.03-0.03,0.04
					c-0.2,0.23-0.47,0.48-0.78,0.67c-0.24,3.49-0.66,8.48-0.99,7.65c-0.06-0.15-0.28-0.22-0.6-0.24
					C74.74,69.35,75.09,70.04,75.6,70.83z"/>
			</g>
		</g>
	</g>
</g>
<g id="NCC">
</g>
<g id="TCC">
</g>
<g id="Trademarking">
</g>
<g id="svg2">
</g>
</svg>
