<?xml version="1.0" encoding="utf-8"?>
<!-- Generator: Adobe Illustrator 16.0.0, SVG Export Plug-In . SVG Version: 6.00 Build 0)  -->
<!DOCTYPE svg PUBLIC "-//W3C//DTD SVG 1.1//EN" "http://www.w3.org/Graphics/SVG/1.1/DTD/svg11.dtd">
<svg version="1.1" xmlns="http://www.w3.org/2000/svg" xmlns:xlink="http://www.w3.org/1999/xlink" x="0px" y="0px" width="100px"
	 height="100px" viewBox="0 0 100 100" enable-background="new 0 0 100 100" xml:space="preserve">
<g id="Business_Registration">
	<rect x="71" y="43" fill="#6C421E" width="10" height="9"/>
	<rect x="75.974" y="43.86" opacity="0.1" width="5.026" height="8.598"/>
	<path fill="#6C421E" d="M28.04,31.327c-1.577-2.061,3.224-5.594,8.558,3.122c0.334,0.546,0.593,3.455-0.981,3.929
		c-1.393,0.421-7.577-3.504-7.577-6.118c0-1.307,4.353,2.418,4.353,1.085c0-0.926,0.196-2.437-1.639-2.437
		C29.479,30.909,28.557,32.004,28.04,31.327z"/>
	<g>
		<path fill="#6C421E" d="M90.557,35.588c-0.069,0.104-0.103,0.172-0.154,0.241c-0.035,0.035-0.035,0.051-0.052,0.069
			c-0.86,0.998-2.562,2.253-3.817,1.203c-1.823,4.471-5.4,8.375-10.559,8.375c0,0.069-1.736-0.154-2.733-0.48
			c-1.101-0.344-1.979-0.912-2.821-1.668c-1.874-1.651-3.009-3.973-3.938-6.226c-3.079,2.545-6.775-5.863-1.755-5.485
			c-0.068-0.172-0.12-0.361-0.154-0.533c-1.032-3.525,0.378-7.48,2.734-10.128c1.205-1.342,2.442-2.459,4.092-3.182
			c0.379-0.154,2.855-0.722,4.575-0.894c6.879-0.361,14.359,7.17,12.536,14.015c-0.069,0.241-0.018,0.482-0.103,0.722
			C90.437,31.462,91.83,33.989,90.557,35.588z"/>
		<path d="M90.232,25.374c0.19,0.16,0.301,0.414,0.254,0.698c-0.096,0.554-0.287,1.013-0.714,1.029
			c0.048,0.111,0.048,0.223,0.032,0.35c-0.065,0.348-0.16,0.649-0.334,0.839c0.222,0.159,0.396,0.427,0.334,0.745
			c-0.096,0.523-0.271,0.965-0.666,1.03c0.047,0.585-0.065,1.268-0.319,1.631c-0.365,0.491-0.697,0.761-0.935,0.396
			c-0.206,0.158-0.429,0.206-0.65,0.112c-0.397-0.19-0.397-0.683-0.285-1.236c0.031-0.159,0.11-0.285,0.222-0.381
			c-0.031-0.031-0.064-0.046-0.08-0.079c-0.047-0.031-0.063-0.094-0.095-0.142c-0.016-0.016-0.016-0.033-0.032-0.049
			c-0.08-0.173-0.096-0.427-0.048-0.713c-0.016-0.063,0-0.142,0.016-0.206l0.017-0.016c0.015-0.111,0.047-0.189,0.11-0.253
			c0-0.015,0-0.015,0.017-0.031c0.095-0.302,0.284-0.538,0.508-0.666c-0.128-0.349-0.286-0.713-0.461-1.077
			c-0.126-0.111-0.19-0.254-0.206-0.443c-0.174-0.38-0.38-0.76-0.618-1.141c-0.206,0.143-0.428,0.19-0.65,0.096
			c-0.396-0.19-0.396-0.683-0.286-1.236c0.016-0.064,0.033-0.112,0.065-0.158c-0.144-0.19-0.286-0.364-0.427-0.541
			c-0.287,0.317-0.619,0.492-0.937,0.35c-0.396-0.19-0.396-0.682-0.285-1.236c0.016-0.094,0.063-0.174,0.127-0.253
			c-0.159-0.143-0.333-0.285-0.508-0.427c-0.285,0.299-0.603,0.476-0.92,0.333c-0.27-0.126-0.365-0.396-0.348-0.746
			c-0.017,0.063-0.049,0.111-0.096,0.175c-0.349,0.444-0.745,0.745-1.142,0.571c-0.396-0.19-0.396-0.682-0.284-1.236
			c0.031-0.158,0.11-0.285,0.222-0.381c-0.112-0.079-0.191-0.173-0.222-0.3c-0.096-0.048-0.191-0.08-0.287-0.11
			c-0.3,0.38-0.666,0.602-1.014,0.443c-0.301-0.142-0.365-0.443-0.348-0.825c-0.191-0.031-0.382-0.078-0.571-0.078
			c0.048,0.411-0.032,0.744-0.35,0.903c-0.317,0.143-0.649-0.047-0.934-0.38c-0.302,0.333-0.635,0.523-0.969,0.38
			c-0.349-0.173-0.396-0.57-0.316-1.029c-0.207,0.015-0.413,0.032-0.603,0.063c0.047,0.443-0.017,0.808-0.35,0.966
			c-0.379,0.174-0.776,0.688-1.126,0.229C73.695,21.28,73.663,22,73.663,22h-0.016c0,0-0.096-0.198-0.364-0.071
			c-0.334,0.125-0.666-0.455-0.952-0.804c-0.143,0.047-0.27-0.132-0.365-0.101c-0.047,0.111-0.111,0.101-0.206,0.148
			c0.111,0.095,0.206,0.177,0.237,0.335c0.113,0.556,0.096,1.031-0.301,1.221c-0.38,0.175-0.776-0.149-1.126-0.593
			c-0.048-0.063-0.079-0.115-0.095-0.179c0,0.333-0.095,0.618-0.365,0.744c-0.301,0.143-0.618-0.034-0.903-0.333
			c-0.159,0.143-0.317,0.284-0.492,0.442c0.064,0.063,0.096,0.158,0.112,0.237c0.111,0.554,0.095,1.046-0.303,1.236
			c-0.332,0.142-0.665-0.048-0.965-0.396c-0.08,0.078-0.158,0.158-0.237,0.236c-0.081,0.08-0.144,0.159-0.207,0.238
			c0.063,0.079,0.111,0.174,0.126,0.269c0.112,0.553,0.095,1.045-0.301,1.236c-0.27,0.127-0.428,0-0.619-0.238
			c-0.365,0.777-0.618,1.68-0.809,2.55c0.19,0.111,0.333,0.317,0.365,0.617c0.047,0.571,0.015,1.094-0.207,1.442
			c-0.016,0.031-0.031,0.048-0.031,0.063c-0.016,0.079-0.063,0.158-0.127,0.191c-0.032,0.031-0.063,0.063-0.095,0.078
			c0.111,0.096,0.206,0.238,0.238,0.397c0.111,0.553,0.095,1.045-0.301,1.236c-0.27,0.126-0.556,0-0.809-0.254
			c-0.317,0.522-0.761,0.27-1.222-0.206c-0.364-0.38-0.413-1.267-0.239-1.916c-0.142-0.19-0.361,0.029-0.53-0.548
			c-0.256-0.886,0.262-0.974,0.355-1.117c-0.189-0.159-0.215-0.104-0.3-0.419c-0.083-0.308-0.083-0.423,0-0.767
			c-0.206-0.159-0.554-0.507-0.619-0.903c-0.047-0.284,0.065-0.539,0.254-0.698c-0.016,0-0.047-0.015-0.063-0.031
			c-0.459-0.286-0.459-0.951-0.158-1.251l0.017-0.015c0.047-0.113,0.111-0.208,0.205-0.287c-0.016,0-0.047-0.015-0.063-0.031
			c-0.459-0.287-0.459-0.951-0.158-1.251c0.175-0.19,0.492-0.27,0.761-0.223c-0.047-0.046-0.095-0.109-0.143-0.158
			c-0.174-0.221-0.191-0.491-0.111-0.728c-0.047-0.222-0.031-0.491,0.032-0.793c0.11-0.538,0.729-0.759,1.126-0.57
			c0.015,0,0.015,0.017,0.031,0.017c0-0.145,0.016-0.301,0.047-0.477c0.048-0.285,0.254-0.475,0.508-0.553
			c-0.015-0.016-0.031-0.048-0.047-0.063c-0.333-0.412-0.096-1.03,0.286-1.219c0.126-0.063,0.27-0.08,0.428-0.048
			c-0.032-0.206,0-0.46,0.047-0.713c0.095-0.444,0.523-0.65,0.889-0.635c0.062-0.079,0.143-0.142,0.222-0.188
			c0.317-0.145,0.762-0.047,0.999,0.253c0.032-0.031,0.079-0.031,0.111-0.031c0-0.176,0.096-0.367,0.238-0.539
			c-0.016-0.015-0.032-0.032-0.047-0.047c-0.333-0.412-0.095-1.031,0.284-1.219c0.396-0.19,1.03,0.031,1.142,0.553
			c0,0.03,0.016,0.064,0.016,0.095c0.031-0.285,0.206-0.539,0.428-0.648c0.253-0.127,0.603-0.081,0.856,0.126
			c-0.032-0.301,0.189-0.618,0.476-0.935c0.364-0.396,1.014-0.253,1.252,0.11c0,0.016,0.017,0.016,0.017,0.033
			c0.079-0.127,0.174-0.253,0.301-0.38c0.365-0.396,1.015-0.254,1.253,0.109c0,0.018,0.017,0.018,0.017,0.034
			c0.062-0.128,0.172-0.254,0.3-0.381c0.365-0.396,1.015-0.253,1.253,0.112c0,0.016,0.016,0.016,0.016,0.031
			c0.063-0.127,0.175-0.253,0.286-0.379c0.286-0.301,0.715-0.286,1.015-0.111c0.285-0.174,0.713-0.174,0.982,0.111
			c0.111,0.125,0.222,0.252,0.302,0.379c0-0.015,0.015-0.015,0.015-0.031c0.237-0.365,0.888-0.507,1.253-0.112
			c0.126,0.127,0.222,0.27,0.301,0.396c0-0.015,0-0.031,0.016-0.049c0.236-0.363,0.887-0.505,1.252-0.109
			c0.125,0.127,0.221,0.269,0.3,0.395c0-0.015,0-0.032,0.016-0.048c0.238-0.364,0.889-0.506,1.253-0.11
			c0.286,0.317,0.492,0.634,0.475,0.935c0.254-0.207,0.587-0.253,0.841-0.126c0.16,0.079,0.301,0.221,0.38,0.411
			c0.176-0.428,0.73-0.586,1.08-0.411c0.395,0.188,0.633,0.807,0.285,1.219c-0.016,0.015-0.032,0.032-0.048,0.047
			c0.127,0.172,0.223,0.363,0.238,0.522c0.048-0.017,0.094,0,0.143,0.017c0.238-0.27,0.666-0.367,0.967-0.222
			c0.095,0.046,0.175,0.11,0.237,0.188c0.365-0.016,0.793,0.208,0.874,0.635c0.047,0.253,0.078,0.507,0.047,0.713
			c0.159-0.032,0.301-0.016,0.428,0.048c0.396,0.189,0.634,0.808,0.287,1.219c-0.018,0.016-0.033,0.033-0.049,0.048
			c0.238,0.079,0.444,0.284,0.508,0.569c0.032,0.176,0.063,0.333,0.063,0.477l0.016-0.017c0.396-0.189,1.031,0.032,1.126,0.57
			c0.063,0.285,0.078,0.554,0.031,0.762c0.096,0.221,0.08,0.491-0.078,0.711c0.031,0.032,0.047,0.081,0.047,0.112
			c0,0.033,0.016,0.048,0.016,0.079c0.206,0.015,0.396,0.111,0.523,0.238c0.302,0.3,0.302,0.965-0.158,1.251
			c-0.017,0.016-0.032,0.016-0.048,0.031c0.095,0.079,0.173,0.191,0.206,0.301l0.016,0.017c0.286,0.301,0.286,0.949-0.174,1.235
			C90.264,25.359,90.248,25.359,90.232,25.374z"/>
	</g>
	<path d="M70.673,29.858c0-0.949,0.385-1.72,0.86-1.72c0.474,0,0.859,0.771,0.859,1.72"/>
	<path d="M79.271,29.858c0-0.949,0.385-1.72,0.86-1.72c0.474,0,0.86,0.771,0.86,1.72"/>
	<path opacity="0.2" d="M74.3,33.559c0,0,0.322,1.074,1.719,1.074c1.397,0,1.72-1.074,1.72-1.074s-0.61,0.537-1.72,0.537
		S74.3,33.559,74.3,33.559z"/>
	<path opacity="0.2" d="M72.13,44.539c0,0,1.433,1.461,3.827,1.461c2.53,0,3.587-1.203,3.587-1.203s-1.294,0.668-3.57,0.679
		C73.578,45.488,72.13,44.539,72.13,44.539z"/>
	<path fill="#F8A233" d="M95.75,66.214c0,4.765-7.977,15.121-7.977,15.121L87.997,85H62.259c0,0,2.819-26.164-2.211-31.038
		c-5.031-4.874-26.347-13.649-26.347-13.649l4.388-8.106l22.728,10.848c0.001,0,3.59,1.821,8.921,3.491
		c1.307,0.41,2.385,3.46,5.96,3.527c3.884,0.07,5.409-2.25,6.561-2.005c5.914,1.261,9.987,2.843,9.987,2.843
		S95.75,57.639,95.75,66.214z"/>
	<path opacity="0.1" d="M95.75,66.149c0-8.545-3.505-15.249-3.505-15.249s-4.073-1.577-9.987-2.833
		c-1.123-0.238-2.617,1.937-6.284,1.983V85h12.022l-0.224-3.718C87.773,81.282,95.75,70.897,95.75,66.149z"/>
	<g>
		<circle cx="31.264" cy="33.113" r="1.785"/>
		<path fill="none" stroke="#000000" stroke-width="1.7196" stroke-miterlimit="10" d="M11.489,43.081
			c0,0,17.202-11.832,19.205-11.832s18.914,11.832,18.914,11.832"/>
		<g>
			<g>
				<rect x="5" y="42" fill="#FFFFFF" width="49" height="26"/>
				<path fill="#164A74" d="M52,44v22H7V44H52 M55,40H4v30h51V40L55,40z"/>
			</g>
			<rect x="10.349" y="50.369" fill="none" width="36.789" height="15.028"/>
			<text transform="matrix(0.9849 0 0 1 10.5894 60.7461)" fill="#164A74" font-family="'MyriadPro-Bold'" font-size="14.6174">OPEN</text>
		</g>
	</g>
	<path fill="#FFFFFF" d="M81.098,37c0,2-2.302,4.836-5.14,4.836c-2.839,0-5.141-2.836-5.141-4.836H81.098z"/>
	<g id="Isolation_Mode_1_">
		<g opacity="0.05">
			<rect x="32" y="42" width="22" height="26"/>
			<path d="M53,43v24H33V43H53 M55,40H31v30h24V40L55,40z"/>
		</g>
	</g>
	<g id="Isolation_Mode">
		<g opacity="0.1">
			<path d="M88.855,31.651c0.223-0.378,0.326-1.015,0.292-1.582c0.396-0.069,0.568-0.516,0.653-1.032
				c0.068-0.327-0.104-0.585-0.327-0.739c0.172-0.207,0.258-0.499,0.327-0.844c0.017-0.138,0.017-0.241-0.035-0.361
				c0.43,0,0.619-0.464,0.722-1.015c0.052-0.292-0.069-0.55-0.257-0.705c0.016-0.017,0.034-0.017,0.051-0.034
				c0.464-0.275,0.464-0.929,0.172-1.239l-0.017-0.016c-0.034-0.104-0.104-0.207-0.206-0.292c0.016-0.018,0.034-0.018,0.051-0.035
				c0.464-0.292,0.464-0.946,0.155-1.255c-0.121-0.121-0.31-0.223-0.516-0.241c0-0.017-0.017-0.034-0.017-0.069
				c0-0.034-0.018-0.085-0.052-0.12c0.155-0.207,0.172-0.482,0.086-0.706c0.034-0.207,0.017-0.481-0.034-0.756
				c-0.104-0.55-0.74-0.756-1.135-0.567l-0.017,0.018c0-0.155-0.018-0.31-0.052-0.482c-0.069-0.292-0.274-0.499-0.515-0.568
				l0.051-0.051c0.344-0.413,0.103-1.032-0.292-1.221c-0.121-0.069-0.257-0.087-0.43-0.052c0.035-0.206,0-0.447-0.034-0.705
				c-0.085-0.43-0.516-0.654-0.877-0.637c-0.068-0.085-0.138-0.138-0.241-0.189c-0.292-0.138-0.722-0.052-0.963,0.223
				c-0.051-0.017-0.104-0.034-0.138-0.017c-0.017-0.155-0.12-0.344-0.241-0.516c0.017-0.017,0.035-0.035,0.053-0.051
				c0.344-0.414,0.103-1.032-0.292-1.221c-0.344-0.172-0.911-0.018-1.083,0.412c-0.068-0.189-0.222-0.344-0.377-0.412
				c-0.257-0.138-0.58-0.087-0.839,0.12c0.018-0.292-0.181-0.619-0.456-0.928c-0.378-0.396-1-0.258-1.241,0.103
				c-0.017,0.017,0.014,0.035,0.014,0.051c-0.086-0.12-0.112-0.274-0.25-0.395c-0.361-0.396-1.135-0.258-1.135,0.103v0.052
				c0-0.121-0.309-0.258-0.43-0.395c-0.361-0.396-1.135-0.259-1.375,0.12c0,0.017-0.017,0.017-0.017,0.017
				c-0.069-0.121-0.189-0.241-0.292-0.378c-0.275-0.275-0.705-0.275-0.979-0.104c-0.104-0.058-0.223-0.089-0.345-0.107v32.642
				c5.159,0,8.736-3.903,10.559-8.375c1.255,1.05,2.957-0.206,3.817-1.203c0.018-0.018,0.018-0.034,0.052-0.069
				c0.051-0.069,0.085-0.138,0.154-0.241C91.726,34.11,90.625,31.84,88.855,31.651z"/>
		</g>
	</g>
</g>
<g id="Company_Registration">
</g>
<g id="NCC">
</g>
<g id="TCC">
</g>
<g id="Trademarking">
</g>
<g id="svg2">
</g>
</svg>
