<?xml version="1.0" encoding="utf-8"?>
<!-- Generator: Adobe Illustrator 16.0.0, SVG Export Plug-In . SVG Version: 6.00 Build 0)  -->
<!DOCTYPE svg PUBLIC "-//W3C//DTD SVG 1.1//EN" "http://www.w3.org/Graphics/SVG/1.1/DTD/svg11.dtd">
<svg version="1.1" xmlns="http://www.w3.org/2000/svg" xmlns:xlink="http://www.w3.org/1999/xlink" x="0px" y="0px" width="100px"
	 height="100px" viewBox="0 0 100 100" enable-background="new 0 0 100 100" xml:space="preserve">
<g id="Business_Registration">
	<g id="Isolation_Mode_1_">
	</g>
	<g id="Isolation_Mode">
	</g>
</g>
<g id="Company_Registration">
</g>
<g id="NCC">
</g>
<g id="TCC">
</g>
<g id="Trademarking">
	<polygon fill="#962323" points="45.244,37.138 44.113,95.127 44.832,95.141 50.529,85 56.217,74.859 61.512,85.214 66.809,95.569 
		68.109,95.594 69.24,37.606 	"/>
	<polygon opacity="0.2" points="56.217,74.859 61.512,85.214 66.809,95.569 68.109,95.594 69.24,37.606 56.334,37.138 	"/>
	<polygon fill="#C92727" points="64.379,44.904 33.688,94.118 33.078,93.737 33.838,82.131 34.604,70.529 24.516,76.318 
		14.428,82.106 13.324,81.419 44.016,32.204 	"/>
	<polygon opacity="0.2" points="54.616,38.815 64.379,44.904 33.688,94.118 33.078,93.737 33.838,82.131 34.604,70.529 	"/>
	<g opacity="0.3">
		<path d="M79.381,45.787c-3.025,3.973-0.686,6.211-6.129,6.943c-4.045,0.552-5.742,2.229-9.014,4.751
			c-3.814-1.56-5.906-2.732-9.949-2.191c-5.445,0.741-3.775-2.038-7.748-5.064c-3.975-3.026-6.211-0.687-6.943-6.13
			c-0.51-3.729-4.338-5.94-4.75-9.014c-0.043-0.315-0.047-0.619-0.025-0.936c1.072,2.468,3.947,4.552,4.387,7.749
			c0.73,5.443,2.969,3.104,6.943,6.129c3.973,3.026,2.303,5.805,7.748,5.065c4.043-0.542,6.135,0.631,9.947,2.19
			c3.273-2.522,4.971-4.198,9.016-4.75c5.443-0.731,3.104-2.97,6.129-6.943c3.025-3.974,5.805-2.303,5.064-7.75
			c-0.447-3.345,2.008-6.236,2.217-9.012c0.182,0.409,0.307,0.832,0.365,1.267c0.414,3.064-2.693,6.221-2.193,9.947
			C85.188,43.484,82.406,41.813,79.381,45.787z"/>
		<path opacity="0.2" d="M79.381,45.787c-3.025,3.973-0.686,6.211-6.129,6.943c-4.045,0.552-5.742,2.229-9.014,4.751
			c-3.814-1.56-5.906-2.732-9.949-2.191c-5.445,0.741-3.775-2.038-7.748-5.064c-3.975-3.026-6.211-0.687-6.943-6.13
			c-0.51-3.729-4.338-5.94-4.75-9.014c-0.043-0.315-0.047-0.619-0.025-0.936c1.072,2.468,3.947,4.552,4.387,7.749
			c0.73,5.443,2.969,3.104,6.943,6.129c3.973,3.026,2.303,5.805,7.748,5.065c4.043-0.542,6.135,0.631,9.947,2.19
			c3.273-2.522,4.971-4.198,9.016-4.75c5.443-0.731,3.104-2.97,6.129-6.943c3.025-3.974,5.805-2.303,5.064-7.75
			c-0.447-3.345,2.008-6.236,2.217-9.012c0.182,0.409,0.307,0.832,0.365,1.267c0.414,3.064-2.693,6.221-2.193,9.947
			C85.188,43.484,82.406,41.813,79.381,45.787z"/>
	</g>
	<g>
		<path fill="#FF0000" d="M63.568,56.239c-3.818-1.566-5.906-2.736-9.949-2.189c-5.445,0.737-3.779-2.045-7.75-5.071
			c-3.971-3.025-6.211-0.684-6.947-6.126c-0.506-3.726-4.338-5.944-4.752-9.01c-0.414-3.068,2.693-6.222,2.189-9.949
			c-0.734-5.443,2.047-3.779,5.072-7.75c3.025-3.969,0.684-6.21,6.127-6.948c3.725-0.505,5.943-4.336,9.01-4.75
			s6.221,2.692,9.949,2.189c5.441-0.735,3.781,2.045,7.75,5.07s6.211,0.687,6.947,6.128c0.506,3.726,4.336,5.944,4.75,9.01
			c0.416,3.068-2.691,6.221-2.188,9.949c0.734,5.444-2.047,3.781-5.074,7.752c-3.023,3.97-0.684,6.208-6.125,6.946
			C68.539,52.036,66.832,53.718,63.568,56.239z"/>
		<path opacity="0.2" fill="#FF0000" d="M63.568,56.239c-3.818-1.566-5.906-2.736-9.949-2.189c-5.445,0.737-3.779-2.045-7.75-5.071
			c-3.971-3.025-6.211-0.684-6.947-6.126c-0.506-3.726-4.338-5.944-4.752-9.01c-0.414-3.068,2.693-6.222,2.189-9.949
			c-0.734-5.443,2.047-3.779,5.072-7.75c3.025-3.969,0.684-6.21,6.127-6.948c3.725-0.505,5.943-4.336,9.01-4.75
			s6.221,2.692,9.949,2.189c5.441-0.735,3.781,2.045,7.75,5.07s6.211,0.687,6.947,6.128c0.506,3.726,4.336,5.944,4.75,9.01
			c0.416,3.068-2.691,6.221-2.188,9.949c0.734,5.444-2.047,3.781-5.074,7.752c-3.023,3.97-0.684,6.208-6.125,6.946
			C68.539,52.036,66.832,53.718,63.568,56.239z"/>
	</g>
	<g opacity="0.5">
		<circle fill="none" stroke="#000000" stroke-width="3" stroke-miterlimit="10" cx="60.067" cy="30.323" r="17.769"/>
		<g>
			<path d="M53.312,21.581c1.314-0.237,3.248-0.39,5.447-0.381c2.684,0.012,4.559,0.42,5.842,1.473
				c1.096,0.863,1.68,2.125,1.674,3.789c-0.008,2.278-1.65,3.854-3.209,4.414v0.081c1.258,0.512,1.953,1.696,2.4,3.361
				c0.557,2.068,1.082,4.432,1.43,5.13l-4.186-0.018c-0.268-0.509-0.717-1.987-1.219-4.217c-0.5-2.281-1.275-2.875-2.965-2.909
				L57.318,32.3l-0.027,7.108l-4.051-0.018L53.312,21.581z M57.33,29.349l1.609,0.006c2.041,0.009,3.25-1.007,3.258-2.589
				c0.008-1.635-1.115-2.498-2.996-2.507c-0.992-0.003-1.553,0.048-1.85,0.126L57.33,29.349z"/>
		</g>
	</g>
</g>
<g id="svg2">
</g>
</svg>
